<?xml version="1.0" encoding="iso-8859-1"?>
<!-- Generator: Adobe Illustrator 19.0.0, SVG Export Plug-In . SVG Version: 6.00 Build 0)  -->
<svg version="1.1" id="Capa_1" xmlns="http://www.w3.org/2000/svg" xmlns:xlink="http://www.w3.org/1999/xlink" x="0px" y="0px"
	 viewBox="0 0 512.001 512.001" style="enable-background:new 0 0 512.001 512.001;" xml:space="preserve">
<path style="fill:#9E9E9E;" d="M140.363,118.999c0-0.153,55.894-0.964,60.978-1.052c10.371-0.179,20.969,0.264,31.308-0.538
	c6.012-0.467,15.294-3.382,19.145,3.294c3.086,5.349,0.639,19.838,0.691,26.122c0.03,3.611-0.06,7.508-2.232,10.393
	c-1.822,2.42-4.776,3.662-7.614,4.72c-14.258,5.314-27.949,8.839-43.105,7.699c-15.738-1.183-31.312,2.898-47.151,2.583
	c-3.473-0.069-6.954-0.244-10.417,0.027c-1.276,0.1-2.686,0.333-3.479,1.338c-0.557,0.706-0.686,1.649-0.766,2.544
	c-0.664,7.391,1.581,72.265,0.795,72.265c11.004,1.163,21.413,7.143,27.961,16.064c-7.255,5.533-14.509,11.066-21.763,16.599
	c2.694,6.916,5.387,13.832,8.081,20.747c8.422-3.759,17.102-6.941,25.958-9.516c2.635,7.238,4.066,14.912,4.218,22.613
	c-8.533-0.135-17.088,1.237-25.15,4.034c1.678,4.685,2.66,9.618,2.904,14.588c6.91-0.688,13.961,0.087,20.557,2.257
	c0.665,4.332,1.321,8.823,0.137,13.043s-4.745,8.108-9.128,8.196c-2.976,0.06-5.712-1.576-8.645-2.085
	c-8.512-1.475-16.254,9.356-12.104,16.932c2.125,3.879,6.214,6.175,9.521,9.111c8.56,7.6-0.57,13.649-8.089,17.739
	c-3.2,1.741-6.82,1.167-8.74,5.088c-0.915,1.868-0.886,4.041-0.839,6.121c0.647,28.224,1.549,56.333,3.146,84.519
	c0.173,3.045,0.532,6.47,2.916,8.372c1.73,1.38,4.094,1.577,6.304,1.693c15.851,0.834,31.74,0.468,47.605-0.052
	c38.234-1.255,76.431-3.411,114.625-5.568c28.057-1.584,56.114-3.168,84.171-4.751c4.726-0.267,10.261-1.015,12.547-5.16
	c1.458-2.643,1.078-5.875,0.695-8.869c-2.293-17.928-3.195-36.033-2.696-54.1c-19.643-0.886-39.246-2.671-58.726-5.349
	c-1.409-0.194-2.93-0.447-3.916-1.472c-1.003-1.042-1.186-2.603-1.31-4.044c-1.981-22.956-2.477-46.039-1.484-69.059
	c0.473-10.959,5.35-17.19,15.912-19.836c15.975-4.003,33.143-0.901,49.005-5.333c2.807-15.978,4.136-32.215,3.963-48.437
	c-19.408-2.369-38.816-4.738-58.223-7.107c-2-0.244-4.124-0.54-5.665-1.839c-2.183-1.839-2.488-5.032-2.621-7.883
	c-1.797-38.371-1.646-76.833,0.451-115.189c0.18-3.287,0.544-6.941,3.014-9.118c1.927-1.699,4.661-2.047,7.219-2.294
	c21.061-2.039,42.287-2.365,63.4-0.976c-1.545-35.678-4.139-71.31-7.776-106.835c-0.229-2.24-0.521-4.623-1.958-6.357
	c-1.928-2.327-5.271-2.763-8.282-3.023c-41.019-3.541-82.197-5.248-123.368-5.116c-39.206,0.125-78.995,0.015-117.756,6.485
	c-10.49,1.751-21.15,1.447-23.587,13.253c-2.69,13.033-1.861,27.918-2.068,41.179C138.666,84.783,139.142,101.918,140.363,118.999z"
	/>
<g>
	<path style="fill:#FFDC0F;" d="M169.463,96.763c18.248-0.483,36.496-0.966,54.743-1.449c-0.416-19.536-2.085-39.045-4.996-58.368
		c-3.225,0.102-51.095-1.361-50.956,3.514c0.242,8.48-0.329,17.024-0.232,25.704C168.138,76.375,168.618,86.584,169.463,96.763z"/>
	<path style="fill:#FFDC0F;" d="M247.463,96.763c18.248-0.483,36.496-0.966,54.743-1.449c-0.416-19.536-2.085-39.045-4.996-58.368
		c-3.225,0.102-51.095-1.361-50.956,3.514c0.242,8.48-0.329,17.024-0.232,25.704C246.138,76.375,246.618,86.584,247.463,96.763z"/>
	<path style="fill:#FFDC0F;" d="M326.463,95.763c18.248-0.483,36.496-0.966,54.743-1.449c-0.416-19.536-2.085-39.045-4.996-58.368
		c-3.225,0.102-51.095-1.361-50.956,3.514c0.242,8.48-0.329,17.024-0.232,25.704C325.138,75.375,325.618,85.584,326.463,95.763z"/>
	<path style="fill:#FFDC0F;" d="M263.463,258.263c18.248-0.483,36.496-0.966,54.743-1.449c-0.416-19.536-2.085-39.045-4.996-58.368
		c-3.225,0.102-51.095-1.361-50.956,3.514c0.242,8.48-0.329,17.024-0.232,25.704C262.138,237.875,262.618,248.084,263.463,258.263z"
		/>
	<path style="fill:#FFDC0F;" d="M185.463,258.263c18.248-0.483,36.496-0.966,54.743-1.449c-0.416-19.536-2.085-39.045-4.996-58.368
		c-3.225,0.102-51.095-1.361-50.956,3.514c0.242,8.48-0.329,17.024-0.232,25.704C184.138,237.875,184.618,248.084,185.463,258.263z"
		/>
	<path style="fill:#FFDC0F;" d="M262.463,338.763c18.248-0.483,36.496-0.966,54.743-1.449c-0.416-19.536-2.085-39.045-4.996-58.368
		c-3.225,0.102-51.095-1.361-50.956,3.513c0.242,8.48-0.329,17.024-0.232,25.704C261.138,318.375,261.618,328.584,262.463,338.763z"
		/>
	<path style="fill:#FFDC0F;" d="M263.463,420.263c18.248-0.483,36.496-0.966,54.743-1.449c-0.416-19.536-2.085-39.045-4.996-58.368
		c-3.225,0.102-51.095-1.361-50.956,3.513c0.242,8.48-0.329,17.024-0.232,25.704C262.138,399.875,262.618,410.084,263.463,420.263z"
		/>
	<path style="fill:#FFDC0F;" d="M176.651,333.468c-5.566-0.434-11.132-0.868-16.698-1.302l0.535-15.962
		c6.962-0.515,13.865-1.813,20.538-3.862c-0.867-7.17-2.729-14.219-5.516-20.881c-7.445,1.987-14.89,3.975-22.335,5.963
		c-3.808-6.042-7.689-12.423-2.689-17.852c1.266-1.374,15.287-15.696,14.487-16.473c-6.703-6.506-14.274-12.117-22.449-16.638
		c-5.391,6.302-10.782,12.604-16.173,18.906c-2.777-1.003-5.555-2.007-8.332-3.01c0.234-9.294,0.468-18.589,0.702-27.883
		l-37.087,0.041c-1.497,0.002-3.237,0.124-4.089,1.354c-0.597,0.862-0.548,2-0.475,3.045c0.497,7.135,0.995,14.27,1.492,21.406
		c-2.841,1.574-5.682,3.147-8.523,4.721c-5.761-3.991-7.322-19.512-15.405-19.691c-7.362-0.164-19.042,12.558-23.434,17.615
		c4.659,5.114,9.319,10.228,13.978,15.341c0.579,0.635,1.179,1.308,1.384,2.143c0.245,0.993-0.11,2.024-0.46,2.984
		c-1.864,5.113-3.727,10.225-5.591,15.338c-6.512-2.354-13.311-3.913-20.197-4.631c-2.644,7.078-4.649,14.394-5.984,21.831
		l20.316,1.068l-1.798,17.728c-7.501,0.591-14.891,2.562-21.691,5.784c3.357,5.906,5.798,12.331,7.209,18.975
		c7.523-1.59,14.928-3.738,22.134-6.42c3.558,5.424,6.645,11.158,9.213,17.115c-8.036,4.101-14.742,10.761-18.898,18.769
		c6.742,7,14.319,13.193,22.519,18.409c-0.055-0.035,7.161-11.83,7.792-12.924c4.822-8.36,17.245-8.751,21.712,0.868
		c-1.395,6.541-3.852,12.556-5.326,19.14c-0.166,0.742-0.271,1.666,0.334,2.126c0.376,0.286,0.893,0.271,1.365,0.244
		c2.242-0.132,40.014-3.305,40.014-3.066c-0.214-7.331-1.838-14.618-4.756-21.346c-0.237-0.547-0.486-1.166-0.263-1.719
		c0.174-0.432,0.592-0.705,0.987-0.952c3.781-2.358,8.603-3.845,12.899-4.951c1.04-0.268,2.176-0.494,3.157-0.057
		c1.255,0.56,1.825,1.994,2.275,3.293c2.114,6.098,4.228,12.196,6.342,18.294c8.727-4.732,16.847-10.582,24.098-17.363
		c0.654-0.611,1.338-1.302,1.455-2.188c0.155-1.177-0.731-2.211-1.566-3.056c-5.107-5.169-10.629-9.927-16.496-14.213
		c1.664-4.602,3.329-9.205,4.993-13.807c0.356-0.984,0.783-2.054,1.706-2.547c0.903-0.482,2.004-0.264,3.002-0.035
		c5.207,1.2,10.415,2.401,15.622,3.601c1.465,0.338,3.157,0.631,4.346-0.29c0.771-0.597,1.131-1.57,1.429-2.498
		c1.703-5.32,2.538-10.916,2.462-16.502c-0.012-0.884-0.064-1.824-0.571-2.549C179.564,333.781,178.016,333.575,176.651,333.468z
		 M100.094,356.588c-16.368,1.994-30.907-9.405-30.707-26.24c0.014-1.165,0.107-2.331,0.239-3.495
		c-1.014-1.057-1.664-2.518-1.652-4.352c0.041-6.167,3.81-14.86,9.782-18.49c3.239-3.112,7.095-5.562,11.349-7.074
		c1.086-0.908,2.438-1.469,3.895-1.351c0.102,0.008,0.202,0.011,0.304,0.018c0.322-0.033,0.638-0.082,0.943-0.156
		c0.259-0.077,0.543-0.157,0.676-0.187c0.563-0.127,1.107-0.32,1.667-0.455c0.014-0.005,0.022-0.008,0.035-0.013
		c0.143-0.063,0.285-0.128,0.427-0.191c3.285-1.734,7.035-0.82,9.152,2.177c10.942-0.464,17.814,9.814,19.805,20.151
		C129.446,334.773,119.254,354.253,100.094,356.588z"/>
</g>
<g>
	<path style="fill:#FF8225;" d="M11.838,137.801c-1.092,5.47-0.707,11.114-0.318,16.679c0.418,5.965,1.144,10.889,7.394,13.549
		c4.038,1.719,8.579,1.697,12.965,1.546c11.368-0.393,22.711-1.47,34.085-1.562c17.714-0.142,35.349,2.107,53.021,3.335
		c38.882,2.7,78.106,0.432,116.417-6.734c2.157-0.403,4.368-0.844,6.219-2.022c3.608-2.295,5.041-6.809,5.829-11.012
		c1.482-7.895,4.518-26.491-2.74-32.69c-9.106-7.778-28.964-6.438-40.032-5.932c-19.704,0.901-39.325,3.011-58.9,5.369
		c-12.715,1.532-26.163-0.181-38.951-0.309c-13.951-0.14-27.914,0.037-41.836,1.015c-11.715,0.823-23.384,2.229-34.92,4.444
		C19.948,125.42,14.208,125.932,11.838,137.801z"/>
	<path style="fill:#FF8225;" d="M372.169,124.684c-4.812,0.099-9.952,0.302-13.866,3.104c-5.455,3.905-6.665,11.408-7.069,18.104
		c-0.53,8.798-0.455,17.62-0.379,26.434c0.218,25.501,0.436,51.002,0.653,76.503c0.047,5.525,0.514,11.906,5.003,15.127
		c2.731,1.96,6.295,2.199,9.652,2.369c22.872,1.159,45.745,2.317,68.617,3.476c12.784,0.648,25.584,1.295,38.378,0.912
		c6.281-0.188,13.029-0.806,17.834-4.857c3.843-3.24,5.797-8.169,7.194-12.997c3.179-10.986,4.227-22.473,4.73-33.898
		c1.1-24.968-0.337-50.048-4.281-74.727c-0.766-4.795-2.065-10.212-6.336-12.522c-1.799-0.973-3.885-1.231-5.916-1.467
		C448.114,125.797,410.622,123.881,372.169,124.684z"/>
	<path style="fill:#FF8225;" d="M346.469,409.134c0.215,3.093,0.623,6.503,2.934,8.571c1.775,1.587,4.277,2.004,6.635,2.334
		c27.505,3.854,55.383,5.039,83.115,3.532c2.127-0.116,4.409-0.306,6.055-1.659c1.684-1.385,2.299-3.659,2.737-5.795
		c1.934-9.443,2.207-19.136,2.473-28.771c0.521-18.861,1.043-37.721,1.564-56.582c0.047-1.708,0.006-3.641-1.243-4.808
		c-0.857-0.8-2.083-1.032-3.239-1.222c-25.058-4.117-50.62-4.192-75.979-2.864c-6.713,0.352-14.804,1.74-19.48,7.163
		c-4.351,5.046-3.922,13.569-4.567,19.842C345.413,368.884,345.073,389.069,346.469,409.134z"/>
</g>
<path style="fill:#7F7F7F;" d="M240.502,444.729c-30.221,0.041-60.441,0.082-90.661,0.123c-1.052,0.001-2.201,0.037-3,0.721
	c-0.921,0.788-1.047,2.144-1.094,3.355c-0.57,14.672,0.552,29.41,3.337,43.826c0.528,2.731,1.189,5.597,3.093,7.624
	c2.966,3.157,7.86,3.26,12.19,3.142c76.788-2.091,153.577-4.181,230.365-6.272c5.805-0.158,12.502-0.775,15.796-5.557
	c1.943-2.82,2.174-6.438,2.341-9.858c0.584-11.961,1.167-23.922,1.751-35.882c0.023-0.477-127.347,2.078-138.784,0.597
	C264.058,445.022,252.376,444.712,240.502,444.729z"/>
<g>
	<path style="fill:#FFDC0F;" d="M264.517,481.13c1.533,3.293,4.764,5.595,8.257,6.594c7.291,2.084,15.806-1.643,19.222-8.413
		c5.319-10.541-2.968-21.23-14.403-19.889C268.867,460.446,260.67,472.867,264.517,481.13z"/>
	<path style="fill:#FFDC0F;" d="M371.412,355.888c-2.844,6.255-3.122,13.632-0.757,20.083c0.861,2.348,2.081,4.607,3.873,6.352
		c2.014,1.961,4.656,3.178,7.371,3.905c8.086,2.165,17.561-0.26,22.654-6.904c4.808-6.273,5.086-14.794,5.162-22.698
		c0.045-4.663-0.052-9.748-3.005-13.357C394.768,328.68,376.932,343.746,371.412,355.888z"/>
	<path style="fill:#FFDC0F;" d="M403.04,182.068c1.57,2.389,3.793,4.515,4.31,7.327c0.397,2.16-0.297,4.357-1.013,6.433
		c-4.031,11.692-9.046,23.044-14.976,33.897c-1.653,3.026-3.402,6.079-4.081,9.459c-0.678,3.381-0.095,7.227,2.383,9.626
		c1.512,1.464,3.547,2.239,5.541,2.91c17.407,5.861,36.508,6.587,54.31,2.064c3.447-0.876,7.376-2.478,8.2-5.937
		c0.438-1.841-0.155-3.753-0.743-5.552c-5.553-16.993-11.105-33.986-16.658-50.979c-0.323-0.988-0.649-1.999-0.637-3.038
		c0.026-2.113,1.413-3.922,2.45-5.763c3.775-6.703,2.945-15.704-1.991-21.604C425.501,143.419,388.587,160.073,403.04,182.068z"/>
</g>
<path d="M71.187,308.4c-4.143,6.598-6.038,14.634-4.996,22.74c2.655,20.664,23.771,31.707,42.793,24.414
	c18.838-7.223,25.432-30.011,17.041-47.636c-1.471-3.09-3.414-5.971-5.867-8.368c-9.218-9.004-23.225-8.759-34.395-3.827
	C79.616,298.435,74.627,302.922,71.187,308.4z M104.944,349.363c-14.777,4.822-29.678-3.75-32.596-19.057
	c-1.979-10.385,2.137-20.07,9.389-26.354c14.695-7.123,33.511-7.713,39.206,11.073C125.154,328.914,119.381,344.652,104.944,349.363
	z"/>
<path d="M442.466,189.568c6.014-6.462,9.074-15.311,5.738-24.244c-10.872-29.116-61.112-12.236-49.688,17.372
	c1.24,3.215,3.314,6.164,3.79,9.577c1.133,8.119-5.876,15.749-9.297,22.51c-3.97,7.846-8.96,16.209-10.383,25.022
	c-2.647,16.395,13.898,19.856,26.881,20.382c9.092,0.368,18.106-0.748,27.176-1.008c7.015-0.202,15.087,1.255,20.376-4.498
	c13.474-14.658-9.137-49.401-13.818-63.676C443.055,190.438,442.781,189.974,442.466,189.568z M405.285,170.344
	c2.29-4.997,6.742-9.346,11.806-11.226c6.058-2.249,12.794-2.471,18.024,1.837c5.773,4.753,7.642,12.33,4.014,18.922
	c-5.229,9.504-19.784,15.186-29.311,8.664C402.933,183.828,402.426,176.581,405.285,170.344z M432.469,250.349
	c-5.617,0.296-11.216,0.776-16.845,0.839c-5.799,0.064-13.429,0.761-18.749-1.88c-8.394-4.168-5.298-11.453-2.446-18.831
	c4.445-11.501,9.343-22.787,13.75-34.317c4.96,2.86,11.016,4.088,17.339,2.904c3.368-0.631,6.655-1.931,9.681-3.704
	c5.175,14.179,16.196,29.939,15.929,45.085C450.922,252.107,440.638,249.918,432.469,250.349z"/>
<path d="M504.864,205.376c-0.876-14.534,0.27-29.001,0.12-43.537c-0.09-8.688,0.858-25.174-5.298-32.414
	c-5.364-6.309-17.575-5.149-25.126-5.889c-3.414-0.334-43.495-4.474-43.809-2.588c0.205-0.897,0.23-1.886,0.014-2.955
	c-2.452-12.153-1.151-25.886-2.389-38.342c-1.22-12.281-2.042-24.499-2.525-36.826c-0.422-10.8,2.19-31.925-10.334-37.575
	c-6.458-2.913-16-2.034-22.778-2.393c-12.641-0.671-25.284-1.301-37.932-1.792c-25.444-0.989-50.925-1.47-76.38-0.642
	c-25.554,0.831-51.131,2.835-76.637,4.608c-12.893,0.897-25.781,1.944-38.614,3.494c-6.517,0.787-14.398,0.87-20.308,3.944
	c-11.763,6.117-9.853,21.878-10.251,33.069c-0.803,22.614-1.851,45.788,0.742,68.347c-0.443,0.02-0.892,0.046-1.335,0.065
	c-1.659,0.024-3.315,0.019-4.974,0.049c-31.586,0.579-64.555-0.485-95.895,3.777c-21.324,2.9-25.482,10.084-25.106,30.516
	c0.121,6.582-0.412,14.117,3.693,19.757c5.893,8.096,16.605,6.353,25.359,6.088c16.916-0.512,33.839,0.004,50.746,0.6
	c8.669,0.305,17.337,0.634,26.008,0.856c4.333,0.111,8.667,0.197,13.002,0.239c2.675,0.026,6.48-0.224,7.77,2.768
	c1.616,3.751,0.256,9.89,0.186,13.872c-0.09,5.079,0.05,10.159,0.119,15.238c0.094,6.973-0.662,13.935-0.392,20.909
	c0.347,8.935,2.788,19.363-2.484,27.409c-1.863,2.843-3.721,6.093-7.05,2.565c-2.965-3.141-1.164-11.367-1.095-15.529
	c0.045-2.724,1.529-9.418-0.32-11.637c-0.707-0.849-1.899-1.076-2.993-1.231c-14.962-2.125-30.393-0.874-44.817,3.633
	c-2.043,0.639,0.14,11.688,0.334,13.174c0.319,2.442,1.019,5.056,1.037,7.519c0.019,2.588-2.417,7.202-5.724,5.224
	c-6.484-3.878-2.921-15.397-10.332-18.326c-5.328-2.106-12.658,3.911-16.479,6.741c-4.444,3.293-14.466,8.453-16.359,14.121
	c-1.604,4.801,2.363,8.702,5.713,11.556c2.841,2.421,7.523,3.408,9.229,6.982c0.423,0.886,0.604,1.877,0.607,2.859
	c0.011,3.705-2.372,6.935-4.645,9.86c-5.558-1.782-11.115-3.564-16.673-5.345c-0.918-0.294-1.935-0.585-2.818-0.199
	c-0.904,0.395-1.38,1.373-1.781,2.275c-1.814,4.072-3.868,8.092-5.126,12.385c-1.238,4.225-1.236,9.131-1.996,13.548
	c-0.133,0.771-0.241,1.646,0.243,2.26c0.479,0.607,1.343,0.711,2.114,0.768c5.172,0.383,10.345,0.767,15.517,1.15
	c1.182,0.088,2.502,0.244,3.252,1.162c1.371,1.679-0.079,5.488-0.19,7.416c0.061-1.066-17.132,3.369-18.127,3.639
	c-0.931,0.253-1.926,0.546-2.532,1.296c-0.918,1.136-0.578,2.797-0.191,4.205c2.078,7.569,4.155,15.138,6.233,22.708
	c0.332,1.21,0.793,2.574,1.95,3.063c0.888,0.375,1.902,0.098,2.824-0.181c5.319-1.612,10.5-3.789,15.726-5.447
	c1.136-0.36,2.449-0.353,3.443,0.303c0.883,0.583,1.392,1.575,1.862,2.522c0.93,1.873,1.859,3.746,2.789,5.619
	c0.216,0.435,0.438,0.903,0.374,1.384c-0.079,0.599-0.573,1.046-1.034,1.436c-6.211,5.255-12.696,10.043-18.347,15.97
	c2.596,3.633,5.773,6.425,8.831,9.613c5.531,5.767,13.521,10.017,19.943,14.779c0.814,0.603,1.772,1.24,2.759,1.012
	c0.772-0.178,1.322-0.84,1.807-1.466c4.386-5.668,7.459-12.353,11.775-17.943c2.464,1.895,5.132,3.507,7.971,5.075
	c-1.208-0.667-6.056,19.616-5.806,21.154c0.318,1.964,16.059,2.498,17.98,2.52c9.573,0.108,19.165-0.518,28.626-2.011
	c2.253-0.356,4.825-0.994,5.811-3.051c0.796-1.66,0.233-3.621-0.34-5.371c-1.739-5.311-3.478-10.623-5.217-15.934
	c-0.02-0.059,9.004-2.623,9.63-2.814c-0.75,0.24,3.728,9.898,4.088,10.64c2.321,4.778,4.372,9.189,4.839,14.537
	c0.44,5.049,0.102,9.854-0.151,14.945c-0.62,12.491-0.51,25.011,0.09,37.501c0.522,10.856-1.351,28.606,7.989,36.595
	c10.955,9.37,34.191,6.431,47.182,5.855c22.634-1.002,45.057-2.266,67.735-2.306c46.416-0.082,92.324-0.641,138.615-4.245
	c12.874-1.002,21.841-2.457,24.312-16.719c3.152-18.196-2.757-36.413-1.176-54.66c0.064-0.741,0.16-1.532,0.645-2.096
	c0.657-0.764,1.787-0.858,2.794-0.885c7.536-0.206,17.386,0.559,23.879-4.064c6.009-4.279,6.775-12.778,7.497-19.469
	c2.279-21.092,0.918-41.482,0.176-62.56c-0.303-8.631-1.009-18.035-9.599-22.419c-3.989-2.035-8.38-2.484-12.777-2.77
	c-2.885-0.188-7.523,0.981-9.893-1.191c-1.128-1.033-1.436-2.687-1.442-4.217c-0.026-6.972-1.004-13.917-0.919-20.901
	c0.062-5.119,0.623-10.359,1.114-15.441c5.03-1.601,12.302-0.017,17.563,0.246c14.987,0.748,29.92,2.718,44.102-3.585
	c15.738-7.176,19.951-24.115,20.737-40.053C506.307,224.291,505.434,214.833,504.864,205.376z M81.175,166.742
	c-11.963-0.433-23.91-0.802-35.882-0.857c-12.775-0.059-30.961,3.812-31.587-14.372c-0.296-8.58-1.68-18.908,6.473-23.725
	c1.049-0.62,2.22-1.14,3.458-1.599c11.825-1.683,23.733-0.433,35.635-0.807c13.179-0.415,26.355-1.172,39.526-1.782
	c23.992-1.111,47.965-1.704,71.974-2.236c11.55-0.256,23.081-0.867,34.627-1.203c3.343-0.097,7.827-0.53,12.605-0.853
	c3.747-0.07,7.492-0.174,11.239-0.241c0.144-0.003,0.249-0.058,0.378-0.082c4.885,0.151,9.384,0.801,12.569,2.459
	c9.49,4.94,6.926,28.065,1.456,34.892c-5.609,7.001-15.918,7.009-24.14,7.571C173.449,167.053,127.322,168.413,81.175,166.742z
	 M135.143,386.153c-0.531-1.315-1.544-5.096-3.08-5.575c-1.417-0.442-5.631,1.746-7.095,2.206c-5.087,1.6-10.174,3.2-15.261,4.799
	c1.623,8.305,3.246,16.611,4.869,24.916c-6,0.967-12.091,1.362-18.166,1.185c-1.265-0.037-14.113-1.728-14.258-0.505
	c0.701-5.892,1.402-11.784,2.103-17.676c0.147-1.236,0.286-2.533-0.179-3.687c-0.946-2.341-3.767-3.099-5.701-4.377
	c-2.17-1.434-4.295-3.051-6.446-4.548c-0.567-0.395-3.706-3.394-4.142-3.394c-5.02,6.879-9.836,13.907-14.438,21.073
	c-1.41-1.059-16.683-12.523-16.372-12.968c2.376-3.4,4.606-6.568,7.518-9.496c0.834-0.838,8.605-7.489,8.411-8.051
	c-1.718-4.99-3.335-9.893-5.63-14.61c-0.502-1.032-2.968-8.423-4.032-8.599c-7.17,2.603-14.339,5.205-21.509,7.808
	c-1.599-4.84-3.074-9.6-4.192-14.574c6.038-1.949,12.421-2.822,18.76-2.565c0.152-1.77,1.796-23.344,2.382-23.275
	c-7.302-0.859-14.604-1.718-21.906-2.577c0.872-3.224,1.635-12.949,5.492-14.043c1.013-0.287,2.091-0.025,3.111,0.237
	c6.37,1.637,12.74,3.274,19.11,4.911c2.867-5.944,5.515-11.918,8.425-17.829c0.515-1.046,1.043-2.218,0.717-3.338
	c-0.238-0.815-0.886-1.433-1.508-2.01c-3.192-2.961-7.128-5.805-9.871-9.181c-2.03-2.498-3.687-5.308-5.869-7.752
	c5.836-4.694,12.002-8.976,18.438-12.805c1.408,3.223,3.032,6.35,4.858,9.356c1.358,2.235,3.032,6.003,5.024,7.685
	c4.799,4.051,15.449-0.164,17.401-5.805c0.791-2.287,0.556-4.786,0.31-7.194c-0.411-4.033-0.822-8.067-1.233-12.1
	c-0.09-0.885-0.151-1.875,0.415-2.561c0.527-0.64,1.426-0.8,2.247-0.919c9.765-1.41,19.571-2.633,29.447-1.778
	c-0.146,8.943,0.194,17.774-0.005,26.676c6.578,1.727,13.157,3.454,19.735,5.181c2.591-6.675,6.05-12.26,9.661-18.383
	c6.58,3.669,12.685,8.189,18.116,13.412c-3.35,3.162-6.474,6.571-9.76,9.728c-2.416,2.322-6.391,3.49-7.394,7.028
	c-0.584,2.061,0.179,4.241,0.978,6.228c2.257,5.612,4.889,11.072,7.873,16.334c5.391-1.886,11.189-2.564,16.376-4.72
	c1.963-0.816,4.46-1.299,6.026,0.138c0.681,0.625,1.051,1.512,1.36,2.384c1.084,3.062,1.652,6.279,2.215,9.479
	c0.012,0.478-8.105,2.093-8.766,2.254c-4.682,1.141-9.506,2.631-13.672,5.124c0.422,5.473,0.843,10.946,1.265,16.419
	c0.048,0.625,0.116,1.299,0.531,1.769c0.497,0.563,1.326,0.657,2.074,0.713c5.49,0.411,10.437,1.748,15.776,3.165
	c0.662,0.176,1.381,0.39,1.767,0.956c0.48,0.705,0.254,1.653,0.009,2.471c-1.049,3.509-2.097,7.018-3.146,10.528
	c-3.713-0.535-7.437-1.273-11.038-2.335c-2.753-0.812-4.911-2.605-7.786-3.087c-2.422-0.406-4.54,0.616-5.353,3.04
	c-1.802,5.371-6.948,13.173-5.303,19.057c0.684,2.448,3.602,4.098,5.325,5.885c2.84,2.946,5.67,5.904,8.504,8.856
	c0.924,0.962,1.921,2.16,1.644,3.465c-0.22,1.034-1.171,1.724-2.054,2.305c-4.609,3.033-9.331,5.893-14.154,8.572
	c-0.808,0.449-1.682,0.907-2.603,0.823c-1.563-0.142-2.555-1.75-2.995-3.257C137.454,393.16,136.547,389.633,135.143,386.153z
	 M146.911,406.94c2.775-1.564,5.351-3.594,7.148-4.925c5.178-3.835,12.761-6.901,15.834-12.914c2.314-4.528-0.585-6.059-3.935-8.886
	c-3.893-3.284-7.885-6.45-11.97-9.492c1.508-3.969,3.017-7.938,4.525-11.907c5.246,1.071,12.189,3.786,17.596,2.396
	c4.873-1.253,7.11-5.987,8.285-10.484c1.349-5.166,4.713-11.738,1.18-16.858c-3.557-5.156-13.673-3.521-18.982-3.726
	c-0.762-0.029-1.612-0.098-2.121-0.665c-0.437-0.487-0.487-1.197-0.516-1.851c-0.109-2.495-0.218-4.99-0.327-7.485
	c-0.028-0.64,18.728-2.626,20.661-2.814c0.936-0.091,1.96-0.223,2.601-0.911c0.816-0.876,0.663-2.249,0.442-3.426
	c-1.442-7.649-3.59-15.165-6.408-22.422c-0.399-1.027-0.917-2.156-1.95-2.538c-0.732-0.271-1.545-0.091-2.304,0.092
	c-5.911,1.421-11.894,2.335-17.808,3.805c-0.777,0.193-1.674,0.365-2.319-0.11c-0.36-0.266-0.565-0.686-0.758-1.09
	c-1.444-3.033-2.887-6.065-4.331-9.097c0.026,0.055,12.216-8.02,13.328-8.727c3.646-2.316,7.241-5.814,5.634-10.626
	c-1.656-4.958-6.806-8.484-11.031-11.101c-3.176-1.967-9.418-2.938-11.343-6.191c-0.616-1.04-0.765-2.284-0.874-3.488
	c-0.935-10.308-0.527-20.854-0.873-31.206c-0.385-11.476-0.507-23.274-2.838-34.562c27.003-0.35,54.105-1.342,81.007-3.482
	c15.808-1.258,28.525-6.504,31.816-23.436c1.608-8.273,1.703-19.693-2.019-27.522c-3.751-7.889-9.815-8.753-17.88-9.428
	c-30.544-2.555-62.434-0.07-93.372,1.548c2.011-17.906,1.682-36.044,2.163-54.04c0.249-9.319-0.191-19.194,1.141-28.416
	c1.35-9.347,8.312-8.274,16.862-9.316c40.671-4.955,82.425-7.406,123.383-8.292c20.02-0.434,40.048-0.115,60.059,0.57
	c9.982,0.343,19.96,0.779,29.936,1.267c8.858,0.432,21.859-1.187,30.311,1.614c5.062,1.678,2.543-0.837,4.62,5.762
	c1.187,3.774,0.689,8.749,0.883,12.644c0.465,9.311,0.575,18.637,1.265,27.937c0.819,11.028,2.446,21.995,3.086,33.036
	c0.482,8.317-0.374,16.426,1.093,24.629c-3.58-0.045-7.138-0.101-10.64-0.205c-15.483-0.46-43.335-5.606-54.785,8.485
	c-5.538,6.816-6.38,16.635-6.775,25.032c-0.659,13.992-0.638,28.099-0.285,42.096c0.368,14.548,0.173,28.886-0.181,43.417
	c-0.209,8.558-0.539,20.458,5.694,27.378c5.576,6.191,14.819,6.092,22.445,6.826c11.713,1.126,23.491,1.715,35.221,2.697
	c-1.79-0.15,3.443,38.659-1.633,41.637c-1.1,0.645-2.428,0.731-3.701,0.794c-16.266,0.798-40.155-5.435-53.812,6.186
	c-11.49,9.777-6.131,33.008-6.222,45.776c-0.078,10.865-0.122,21.815-0.624,32.668c-0.263,5.714-1.697,12.511,2.323,17.338
	c6.665,8.004,24.312,5.572,33.525,6.499c9.749,0.981,20.016,2.129,30.303,2.712c-0.633,3.721-0.783,7.518-0.715,11.341
	c-6.416-0.356-12.621,0.677-19.208,1.11c-12.463,0.819-25.136,0.337-37.623,0.556c-24.398,0.427-48.77,0.719-73.171,0.381
	c-23.817-0.329-47.631-0.854-71.45-1.003c-18.499-0.116-38.451-3.045-57.077-1.024C148.953,429.95,148.374,418.427,146.911,406.94z
	 M405.583,490.206c-5.72,2.849-17.064,1.417-23.573,1.957c-37.788,3.138-75.671,2.765-113.559,2.8
	c-17.679,0.016-35.378-0.161-53.031,0.916c-17.24,1.053-34.862,3.093-52.091,0.891c-9.932-1.269-10.823-5.129-11.685-14.544
	c-0.83-9.06-1.305-18.122-1.686-27.211c-0.11-2.623-0.209-5.242-0.309-7.863c41.861,1.857,83.605,3.203,125.549,3.991
	c23.426,0.44,46.826,0.375,70.252,0.067c11.334-0.149,22.67-0.184,34.005-0.287c9.365-0.085,19.559-2.3,28.928-1.154
	c0.507,6.047,1.266,12.099,1.503,17.991C410.16,474.583,412.448,486.788,405.583,490.206z M447.56,338.86
	c1.491,6.453,0.762,15.034,1.102,21.698c0.756,14.854,3.218,35.743-1.779,50.028c-5.805,16.597-41.464,9.69-55.265,8.607
	c-7.902-0.62-15.778-1.719-23.685-2.212c-9.236-0.577-14.798,0.607-16.356-10.521c-2.344-16.755,0.627-35.408-0.018-52.429
	c-0.142-3.741-0.884-8.267-0.011-11.977c3.065-13.021,8.501-13.185,18.685-14.403c7.905-0.946,15.823-0.65,23.755-0.515
	c2.622,0.045,5.247,0.014,7.873-0.047c5.739,0.235,11.488,0.493,17.275,0.623C429.887,327.954,444.709,326.518,447.56,338.86z
	 M492.105,254.219c-8.642,17.818-33.21,14.767-49.637,13.475c-19.641-1.544-39.307-1.162-58.955-2.535
	c-4.9-0.343-11.997,0.184-16.583-1.51c-9.956-3.679-12.251-10.273-12.516-19.579c-0.277-9.692,0.733-19.401,0.541-29.112
	c-0.414-20.902-1.606-42.016-0.062-62.902c1.08-14.606,7.129-20.75,18.852-22.415c20.379,2.805,41.688,1.585,62.188,2.368
	c10.747,0.411,21.484,1.005,32.23,1.444c5.774,0.235,11.835-0.057,17.536,0.878c6.888,1.131,7.356,2.619,8.444,9.307
	c3.377,20.762-0.077,42.248,1.236,63.174C496.327,221.937,498.967,240.074,492.105,254.219z"/>
<path d="M408.628,379.786c7.137-10.142,8.776-24.745,1.225-34.862c-15.37-20.594-42.9-2.092-46.371,17.983
	c-3.843,22.231,22.96,37.204,39.552,24.139c4.848,6.713,10.258,12.74,17.273,17.462c5.012,3.373,9.732-4.756,4.729-8.091
	C418.349,391.959,413.468,386.008,408.628,379.786z M395.197,381.367c-10.924,5.928-22.45-1.776-23.568-13.431
	c-0.242-2.522-0.046-4.949,0.487-7.263c0.005-0.016,0.009-0.033,0.014-0.048c3.817-11.592,20.146-23.251,30.468-11.37
	C410.545,358.4,405.172,375.953,395.197,381.367z"/>
<path d="M272.899,458.277c-5.627,2.503-10.531,7.199-12.323,13.208c-5.128,17.192,16.841,23.486,28.369,15.038
	c7.495-5.494,11.821-16.765,5.692-24.905C289.589,454.916,279.9,455.164,272.899,458.277z M278.275,482.856
	c-4.234,0.868-8.365-0.584-10.246-4.696c-0.71-1.554-0.828-3.229-0.525-4.886c1.328-3.494,3.991-6.38,7.78-8.061
	c4.104-1.819,11.375-2.823,13.736,2.179C292.357,474.46,284.558,481.566,278.275,482.856z"/>
<path d="M227.798,76.284c-0.164-12.286-0.643-24.568-1.436-36.829c-0.109-1.692-0.296-3.547-1.508-4.733
	c-1.309-1.28-3.347-1.338-5.178-1.317c-8.464,0.098-16.877,0.496-25.28,0.717c-7.622,0.2-15.244,0.4-22.867,0.6
	c-1.696,0.044-3.468,0.109-4.95,0.935c-1.972,1.1-3.048,3.386-3.271,5.633c-0.27,2.722,0.238,5.301-0.072,8.021
	c-0.343,3.013-0.107,6.08-0.267,9.106c-0.66,12.488,1.608,24.936,0.752,37.329c-0.069,1.005-0.16,2.027,0.051,3.012
	c0.896,4.185,8.345,2.37,11.382,2.29c15.37-0.409,30.736-1.132,46.104-1.636c1.764-0.044,3.698-0.154,4.99-1.356
	c1.441-1.341,1.565-3.542,1.583-5.51C227.882,87.125,227.87,81.704,227.798,76.284z M221.404,88.794
	c-0.19,0.442-0.434,0.861-0.743,1.249c-1.651,2.076-4.604,2.542-7.256,2.496c-4.035-0.07-7.777,0.62-11.763,0.64
	c-9.433,0.046-18.896,0.907-28.363,0.12c-1.271-6.862-1.219-13.446-0.997-20.326c0.332-10.28-0.321-20.522-0.252-30.764
	c0.036-0.69,16.267-1.349,17.392-1.417c4.566-0.274,9.135-0.51,13.707-0.636c3.709-0.102,9.816-1.581,12.397,1.685
	c1.565,1.98,1.924,4.626,2.226,7.132c1.34,11.104,2.681,22.208,4.021,33.312C222.036,84.46,222.242,86.847,221.404,88.794z"/>
<path d="M305.798,76.284c-0.164-12.286-0.643-24.568-1.436-36.829c-0.109-1.692-0.296-3.547-1.508-4.733
	c-1.309-1.28-3.347-1.338-5.177-1.317c-8.464,0.098-16.877,0.496-25.28,0.717c-7.622,0.2-15.245,0.4-22.867,0.6
	c-1.696,0.044-3.468,0.109-4.95,0.935c-1.972,1.1-3.048,3.386-3.271,5.633c-0.27,2.722,0.238,5.301-0.072,8.021
	c-0.343,3.013-0.107,6.08-0.267,9.106c-0.66,12.488,1.608,24.936,0.752,37.329c-0.069,1.005-0.16,2.027,0.051,3.012
	c0.896,4.185,8.345,2.37,11.382,2.29c15.37-0.409,30.736-1.132,46.104-1.636c1.764-0.044,3.698-0.154,4.99-1.356
	c1.441-1.341,1.565-3.542,1.583-5.51C305.882,87.125,305.87,81.704,305.798,76.284z M299.404,88.794
	c-0.19,0.442-0.434,0.861-0.743,1.249c-1.651,2.076-4.604,2.542-7.256,2.496c-4.035-0.07-7.777,0.62-11.763,0.64
	c-9.433,0.046-18.896,0.907-28.363,0.12c-1.271-6.862-1.219-13.446-0.997-20.326c0.332-10.28-0.321-20.522-0.252-30.764
	c0.036-0.69,16.267-1.349,17.392-1.417c4.565-0.274,9.135-0.51,13.707-0.636c3.709-0.102,9.816-1.581,12.397,1.685
	c1.565,1.98,1.924,4.626,2.226,7.132c1.34,11.104,2.681,22.208,4.021,33.312C300.036,84.46,300.242,86.847,299.404,88.794z"/>
<path d="M383.798,76.284c-0.164-12.286-0.643-24.568-1.436-36.829c-0.109-1.692-0.296-3.547-1.508-4.733
	c-1.309-1.28-3.347-1.338-5.177-1.317c-8.464,0.098-16.877,0.496-25.28,0.717c-7.622,0.2-15.245,0.4-22.867,0.6
	c-1.696,0.044-3.468,0.109-4.95,0.935c-1.972,1.1-3.048,3.386-3.271,5.633c-0.27,2.722,0.238,5.301-0.072,8.021
	c-0.343,3.013-0.107,6.08-0.267,9.106c-0.66,12.488,1.608,24.936,0.752,37.329c-0.069,1.005-0.16,2.027,0.051,3.012
	c0.896,4.185,8.345,2.37,11.382,2.29c15.37-0.409,30.736-1.132,46.104-1.636c1.764-0.044,3.698-0.154,4.99-1.356
	c1.441-1.341,1.565-3.542,1.583-5.51C383.882,87.125,383.87,81.704,383.798,76.284z M377.404,88.794
	c-0.19,0.442-0.434,0.861-0.743,1.249c-1.651,2.076-4.604,2.542-7.256,2.496c-4.035-0.07-7.777,0.62-11.763,0.64
	c-9.433,0.046-18.896,0.907-28.363,0.12c-1.271-6.862-1.219-13.446-0.997-20.326c0.332-10.28-0.321-20.522-0.252-30.764
	c0.036-0.69,16.267-1.349,17.392-1.417c4.565-0.274,9.135-0.51,13.707-0.636c3.709-0.102,9.816-1.581,12.397,1.685
	c1.565,1.98,1.924,4.626,2.226,7.132c1.34,11.104,2.681,22.208,4.021,33.312C378.036,84.46,378.242,86.847,377.404,88.794z"/>
<path d="M242.798,237.784c-0.164-12.286-0.643-24.568-1.436-36.829c-0.109-1.692-0.296-3.547-1.508-4.733
	c-1.309-1.28-3.347-1.338-5.178-1.317c-8.464,0.098-16.877,0.496-25.28,0.717c-7.622,0.2-15.244,0.4-22.867,0.6
	c-1.696,0.045-3.468,0.109-4.95,0.935c-1.972,1.1-3.048,3.386-3.271,5.633c-0.27,2.722,0.238,5.301-0.072,8.021
	c-0.343,3.013-0.107,6.08-0.267,9.106c-0.66,12.488,1.608,24.936,0.752,37.329c-0.069,1.005-0.16,2.027,0.051,3.012
	c0.896,4.185,8.345,2.371,11.382,2.29c15.37-0.409,30.736-1.132,46.104-1.636c1.764-0.044,3.698-0.154,4.99-1.356
	c1.441-1.341,1.565-3.542,1.583-5.51C242.882,248.625,242.87,243.204,242.798,237.784z M236.404,250.294
	c-0.19,0.442-0.434,0.861-0.743,1.249c-1.651,2.076-4.604,2.542-7.256,2.496c-4.035-0.07-7.777,0.62-11.763,0.64
	c-9.433,0.046-18.896,0.907-28.363,0.12c-1.271-6.862-1.219-13.445-0.997-20.326c0.332-10.28-0.321-20.521-0.252-30.764
	c0.036-0.69,16.267-1.349,17.392-1.417c4.566-0.274,9.135-0.51,13.707-0.636c3.709-0.102,9.816-1.581,12.397,1.685
	c1.565,1.98,1.924,4.626,2.226,7.132c1.34,11.104,2.681,22.208,4.021,33.312C237.036,245.96,237.242,248.347,236.404,250.294z"/>
<path d="M321.298,237.784c-0.164-12.286-0.643-24.568-1.436-36.829c-0.109-1.692-0.296-3.547-1.508-4.733
	c-1.309-1.28-3.347-1.338-5.177-1.317c-8.464,0.098-16.877,0.496-25.28,0.717c-7.622,0.2-15.245,0.4-22.867,0.6
	c-1.696,0.045-3.468,0.109-4.95,0.935c-1.972,1.1-3.048,3.386-3.271,5.633c-0.27,2.722,0.238,5.301-0.072,8.021
	c-0.343,3.013-0.107,6.08-0.267,9.106c-0.66,12.488,1.608,24.936,0.752,37.329c-0.069,1.005-0.16,2.027,0.051,3.012
	c0.896,4.185,8.345,2.371,11.382,2.29c15.37-0.409,30.736-1.132,46.104-1.636c1.764-0.044,3.698-0.154,4.99-1.356
	c1.441-1.341,1.565-3.542,1.583-5.51C321.382,248.625,321.37,243.204,321.298,237.784z M314.904,250.294
	c-0.19,0.442-0.434,0.861-0.743,1.249c-1.651,2.076-4.604,2.542-7.256,2.496c-4.035-0.07-7.777,0.62-11.763,0.64
	c-9.433,0.046-18.896,0.907-28.363,0.12c-1.271-6.862-1.219-13.445-0.997-20.326c0.332-10.28-0.321-20.521-0.252-30.764
	c0.036-0.69,16.267-1.349,17.392-1.417c4.565-0.274,9.135-0.51,13.707-0.636c3.709-0.102,9.816-1.581,12.397,1.685
	c1.565,1.98,1.924,4.626,2.226,7.132c1.34,11.104,2.681,22.208,4.021,33.312C315.536,245.96,315.742,248.347,314.904,250.294z"/>
<path d="M321.798,319.284c-0.164-12.286-0.643-24.568-1.436-36.829c-0.109-1.692-0.296-3.547-1.508-4.733
	c-1.309-1.28-3.347-1.338-5.177-1.317c-8.464,0.099-16.877,0.496-25.28,0.717c-7.622,0.2-15.245,0.4-22.867,0.6
	c-1.696,0.044-3.468,0.109-4.95,0.935c-1.972,1.1-3.048,3.386-3.271,5.633c-0.27,2.722,0.238,5.301-0.072,8.021
	c-0.343,3.013-0.107,6.08-0.267,9.106c-0.66,12.488,1.608,24.936,0.752,37.329c-0.069,1.005-0.16,2.027,0.051,3.012
	c0.896,4.185,8.345,2.371,11.382,2.29c15.37-0.409,30.736-1.132,46.104-1.636c1.764-0.044,3.698-0.154,4.99-1.356
	c1.441-1.341,1.565-3.542,1.583-5.51C321.882,330.125,321.87,324.704,321.798,319.284z M315.404,331.794
	c-0.19,0.442-0.434,0.861-0.743,1.249c-1.651,2.076-4.604,2.542-7.256,2.496c-4.035-0.07-7.777,0.62-11.763,0.64
	c-9.433,0.046-18.896,0.907-28.363,0.12c-1.271-6.862-1.219-13.445-0.997-20.326c0.332-10.28-0.321-20.521-0.252-30.764
	c0.036-0.69,16.267-1.349,17.392-1.417c4.565-0.274,9.135-0.51,13.707-0.636c3.709-0.102,9.816-1.581,12.397,1.685
	c1.565,1.98,1.924,4.626,2.226,7.132c1.34,11.104,2.681,22.208,4.021,33.312C316.036,327.46,316.242,329.847,315.404,331.794z"/>
<path d="M321.798,399.784c-0.164-12.286-0.643-24.568-1.436-36.829c-0.109-1.692-0.296-3.547-1.508-4.733
	c-1.309-1.28-3.347-1.338-5.177-1.317c-8.464,0.099-16.877,0.496-25.28,0.717c-7.622,0.2-15.245,0.4-22.867,0.6
	c-1.696,0.044-3.468,0.109-4.95,0.935c-1.972,1.1-3.048,3.386-3.271,5.633c-0.27,2.722,0.238,5.301-0.072,8.021
	c-0.343,3.013-0.107,6.08-0.267,9.106c-0.66,12.488,1.608,24.936,0.752,37.329c-0.069,1.005-0.16,2.027,0.051,3.012
	c0.896,4.185,8.345,2.371,11.382,2.29c15.37-0.409,30.736-1.132,46.104-1.636c1.764-0.044,3.698-0.154,4.99-1.356
	c1.441-1.341,1.565-3.542,1.583-5.51C321.882,410.625,321.87,405.204,321.798,399.784z M315.404,412.294
	c-0.19,0.442-0.434,0.861-0.743,1.249c-1.651,2.076-4.604,2.542-7.256,2.496c-4.035-0.07-7.777,0.62-11.763,0.64
	c-9.433,0.046-18.896,0.907-28.363,0.12c-1.271-6.862-1.219-13.445-0.997-20.326c0.332-10.28-0.321-20.521-0.252-30.764
	c0.036-0.69,16.267-1.349,17.392-1.417c4.565-0.274,9.135-0.51,13.707-0.636c3.709-0.102,9.816-1.581,12.397,1.685
	c1.565,1.98,1.924,4.626,2.226,7.132c1.34,11.104,2.681,22.208,4.021,33.312C316.036,407.96,316.242,410.347,315.404,412.294z"/>
<g>
</g>
<g>
</g>
<g>
</g>
<g>
</g>
<g>
</g>
<g>
</g>
<g>
</g>
<g>
</g>
<g>
</g>
<g>
</g>
<g>
</g>
<g>
</g>
<g>
</g>
<g>
</g>
<g>
</g>
</svg>
