<svg height="512" viewBox="0 0 512 512" width="512" xmlns="http://www.w3.org/2000/svg"><g id="Fill_out_line" data-name="Fill out line"><path d="m24 336h64a0 0 0 0 1 0 0v88a16 16 0 0 1 -16 16h-24a24 24 0 0 1 -24-24v-80a0 0 0 0 1 0 0z" fill="#379ec3"/><path d="m464 392h-416a24 24 0 0 0 -24 24v-320a24 24 0 0 1 24-24h440v296a24 24 0 0 1 -24 24z" fill="#8acce7"/><path d="m464 344h-24a16 16 0 0 1 -16-16v-288a16 16 0 0 1 16-16h24a24 24 0 0 1 24 24v320a24 24 0 0 0 -24-24z" fill="#379ec3"/><path d="m176 208h-17.37l12.28315-12.2831a8 8 0 0 0 0-11.31371l-11.31628-11.31634a8 8 0 0 0 -11.31376 0l-12.28311 12.28327v-17.37012a8 8 0 0 0 -8-8h-16a8 8 0 0 0 -8 8v17.37012l-12.28313-12.28326a8 8 0 0 0 -11.31376 0l-11.31628 11.31633a8 8 0 0 0 0 11.31371l12.28317 12.2831h-17.37a8 8 0 0 0 -8 8v16a8 8 0 0 0 8 8h17.37l-12.28315 12.2831a8 8 0 0 0 0 11.31371l11.31628 11.31634a8 8 0 0 0 11.31376 0l12.28311-12.28327v17.37012a8 8 0 0 0 8 8h16a8 8 0 0 0 8-8v-17.37012l12.28313 12.28326a8 8 0 0 0 11.31376 0l11.31628-11.31634a8 8 0 0 0 0-11.31371l-12.28317-12.28309h17.37a8 8 0 0 0 8-8v-16a8 8 0 0 0 -8-8zm-56 32a16 16 0 1 1 16-16 15.99568 15.99568 0 0 1 -16 16z" fill="#395166"/><path d="m384 352-12.67993 12.68994-35.32007 35.31006h-9.35986a54.64465 54.64465 0 0 1 -54.65014-54.74l.01-9.26-16-16a33.93247 33.93247 0 0 1 -1.99-45.82 31.12021 31.12021 0 0 1 -14.01-34.18l112 16z" fill="#f4ceaf"/><path d="m492 460-108-108-52.68629 52.68629a16 16 0 0 0 0 22.62742l84.68629 84.68629z" fill="#396795"/><path d="m395.77 320.90991a16.46527 16.46527 0 0 1 -19.05 12.18009l-15.27-2.91-24.80981-4.73-8.69019-1.66-24.8999-4.74-79.0501-15.05-24-24 32-8 29.6499 5.65 27.9502 5.32 55.04 10.49 24.8099 4.72 13.42993 2.56a16.46337 16.46337 0 0 1 12.89007 20.16991z" fill="#ad7d4d"/><path d="m369.45 298.18-8 32-24.81-4.73 8-31.99z" fill="#eedc9a"/><path d="m395.77 320.90991a16.46527 16.46527 0 0 1 -19.05 12.18009l-15.27-2.91 8-31.99994 13.42993 2.56a16.46337 16.46337 0 0 1 12.89007 20.16985z" fill="#c4d4e0"/><path d="m360 376-24 24h-9.35986a54.64465 54.64465 0 0 1 -54.65014-54.74l.01-9.26-16-16a33.944 33.944 0 0 1 0-48l5.6499 5.65 50.3501 50.35v16a8 8 0 0 0 16 0z" fill="#f4ceaf"/><path d="m224.96 303.46-.96.54-24-24 32-8a21.63224 21.63224 0 0 1 -7.04 31.46z" fill="#d29979"/><path d="m388.37433 339.82471a24.46373 24.46373 0 0 0 -3.9964-46.94287l-12.44122-2.37012-12.34735-37.042a8.00109 8.00109 0 0 0 -6.458-5.38965l-112-16a7.99712 7.99712 0 0 0 -8.88867 5.96484 38.86279 38.86279 0 0 0 2.66034 26.3645l-1.40546-.26782a8.00753 8.00753 0 0 0 -3.438.09766l-32 8a7.99954 7.99954 0 0 0 -3.71631 13.418l24 24a7.99953 7.99953 0 0 0 4.15918 2.20117l20.4812 3.90234a42.07593 42.07593 0 0 0 7.35913 9.89453l13.65186 13.65332-.00928 5.94043a62.65506 62.65506 0 0 0 56.16358 62.415 24.0136 24.0136 0 0 0 5.50781 25.30664l60.68652 60.68653 11.31348-11.31446-60.68653-60.68652a7.99945 7.99945 0 0 1 0-11.3125l47.02979-47.03025 98.34326 98.34375 11.31348-11.31446-102.66455-102.66455zm-81.3985-28.16284-21.28937-21.28931 15.2558 2.90552 16.06018 3.06079.00037-.002 17.81823 3.39356-4.11291 16.45166zm43.58826-8.93287 9.07519 1.72852-4.113 16.4519-9.0752-1.72851zm36.368 9.62842a8.46641 8.46641 0 0 1 -7.12207 13.02246 8.48857 8.48857 0 0 1 -1.124-.07519c-.11377-.0127-.23145-.02539-.34522-.04883-.041-.00879-.08252-.0166-.12353-.02441l-6.94794-1.32349 4.113-16.45215 6.00042 1.14282a8.38621 8.38621 0 0 1 5.54938 3.75879zm-40.958-49.13672 7.95343 23.86035-88.04278-16.77246-.00123-.00024c-.10729-.02026-.22308-.04907-.33276-.07153l-3.894-3.89405a7.98933 7.98933 0 0 0 -7.5044-2.11767 23.31288 23.31288 0 0 1 -7.042-15.12842zm-118.05809 33.38184-12.268-12.26854 16.584-4.1455 8.29346 1.58032a41.97126 41.97126 0 0 0 -2.46631 14.23022c0 .85547.03412 1.70533.0846 2.55225zm104.77 95.39746h-6.04786a46.6513 46.6513 0 0 1 -46.65283-46.72559l.01469-9.26171a7.99948 7.99948 0 0 0 -2.34277-5.66895l-16.00049-16.002a25.984 25.984 0 0 1 -4.77246-30.14356l47.11572 47.11529v28.68652h16v-29.57031l51.657 9.8396 3.18994 9.56982z"/><circle cx="360" cy="416" r="8"/><path d="m32 388.29492v-292.29492a16.01833 16.01833 0 0 1 16-16h352v-16h-352a32.03635 32.03635 0 0 0 -32 32v320a32.03635 32.03635 0 0 0 32 32h24a24.0275 24.0275 0 0 0 24-24v-8h-16v8a8.00917 8.00917 0 0 1 -8 8h-24a16 16 0 0 1 0-32h216v-16h-216a31.80424 31.80424 0 0 0 -16 4.29492z"/><path d="m464 16h-24a24.0275 24.0275 0 0 0 -24 24v288a24.0275 24.0275 0 0 0 24 24h24a16 16 0 0 1 0 32v16a32.03635 32.03635 0 0 0 32-32v-320a32.03635 32.03635 0 0 0 -32-32zm0 320h-24a8.00917 8.00917 0 0 1 -8-8v-288a8.00917 8.00917 0 0 1 8-8h24a16.01833 16.01833 0 0 1 16 16v292.29492a31.80424 31.80424 0 0 0 -16-4.29492z"/><path d="m120 200a24 24 0 1 0 24 24 24.02718 24.02718 0 0 0 -24-24zm0 32a8 8 0 1 1 8-8 8.00917 8.00917 0 0 1 -8 8z"/><path d="m192 240v-32a8.00008 8.00008 0 0 0 -8-8h-6.05615l4.28271-4.28223a7.99958 7.99958 0 0 0 0-11.31347l-22.62939-22.63086a8 8 0 0 0 -11.314-.001l-4.28317 4.28322v-6.05566a8.00008 8.00008 0 0 0 -8-8h-32a8.00008 8.00008 0 0 0 -8 8v6.05566l-4.2832-4.2832a8 8 0 0 0 -11.314.001l-22.62936 22.63084a7.99958 7.99958 0 0 0 0 11.31347l4.28271 4.28223h-6.05615a8.00008 8.00008 0 0 0 -8 8v32a8.00008 8.00008 0 0 0 8 8h6.05615l-4.28271 4.28223a7.99958 7.99958 0 0 0 0 11.31347l22.62939 22.63086a8 8 0 0 0 11.314.001l4.28317-4.28322v6.05566a8.00008 8.00008 0 0 0 8 8h32a8.00008 8.00008 0 0 0 8-8v-6.05566l4.2832 4.2832a8 8 0 0 0 11.314-.001l22.62939-22.63086a7.99958 7.99958 0 0 0 0-11.31347l-4.28274-4.28221h6.05615a8.00008 8.00008 0 0 0 8-8zm-16-8h-17.37012a8.0001 8.0001 0 0 0 -5.65674 13.65723l12.28321 12.28222-11.31641 11.31739-12.2832-12.28418a8.00037 8.00037 0 0 0 -13.65674 5.65722v17.37012h-16v-17.37012a8.00037 8.00037 0 0 0 -13.65674-5.65722l-12.2832 12.28418-11.31641-11.31739 12.28321-12.28222a8.0001 8.0001 0 0 0 -5.65674-13.65723h-17.37012v-16h17.37012a8.0001 8.0001 0 0 0 5.65674-13.65723l-12.28321-12.28222 11.31641-11.31739 12.2832 12.28418a8.00037 8.00037 0 0 0 13.65674-5.65722v-17.37012h16v17.37012a8.00037 8.00037 0 0 0 13.65674 5.65722l12.2832-12.28418 11.31641 11.31739-12.28321 12.28222a8.0001 8.0001 0 0 0 5.65674 13.65723h17.37012z"/><path d="m226.34326 146.34277-32 32 11.31348 11.31446 29.65674-29.65723h92.68652v-16h-96a8.00035 8.00035 0 0 0 -5.65674 2.34277z"/><path d="m232 96h32v16h-32z"/><path d="m280 96h48v16h-48z"/><path d="m232 120h48v16h-48z"/><path d="m296 120h16v16h-16z"/><path d="m117.65674 306.34277-11.31348 11.31446 48 48a8.00035 8.00035 0 0 0 5.65674 2.34277h72v-16h-68.68652z"/><path d="m168 328h32v16h-32z"/><path d="m216 328h16v16h-16z"/><path d="m168 304h16v16h-16z"/></g></svg>