<svg id="Layer_3" height="512" viewBox="0 0 64 64" width="512" xmlns="http://www.w3.org/2000/svg" data-name="Layer 3"><path d="m46 19h-2v-11a5.006 5.006 0 0 0 -5-5h-14a5.006 5.006 0 0 0 -5 5v11h-2v-11a7.008 7.008 0 0 1 7-7h14a7.008 7.008 0 0 1 7 7z" fill="#78a0d4"/><path d="m37 12v3a2 2 0 0 0 2 2h2v6a9 9 0 0 1 -9 9 9 9 0 0 1 -9-9v-6h2a2 2 0 0 0 2-2v-3h6l1 1z" fill="#fbe1ca"/><path d="m41 17v-8a3 3 0 0 0 -3-3h-12a3 3 0 0 0 -3 3v8h2a2 2 0 0 0 2-2v-3h6l1 1 3-1v3a2 2 0 0 0 2 2z" fill="#c18e59"/><path d="m32 29h-10a3 3 0 0 1 -3-3v-3h2v3a1 1 0 0 0 1 1h10z" fill="#b5b5b5"/><path d="m40.945 24h2.555a3.5 3.5 0 0 0 3.5-3.5 3.5 3.5 0 0 0 -3.5-3.5h-2.5v6a9.168 9.168 0 0 1 -.055 1z" fill="#4c6cb5"/><path d="m23 24h-2.555a3.5 3.5 0 0 1 -3.5-3.5 3.5 3.5 0 0 1 3.5-3.5h2.5v6a9.168 9.168 0 0 0 .055 1z" fill="#4c6cb5"/><path d="m37 35h6a12 12 0 0 1 12 12v15h-46v-15a12 12 0 0 1 12-12h6" fill="#213d68"/><path d="m37.143 41.857-5.143 5.143-5.143-5.143 5.143-3.857z" fill="#5e87ca"/><path d="m32 38 8 6v-9h-3l-1.586 1.586a4.828 4.828 0 0 1 -3.414 1.414z" fill="#4c6cb5"/><path d="m32 38-8 6v-9h3l1.586 1.586a4.828 4.828 0 0 0 3.414 1.414z" fill="#4c6cb5"/><path d="m37 30.484a8.953 8.953 0 0 1 -5 1.516 8.953 8.953 0 0 1 -5-1.516v4.516l1.586 1.586a4.828 4.828 0 0 0 3.414 1.414 4.828 4.828 0 0 0 3.414-1.414l1.586-1.586z" fill="#f2b9a1"/><path d="m43 34h-5v-3.019a10 10 0 0 0 3.8-5.981h1.7a4.5 4.5 0 0 0 2.5-8.238v-8.762a7.008 7.008 0 0 0 -7-7h-14a7.008 7.008 0 0 0 -7 7v8.762a4.482 4.482 0 0 0 1 7.962v1.276a3 3 0 0 0 3 3h2.019a10.049 10.049 0 0 0 1.981 1.981v3.019h-5a13.015 13.015 0 0 0 -13 13v15a1 1 0 0 0 1 1h46a1 1 0 0 0 1-1v-15a13.015 13.015 0 0 0 -13-13zm-18 2h1.586l1.293 1.293a5.808 5.808 0 0 0 1.779 1.214l-4.658 3.493zm7 3.25 3.621 2.715-3.621 3.621-3.621-3.621zm2.342-.743a5.808 5.808 0 0 0 1.779-1.214l1.293-1.293h1.586v6zm3.242-27.319a.991.991 0 0 0 -.9-.136l-2.414.8-.563-.562a1 1 0 0 0 -.707-.29h-6a1 1 0 0 0 -1 1v3a1 1 0 0 1 -1 1h-1v-7a2 2 0 0 1 2-2h12a2 2 0 0 1 2 2v7h-1a1 1 0 0 1 -1-1v-3a1 1 0 0 0 -.416-.812zm5.916 11.812h-1.5v-5h1.5a2.5 2.5 0 0 1 0 5zm-23.5-15a5.006 5.006 0 0 1 5-5h14a5.006 5.006 0 0 1 5 5v8.051a4.342 4.342 0 0 0 -.5-.051h-1.5v-7a4 4 0 0 0 -4-4h-12a4 4 0 0 0 -4 4v7h-1.5a4.342 4.342 0 0 0 -.5.051zm-2 12.5a2.5 2.5 0 0 1 2.5-2.5h1.5v5h-1.5a2.5 2.5 0 0 1 -2.5-2.5zm4 6.5a1 1 0 0 1 -1-1v-1h1.2a9.843 9.843 0 0 0 .639 2zm3.082 0a7.94 7.94 0 0 1 -1.082-4v-5h1a3 3 0 0 0 3-3v-2h4.586l.707.707a1 1 0 0 0 1.023.241l1.684-.56v1.612a3 3 0 0 0 3 3h1v5a7.987 7.987 0 0 1 -13.274 6h5.274v-2zm6.918 6a9.929 9.929 0 0 0 4-.841v2.427l-1.293 1.293a3.923 3.923 0 0 1 -5.414 0l-1.293-1.293v-2.427a9.929 9.929 0 0 0 4 .841zm22 28h-44v-14a11.013 11.013 0 0 1 11-11h2v8a1 1 0 0 0 1.6.8l2.163-1.623 4.53 4.53a1 1 0 0 0 1.414 0l4.53-4.53 2.163 1.623a1 1 0 0 0 .6.2 1 1 0 0 0 1-1v-8h2a11.013 11.013 0 0 1 11 11z"/></svg>