<svg id="Layer_35" enable-background="new 0 0 64 64" height="512" viewBox="0 0 64 64" width="512" xmlns="http://www.w3.org/2000/svg"><path d="m8 56.82-3 5.18h57v-43z" fill="#cf9e76"/><path d="m45 8c6.08 0 11 4.92 11 11s-4.92 11-11 11-11-4.92-11-11 4.92-11 11-11zm5 11c0-2.76-2.24-5-5-5s-5 2.24-5 5 2.24 5 5 5 5-2.24 5-5z" fill="#fcd770"/><path d="m41.42 33.56v-.01c-1.49-.36-2.9-.95-4.18-1.73l-2.14 1.32-4.24-4.24 1.32-2.14c-.78-1.28-1.37-2.69-1.73-4.18l-.19-.05c.48-.49.74-1.15.74-1.84 0-1.49-1.2-2.69-2.69-2.69h-.31v-2l2.45-.58c.36-1.49.95-2.9 1.73-4.18l-1.32-2.14 4.24-4.24 2.14 1.32c1.28-.78 2.69-1.37 4.18-1.73l.58-2.45h6l.58 2.45c1.49.36 2.9.95 4.18 1.73l2.14-1.32 4.24 4.24-1.32 2.14c.78 1.28 1.37 2.69 1.73 4.18l2.45.58v5 1l-2.45.58c-.36 1.49-.95 2.9-1.73 4.18l1.32 2.14-4.24 4.24-2.14-1.32c-1.28.78-2.69 1.37-4.18 1.73l-.58 2.45h-6zm14.58-14.56c0-6.08-4.92-11-11-11s-11 4.92-11 11 4.92 11 11 11 11-4.92 11-11z" fill="#ffc729"/><path d="m8 56.82v2.18c0 .83-.34 1.58-.88 2.12s-1.29.88-2.12.88c-1.66 0-3-1.34-3-3v-19c0 2.21 1.79 4 4 4h2z" fill="#838f9b"/><path d="m20 48.47v2.53c0 1.66-1.34 3-3 3-.83 0-1.58-.34-2.12-.88-.21-.21-.39-.46-.54-.73-.22-.41-.34-.89-.34-1.39v-6c0-.55-.45-1-1-1h-5-2c-2.21 0-4-1.79-4-4v-2h11 3c2.21 0 4 1.79 4 4z" fill="#838f9b"/><path d="m31 20.69c0 .69-.26 1.35-.74 1.84-.09.1-.19.19-.3.28l-6.34 4.93c-1.05.82-2.34 1.26-3.68 1.26h-6.94v9h-11v-6c0-4.42 3.58-8 8-8h1 7.33c.44 0 .86-.14 1.2-.4l6.75-5.06c.47-.35 1.03-.54 1.62-.54h.1.31c1.49 0 2.69 1.2 2.69 2.69z" fill="#5cd6b3"/><circle cx="11" cy="18" fill="#f0d0b4" r="6"/><path d="m23.192 49.433h1.986v1.999h-1.986z" transform="matrix(.821 -.572 .572 .821 -24.483 22.869)"/><path d="m25.514 42.737h16.583v1.999h-16.583z" transform="matrix(.821 -.572 .572 .821 -18.931 27.166)"/><path d="m60.365 14.588c-.332-1.159-.795-2.275-1.381-3.332l1.426-2.303-5.363-5.363-2.303 1.426c-1.057-.586-2.173-1.049-3.332-1.381l-.62-2.635h-7.584l-.62 2.635c-1.159.332-2.275.795-3.332 1.381l-2.303-1.426-5.363 5.363 1.426 2.303c-.586 1.057-1.049 2.173-1.381 3.332l-2.635.62v1.916c-.473.119-.925.32-1.316.614l-6.751 5.062c-.172.129-.385.2-.6.2h-2.444c1.301-1.272 2.111-3.042 2.111-5 0-3.859-3.141-7-7-7s-7 3.141-7 7c0 2.288 1.108 4.316 2.811 5.594-3.391 1.291-5.811 4.567-5.811 8.406v8 19c0 2.206 1.794 4 4 4h58v-40.208-1.792-5.792zm-54.365 3.412c0-2.757 2.243-5 5-5s5 2.243 5 5-2.243 5-5 5-5-2.243-5-5zm4 7h8.333c.646 0 1.285-.214 1.8-.601l6.75-5.062c.291-.217.65-.337 1.013-.337h.418c.929 0 1.686.757 1.686 1.687 0 .524-.237 1.009-.651 1.331l-6.338 4.93c-.872.678-1.962 1.052-3.07 1.052h-7.941v9h-9v-5c0-3.859 3.141-7 7-7zm6 12h-2v-7h5.941c1.55 0 3.076-.523 4.298-1.475l5.633-4.381c.305.898.682 1.769 1.144 2.6l-1.426 2.303 5.363 5.363 2.303-1.426c.629.349 1.285.639 1.953.899l-18.209 12.675v-4.558c0-2.757-2.243-5-5-5zm-13 2h9 1 3c1.654 0 3 1.346 3 3v8.999c0 1.104-.897 2.001-2.001 2.001-.534 0-1.037-.208-1.415-.586-.377-.378-.585-.88-.585-1.414l.001-6c0-1.103-.897-2-2-2h-7c-1.654 0-3-1.346-3-3zm6 6h4l-.001 5.998v.001c0 .348.059.683.144 1.011l-4.143 2.895zm-6 14v-15.026c.838.635 1.87 1.026 3 1.026h1v14c0 1.103-.897 2-2 2s-2-.897-2-2zm58 2h-52.556c.344-.591.556-1.268.556-2v-1.655l5.12-3.578c.018.019.031.042.05.061.756.756 1.761 1.172 2.829 1.172 2.206 0 4.001-1.795 4.001-4.001v-2.005l19.789-13.774.419 1.78h7.584l.62-2.635c1.159-.332 2.275-.795 3.332-1.381l2.303 1.426 5.363-5.363-1.426-2.303c.586-1.057 1.049-2.173 1.381-3.332l.635-.149zm0-39.792-2.273.535-.146.596c-.336 1.376-.881 2.688-1.617 3.903l-.318.523 1.229 1.986-3.123 3.123-1.986-1.229-.523.318c-1.215.736-2.527 1.281-3.903 1.617l-.596.146-.536 2.274h-4.416l-.535-2.273-.596-.146c-1.376-.336-2.688-.881-3.903-1.617l-.523-.318-1.986 1.229-3.123-3.123 1.229-1.986-.318-.523c-.7-1.154-1.22-2.398-1.559-3.7.327-.557.522-1.187.522-1.856 0-1.798-1.295-3.294-3-3.617v-.277l2.273-.535.146-.596c.336-1.376.881-2.688 1.617-3.903l.318-.523-1.229-1.986 3.123-3.123 1.986 1.229.523-.318c1.215-.736 2.527-1.281 3.903-1.617l.596-.146.536-2.275h4.416l.535 2.273.596.146c1.376.336 2.688.881 3.903 1.617l.523.318 1.986-1.229 3.123 3.123-1.229 1.986.318.523c.736 1.215 1.281 2.527 1.617 3.903l.146.596 2.274.536v4.208z"/><path d="m45 7c-6.617 0-12 5.383-12 12s5.383 12 12 12 12-5.383 12-12-5.383-12-12-12zm0 22c-5.514 0-10-4.486-10-10s4.486-10 10-10 10 4.486 10 10-4.486 10-10 10z"/><path d="m45 13c-3.309 0-6 2.691-6 6s2.691 6 6 6 6-2.691 6-6-2.691-6-6-6zm0 10c-2.206 0-4-1.794-4-4s1.794-4 4-4 4 1.794 4 4-1.794 4-4 4z"/><path d="m57 57h2v2h-2z"/><path d="m57 53h2v2h-2z"/><path d="m57 49h2v2h-2z"/><path d="m11 57h2v2h-2z"/><path d="m15 57h2v2h-2z"/><path d="m19 57h2v2h-2z"/></svg>