<?xml version="1.0" encoding="iso-8859-1"?>
<!-- Generator: Adobe Illustrator 19.0.0, SVG Export Plug-In . SVG Version: 6.00 Build 0)  -->
<svg xmlns="http://www.w3.org/2000/svg" xmlns:xlink="http://www.w3.org/1999/xlink" version="1.1" id="Layer_1" x="0px" y="0px" viewBox="0 0 512 512" style="enable-background:new 0 0 512 512;" xml:space="preserve" width="512" height="512">
<g>
	<g>
		<path style="fill-rule:evenodd;clip-rule:evenodd;fill:#F46370;" d="M181.031,231.36l-53.806-40.967    c-8.212-6.28-20.159-4.738-26.546,3.426L18.533,299.078c-0.343,0.428-0.656,0.855-0.941,1.285c-4.077,6.281-3.935,14.273,0,20.297    c1.141,1.742,2.566,3.34,4.334,4.653l53.776,40.995c7.47,5.683,17.992,4.938,24.636-1.342c0.685-0.628,1.311-1.343,1.91-2.112    l82.176-105.257c0.37-0.458,0.712-0.941,1.026-1.457C190.582,248.09,188.786,237.27,181.031,231.36L181.031,231.36z"/>
	</g>
	<g>
		<path style="fill-rule:evenodd;clip-rule:evenodd;fill:#FFD4BE;" d="M405.573,353.52l-77.984-99.948    c-0.028,0-0.028-0.027-0.057-0.057c-26.346-3.37-48.843-3.996-70.713,10.22l-31.678,20.557    c-43.825,28.433-13.43,62.489,14.085,50.329l32.762-16.244l20.444,18.614l70.942,63.092    C390.632,378.526,393.796,375.387,405.573,353.52L405.573,353.52z"/>
	</g>
	<g>
		<path style="fill-rule:evenodd;clip-rule:evenodd;fill:#78D0A9;" d="M493.479,295.053l-82.174-105.258    c-6.359-8.166-18.306-9.707-26.547-3.454l-53.776,40.994c-8.211,6.253-9.751,18.014-3.45,26.18l0.057,0.057l77.984,99.948    l4.162,5.309c6.387,8.166,18.335,9.707,26.547,3.427l53.805-40.966C498.327,315.008,499.838,303.218,493.479,295.053    L493.479,295.053z"/>
	</g>
	<g>
		<path style="fill-rule:evenodd;clip-rule:evenodd;fill:#FFD4BE;" d="M236.66,471.194c15.169-13.646-5.218-38.939-25.12-21.21    l-0.343,0.284l-13.259,11.962c-14.427,14.047,6.273,38.143,25.35,20.984l3.963-3.568L236.66,471.194z"/>
	</g>
	<g>
		<path style="fill-rule:evenodd;clip-rule:evenodd;fill:#FFD4BE;" d="M178.578,381.953c16.651-15.045-5.874-43.279-27.372-24.209    l-34.045,30.261c-16.623,14.76,5.987,43.966,23.808,27.863l3.65-3.255c-0.058,0.029-0.086,0.059,0.114-0.113l0,0l27.828-25.123    L178.578,381.953z"/>
	</g>
	<g>
		<path style="fill-rule:evenodd;clip-rule:evenodd;fill:#FFD4BE;" d="M200.22,412.015c16.851-14.846-6.131-43.651-27.659-24.638    c0,0-0.028,0.029-0.085,0.059c-1.568,1.426-27.144,24.523-27.743,25.065l0,0l-0.114,0.113c0.085-0.086,0.228-0.172-1.569,1.542    c-14.513,13.989,7.956,41.196,25.292,25.895l4.134-3.625c0.029,0,0.058-0.029,0.058-0.059l3.365-2.94l22.211-19.556    c0.029-0.029,0.057-0.057,0.057-0.057c0.029,0,0.029,0,0.029-0.029L200.22,412.015z"/>
	</g>
	<g>
		<path style="fill-rule:evenodd;clip-rule:evenodd;fill:#FFD4BE;" d="M225.141,437.708c16.623-15.018-5.474-42.821-26.945-23.924    c-7.386,6.595-14.885,13.103-22.297,19.642c-1.141,0.999-2.281,2.027-3.422,2.999c-18.933,16.785,6.359,43.05,23.239,27.833    l2.223-2.027l13.259-11.962C215.816,446.045,220.493,441.904,225.141,437.708L225.141,437.708z"/>
	</g>
	<g>
		<path style="fill-rule:evenodd;clip-rule:evenodd;fill:#FFBF9E;" d="M211.54,449.955v0.029l0,0    C211.54,449.984,211.54,449.984,211.54,449.955L211.54,449.955z M337.797,429.345c-0.315-0.314-0.628-0.658-0.97-1    C337.169,428.659,337.482,429.001,337.797,429.345L337.797,429.345z M239.226,334.62c-27.515,12.16-57.911-21.896-14.085-50.329    l27.516-17.872l-67.207-10.278c-0.314,0.516-0.656,0.999-1.026,1.457l-82.176,105.257c-0.599,0.77-1.226,1.484-1.91,2.112    l16.823,23.038l34.045-30.261c21.499-19.07,44.024,9.164,27.372,24.209l-6.016,5.424c21.528-19.014,44.509,9.792,27.659,24.638    l-2.025,1.77c21.472-18.898,43.568,8.906,26.945,23.924l0,0l-0.172,0.143l-13.429,12.105c1.768-1.57,3.535-2.798,5.303-3.711    c17.964-9.591,33.646,12.532,19.817,24.95l-9.409,8.452l18.021,16.843c7.556,7.052,19.274,7.336,26.575,0.027    c6.473-6.479,9.779-17.528,3.022-23.865l2.765,2.598c23.695,22.24,41.544-6.194,31.707-20.327    c7.156,7.451,20.188,7.338,27.487,0.029c6.986-6.994,7.357-18.271,0.97-25.606c24.521,25.32,53.719-4.254,25.577-29.263    l-70.942-63.092l-20.444-18.614L239.226,334.62z"/>
	</g>
	<g>
		<path style="fill-rule:evenodd;clip-rule:evenodd;fill:#FFCB7C;" d="M149.808,108.946c0,37.597,20.957,70.314,51.809,87.042    c13.971,7.538,29.938,11.85,46.934,11.85c54.545,0,98.769-44.279,98.769-98.892c0-39.483-23.152-73.598-56.599-89.413    c-12.773-6.052-27.087-9.449-42.17-9.449C194.003,10.084,149.808,54.361,149.808,108.946L149.808,108.946z"/>
	</g>
	<g>
		<path d="M247.723,133.013c-3.906,0-8.696-0.571-11.976-4.226c-1.14-1.284-2.139-2.483-3.108-3.483    c-7.813-8.222-21.27,3.198-13.116,13.874l1.967,2.541c1.283,1.6,3.593,3.455,6.9,5.568c3.223,2.054,6.815,3.539,10.807,4.424    v14.104c0,4.853,3.962,8.85,8.811,8.85c4.876,0,9.01-3.997,9.01-8.85v-14.189c6.387-1.483,11.862-4.596,16.338-9.306    c4.504-4.712,6.757-10.963,6.757-18.757c0-5.31-1.025-9.734-3.079-13.304c-2.053-3.54-4.561-6.023-7.556-7.423    c-3.022-1.399-6.301-2.627-9.923-3.682c-3.592-1.056-6.872-1.799-9.894-2.255c-2.993-0.43-5.502-1.344-7.556-2.684    c-2.053-1.372-3.079-3.141-3.079-5.34c0-10.505,15.396-9.221,22.182-3.511c10.009,8.422,21.214-6.994,9.609-15.701l-1.34-1.2    c-0.913-0.712-2.509-1.598-4.819-2.712c-2.281-1.112-4.848-1.941-7.641-2.541v-8.535v-3.711c0-4.855-3.964-8.85-8.839-8.85    c-4.848,0-8.839,3.995-8.839,8.85v12.103c-6.502,1.285-11.891,4.512-15.626,9.278c-3.764,4.854-5.674,10.222-5.674,16.215    c0,6.025,1.397,10.964,4.191,14.875c2.794,3.909,6.188,6.651,10.208,8.25c3.992,1.599,7.983,2.884,11.975,3.825    c4.02,0.972,7.414,2.027,10.207,3.255c2.795,1.199,4.192,2.884,4.192,5.082C258.814,129.957,255.108,133.013,247.723,133.013z"/>
		<path d="M501.429,288.848L419.261,183.6c-5.535-7.108-13.926-11.185-23.022-11.185c-6.419,0-12.496,2.038-17.596,5.907    l-53.775,40.992c-6.155,4.691-10.087,11.499-11.073,19.169c-0.147,1.143-0.217,2.283-0.228,3.417    c-20.5-1.553-41.674,0.008-62.237,13.374l-0.922,0.599l-52.019-7.955c0.107-1.801,0.049-3.624-0.188-5.453    c-0.992-7.652-4.918-14.444-11.061-19.128l-53.788-40.954c-12.602-9.637-30.823-7.296-40.622,5.232L73.142,212.71    c-3.428,4.39-2.646,10.727,1.744,14.153c4.391,3.428,10.728,2.646,14.155-1.744l19.582-25.086    c2.964-3.79,8.678-4.536,12.494-1.617l53.8,40.964c1.822,1.389,2.988,3.405,3.282,5.679c0.295,2.277-0.32,4.531-1.724,6.334    L94.291,356.658c-2.944,3.781-8.665,4.52-12.475,1.631l-53.777-40.996c-1.833-1.396-3.003-3.42-3.296-5.697    c-0.291-2.266,0.324-4.505,1.739-6.314l13.972-17.899c3.427-4.39,2.646-10.727-1.745-14.153    c-4.39-3.429-10.727-2.646-14.155,1.744L10.59,292.864c-4.757,6.081-6.835,13.646-5.851,21.302    c0.985,7.669,4.918,14.477,11.073,19.167l53.794,41.01c5.235,3.971,11.422,5.892,17.569,5.891c3.555,0,7.092-0.653,10.427-1.913    l6.962,9.535c-3.784,6.903-4.374,15.195-1.333,23.198c4.347,11.442,14.604,19.2,25.701,19.569c0.344,1.63,0.821,3.259,1.472,4.872    c4.473,11.083,14.687,18.627,25.662,19.123c0.05,0.288,0.088,0.577,0.147,0.865c2.088,10.148,9.873,18.814,19.832,22.079    c2.537,0.832,5.095,1.259,7.628,1.334c0.97,4.086,2.998,8.032,6.115,11.496c4.859,5.401,11.953,8.857,19.735,8.856    c5.652,0,11.666-1.834,17.447-6.06l11.419,10.674c5.817,5.428,13.139,8.138,20.391,8.138c7.356-0.001,14.638-2.789,20.199-8.355    c3.316-3.319,5.885-7.268,7.547-11.425c2.834,0.861,5.602,1.269,8.258,1.269c7.479-0.001,14.079-3.159,18.808-8.03    c3.869-3.985,6.639-9.29,7.864-14.945c0.409,0.021,0.818,0.038,1.229,0.042c0.101,0.001,0.2,0.001,0.301,0.001    c7.954,0,15.586-3.081,20.976-8.479c3.776-3.78,6.374-8.433,7.614-13.513c1.924,0.375,3.856,0.571,5.784,0.571    c2.427,0,4.848-0.301,7.233-0.912c9.725-2.492,17.234-10.092,19.597-19.835c2.181-8.99-0.066-18.461-6.183-27.069    c15.838-12.742,22.244-19.018,29.478-30.755c4.942,3.635,10.958,5.638,17.316,5.638c0.001,0,0.001,0,0.002,0    c6.438,0,12.525-2.053,17.587-5.924l53.809-40.97c6.138-4.679,10.065-11.47,11.057-19.123    C508.25,302.526,506.183,294.951,501.429,288.848z M134.209,408.386c-1.545,1.396-3.044,2.103-4.454,2.103    c-2.896,0-6.264-2.897-7.67-6.598c-1.276-3.361-0.681-6.169,1.775-8.35l0.032-0.028c0.01-0.009,0.021-0.019,0.031-0.027    l33.974-30.198c2.842-2.52,5.702-3.854,8.272-3.854c3.762,0,6.575,2.857,7.596,5.513c1.092,2.837,0.436,5.368-1.941,7.517    l-5.922,5.341c-0.005,0.005-0.011,0.009-0.016,0.014c-0.029,0.025-0.057,0.051-0.086,0.077c-0.212,0.192-0.431,0.39-0.647,0.585    L134.209,408.386z M161.669,432.489c-1.531,1.353-2.99,2.009-4.458,2.009c-3.061,0-6.62-2.877-8.103-6.552    c-1.634-4.048,0.305-5.917,0.918-6.509c0.394-0.378,0.867-0.831,1.36-1.359c0.003-0.003,0.006-0.006,0.009-0.008l0.104-0.092    c1.94-1.733,19.023-17.168,27.185-24.543l0.607-0.548c2.766-2.428,5.568-3.711,8.107-3.711c4.004,0,6.985,3.065,8.06,5.91    c1.069,2.83,0.428,5.307-1.898,7.355l-2.092,1.84c-0.016,0.014-0.031,0.025-0.046,0.039c-0.005,0.005-0.01,0.01-0.015,0.015    L161.669,432.489z M191.727,454.256c-0.139,0.125-0.27,0.256-0.405,0.383l-2.366,2.135c-2.104,1.9-4.209,2.418-6.629,1.624    c-3.059-1.003-5.731-3.938-6.357-6.978c-0.544-2.643,0.514-5.093,3.2-7.461l3.365-2.941c0.085-0.074,0.158-0.155,0.24-0.231    l22.042-19.385c5.282-4.669,10.513-5.137,13.995-1.244c0.49,0.548,4.642,5.484-0.427,10.063l-13.537,12.215    c-0.145,0.128-0.292,0.243-0.437,0.374c-0.051,0.047-0.093,0.101-0.143,0.147l-12.387,11.177    C191.832,454.178,191.776,454.211,191.727,454.256z M204.783,476.902c-1.063-1.18-3.113-4.239,0.25-7.469l13.504-12.185    c1.022-0.874,2.007-1.567,2.929-2.043c0.042-0.022,0.085-0.044,0.126-0.066c5.443-2.907,8.393,0.482,9.169,1.589    c0.997,1.424,2.213,4.221-0.844,6.967l-9.252,8.316c-0.035,0.031-0.069,0.063-0.104,0.094l-4.011,3.605    C209.96,481.626,205.877,478.12,204.783,476.902z M364.589,423.635c-0.62,2.555-2.443,4.396-5.002,5.052    c-4.242,1.086-9.612-1.27-14.528-6.314c-0.369-0.408-0.747-0.81-1.142-1.199l-38.066-37.628    c-3.962-3.914-10.347-3.878-14.262,0.083c-3.915,3.961-3.879,10.346,0.082,14.261l38.005,37.567c0.063,0.067,0.128,0.133,0.19,0.2    c1.518,1.562,2.363,3.648,2.372,5.906c0.009,2.385-0.895,4.609-2.547,6.263c-1.629,1.632-4.066,2.563-6.7,2.563    c-0.037,0-0.073,0-0.11-0.001c-2.332-0.022-4.46-0.803-5.958-2.166c-0.631-0.816-1.318-1.607-2.073-2.365l-27.829-27.863    c-3.936-3.939-10.321-3.943-14.262-0.009c-3.94,3.936-3.944,10.32-0.009,14.261l26.391,26.424    c0.318,0.465,0.671,0.914,1.077,1.333l1.123,1.158c1.447,2.755,0.55,7.397-2.22,10.251c-4.274,4.401-10.29,0.521-14.575-3.504    l-11.918-11.219c-4.055-3.818-10.438-3.625-14.255,0.43c-3.818,4.056-3.625,10.438,0.43,14.256l9.104,8.57    c0.022,0.021,0.04,0.044,0.062,0.064c0.208,0.194,0.521,0.488,0.537,1.505c0.039,2.363-1.522,5.604-3.795,7.879    c-3.318,3.321-8.835,3.202-12.554-0.269l-9.98-9.328l1.22-1.097c9.896-8.886,11.493-22.677,3.884-33.539    c-2.476-3.535-5.577-6.281-9.056-8.186c4.904-9.671,3.533-21.413-4.382-30.26c-4.465-4.992-10.772-8.401-17.812-9.156    c-0.201-2.53-0.755-5.08-1.704-7.594c-3.426-9.07-11.041-15.746-20.003-18.058c0.373-4.018-0.182-8.166-1.734-12.201    c-4.245-11.027-14.861-18.436-26.42-18.436c-7.58,0-15.068,3.089-21.664,8.94l-25.747,22.886l-5.66-7.751l76.766-98.324    l35.098,5.368l-5.31,3.445c-28.44,18.452-30.522,39.911-22.986,53.842c6.031,11.151,18.068,17.525,30.845,17.525    c5.26-0.001,10.648-1.081,15.791-3.355c0.136-0.06,0.271-0.123,0.403-0.189l26.588-13.183l15.349,13.975    c0.015,0.014,0.031,0.024,0.045,0.037c0.015,0.014,0.027,0.028,0.042,0.042l70.942,63.092    C362.751,413.022,365.711,419.01,364.589,423.635z M363.741,386.914l-64.564-57.42l-20.4-18.574    c-3.072-2.799-7.547-3.426-11.269-1.579l-32.544,16.137c-8.842,3.803-17.539,0.184-20.559-5.399    c-4.15-7.672,2.066-18.144,16.224-27.328l31.685-20.561c17.18-11.168,35.202-12.03,59.855-9.169l71.385,91.467    C386.021,368.016,382.021,372.31,363.741,386.914z M487.255,307.593c-0.294,2.271-1.46,4.287-3.278,5.673l-53.822,40.979    c-1.933,1.48-3.977,1.789-5.351,1.789h0c-2.829-0.001-5.426-1.246-7.118-3.41l-82.155-105.266    c-1.408-1.801-2.023-4.039-1.731-6.305c0.293-2.278,1.463-4.303,3.296-5.7l53.758-40.98c1.95-1.479,4.004-1.79,5.385-1.79    c2.832,0,5.422,1.241,7.116,3.416l82.168,105.249C486.935,303.063,487.551,305.315,487.255,307.593z"/>
		<path d="M196.829,204.863c15.833,8.543,33.718,13.059,51.722,13.059c60.022,0,108.854-48.887,108.854-108.976    c0-41.938-24.483-80.612-62.366-98.525C280.445,3.506,264.805,0,248.551,0c-60.008,0-108.827,48.873-108.827,108.946    C139.724,149.012,161.599,185.762,196.829,204.863z M248.551,20.168c13.243,0,25.978,2.853,37.859,8.482    c30.875,14.599,50.826,46.118,50.826,80.297c0,48.969-39.784,88.808-88.684,88.808c-14.672,0-29.245-3.68-42.127-10.63    c-28.702-15.563-46.532-45.519-46.532-78.178C159.893,59.994,199.665,20.168,248.551,20.168z"/>
		<path d="M50.508,257.914c1.857,1.483,4.078,2.202,6.284,2.202c2.962,0,5.897-1.299,7.888-3.795l0.114-0.143    c3.474-4.353,2.761-10.698-1.592-14.172c-4.353-3.472-10.699-2.762-14.172,1.593l-0.114,0.143    C45.442,248.095,46.155,254.44,50.508,257.914z"/>
	</g>
</g>















</svg>
