<svg id="Capa_1" enable-background="new 0 0 512 512" height="512" viewBox="0 0 512 512" width="512" xmlns="http://www.w3.org/2000/svg"><g><g><path d="m220.667 409.631h-127.1c-4.436 0-8.609 2.102-11.25 5.667l-58.241 78.623c-5.274 7.119-16.576 3.389-16.576-5.47v-460.125c0-7.732 6.268-14 14-14h199.167c7.732 0 14 6.268 14 14v367.306c0 7.731-6.268 13.999-14 13.999z" fill="#aedafe"/></g><g><path d="m7.5 70.992h227.167" fill="#d7b8f7"/></g><g><ellipse cx="121.084" cy="161.659" fill="#fafafa" rx="26.667" ry="26.667" transform="matrix(.23 -.973 .973 .23 -64.07 242.362)"/></g><g><path d="m490.5 409.631h-127.1c-4.436 0-8.609 2.102-11.25 5.667l-58.241 78.623c-5.274 7.119-16.576 3.389-16.576-5.471v-460.124c0-7.732 6.268-14 14-14h199.167c7.732 0 14 6.268 14 14v367.306c0 7.731-6.268 13.999-14 13.999z" fill="#f9d48d"/></g><g><path d="m277.334 70.992h227.166" fill="#d7b8f7"/></g><g><path d="m7.5 70.992h227.167" fill="#d7b8f7"/></g><g><path d="m277.334 70.992h227.166" fill="#d7b8f7"/></g><g><path d="m220.667 14.325h-30c7.732 0 14 6.268 14 14v367.306c0 7.732-6.268 14-14 14h30c7.732 0 14-6.268 14-14v-367.305c0-7.732-6.268-14.001-14-14.001z" fill="#8dc1fe"/></g><g><path d="m490.5 14.325h-30c7.732 0 14 6.268 14 14v367.306c0 7.732-6.268 14-14 14h30c7.732 0 14-6.268 14-14v-367.305c0-7.732-6.268-14.001-14-14.001z" fill="#ffc059"/></g><g><ellipse cx="390.917" cy="161.659" fill="#fafafa" rx="26.667" ry="26.667" transform="matrix(.707 -.707 .707 .707 .187 323.769)"/></g><g><path d="m220.667 6.826h-199.167c-11.856 0-21.5 9.645-21.5 21.5v138.154c0 4.142 3.357 7.5 7.5 7.5s7.5-3.358 7.5-7.5v-87.988h212.167v317.139c0 3.584-2.916 6.5-6.5 6.5h-127.101c-6.78 0-13.238 3.253-17.275 8.703l-58.241 78.623c-.181.243-.727.985-1.89.599-1.16-.383-1.16-1.303-1.16-1.605v-291.971c0-4.142-3.357-7.5-7.5-7.5s-7.5 3.358-7.5 7.5v291.971c0 7.331 4.498 13.552 11.459 15.85 1.783.588 3.59.874 5.364.874 5.152 0 10.033-2.407 13.279-6.789l58.241-78.623c1.221-1.647 3.173-2.631 5.223-2.631h127.101c11.855 0 21.5-9.645 21.5-21.5v-367.306c0-11.855-9.644-21.5-21.5-21.5zm-205.667 56.666v-35.166c0-3.584 2.916-6.5 6.5-6.5h199.167c3.584 0 6.5 2.916 6.5 6.5v35.166z"/><path d="m59.773 232.248c0 4.142 3.358 7.5 7.5 7.5h107.62c4.143 0 7.5-3.358 7.5-7.5s-3.357-7.5-7.5-7.5h-107.62c-4.142 0-7.5 3.358-7.5 7.5z"/><path d="m67.273 281.787h107.62c4.143 0 7.5-3.358 7.5-7.5s-3.357-7.5-7.5-7.5h-107.62c-4.142 0-7.5 3.358-7.5 7.5s3.358 7.5 7.5 7.5z"/><path d="m67.273 323.826h107.62c4.143 0 7.5-3.358 7.5-7.5s-3.357-7.5-7.5-7.5h-107.62c-4.142 0-7.5 3.358-7.5 7.5s3.358 7.5 7.5 7.5z"/><path d="m155.25 161.659c0-18.839-15.327-34.167-34.166-34.167-18.84 0-34.167 15.327-34.167 34.167s15.327 34.167 34.167 34.167c18.839 0 34.166-15.327 34.166-34.167zm-53.333 0c0-10.568 8.599-19.167 19.167-19.167s19.166 8.598 19.166 19.167-8.598 19.167-19.166 19.167-19.167-8.598-19.167-19.167z"/><path d="m490.5 6.826h-199.166c-11.856 0-21.5 9.645-21.5 21.5v460.125c0 7.331 4.498 13.552 11.46 15.85 1.783.588 3.589.874 5.363.874 5.152 0 10.033-2.408 13.278-6.789l58.241-78.623c1.221-1.647 3.174-2.631 5.224-2.631h127.1c11.855 0 21.5-9.645 21.5-21.5v-68.633c0-4.142-3.357-7.5-7.5-7.5s-7.5 3.358-7.5 7.5v68.633c0 3.584-2.916 6.5-6.5 6.5h-127.1c-6.781 0-13.239 3.253-17.276 8.703l-58.241 78.624c-.181.243-.728.982-1.889.599-1.16-.383-1.16-1.303-1.16-1.605v-409.961h212.166v218.505c0 4.142 3.357 7.5 7.5 7.5s7.5-3.358 7.5-7.5v-268.671c0-11.855-9.645-21.5-21.5-21.5zm-205.666 56.666v-35.166c0-3.584 2.916-6.5 6.5-6.5h199.166c3.584 0 6.5 2.916 6.5 6.5v35.166z"/><path d="m444.728 224.748h-107.621c-4.143 0-7.5 3.358-7.5 7.5s3.357 7.5 7.5 7.5h107.621c4.143 0 7.5-3.358 7.5-7.5s-3.358-7.5-7.5-7.5z"/><path d="m444.728 266.787h-107.621c-4.143 0-7.5 3.358-7.5 7.5s3.357 7.5 7.5 7.5h107.621c4.143 0 7.5-3.358 7.5-7.5s-3.358-7.5-7.5-7.5z"/><path d="m444.728 308.826h-107.621c-4.143 0-7.5 3.358-7.5 7.5s3.357 7.5 7.5 7.5h107.621c4.143 0 7.5-3.358 7.5-7.5s-3.358-7.5-7.5-7.5z"/><path d="m425.084 161.659c0-18.839-15.327-34.167-34.167-34.167s-34.167 15.327-34.167 34.167 15.327 34.167 34.167 34.167 34.167-15.327 34.167-34.167zm-53.334 0c0-10.568 8.599-19.167 19.167-19.167s19.167 8.598 19.167 19.167-8.599 19.167-19.167 19.167-19.167-8.598-19.167-19.167z"/></g></g></svg>