<svg id="Layer_35" enable-background="new 0 0 64 64" height="512" viewBox="0 0 64 64" width="512" xmlns="http://www.w3.org/2000/svg"><path d="m39 62h-14-5v-6c0-3.32 1.34-6.32 3.51-8.49s5.17-3.51 8.49-3.51c6.63 0 12 5.37 12 12v6z" fill="#5cd6b3"/><g fill="#ffeaa7"><path d="m18 40v6c0 3.31-2.69 6-6 6h-4c-3.31 0-6-2.69-6-6 0-1.66.67-3.16 1.76-4.24 1.08-1.09 2.58-1.76 4.24-1.76z"/><path d="m56 30c3.31 0 6 2.69 6 6 0 1.66-.67 3.16-1.76 4.24-1.08 1.09-2.58 1.76-4.24 1.76h-10v-6c0-3.31 2.69-6 6-6z"/><path d="m58 2h-24c-2.21 0-4 1.79-4 4v20h28c2.21 0 4-1.79 4-4v-16c0-2.21-1.79-4-4-4z"/></g><path d="m30 12h-24c-2.21 0-4 1.79-4 4v16c0 2.21 1.79 4 4 4h28v-20c0-2.21-1.79-4-4-4z" fill="#e6e9ed"/><path d="m28 19-4 11s-3-1-6-1-6 1-6 1l-4-11 1-1 4.5 4 4.49-4 4.51 4 4.5-4z" fill="#ffc729"/><path d="m53.41 11 .29.86-4.7 3.14 2.18 5.09-.77.58-4.41-3.67-4.41 3.67-.77-.58 2.18-5.09-4.7-3.14.29-.86h5.41l1.42-4.97h1.16l1.42 4.97z" fill="#ff826e"/><path d="m34 30.29c2.89.86 5 3.53 5 6.71 0 3.87-3.13 7-7 7s-7-3.13-7-7c0-.34.02-.68.08-1 .48-3.4 3.39-6 6.92-6 .7 0 1.37.1 2 .29z" fill="#f0d0b4"/><path d="m58 1h-24c-2.757 0-5 2.243-5 5v5h-23c-2.757 0-5 2.243-5 5v16c0 2.757 2.243 5 5 5h18c0 2.833 1.484 5.32 3.711 6.742-5.064 1.778-8.711 6.594-8.711 12.258v7h26v-7c0-5.664-3.647-10.48-8.711-12.258 2.227-1.422 3.711-3.909 3.711-6.742 0-3.35-2.072-6.221-5-7.411v-2.589h23c2.757 0 5-2.243 5-5v-16c0-2.757-2.243-5-5-5zm-15 55v5h-3v-9h-2v9h-12v-9h-2v9h-3v-5c0-6.065 4.935-11 11-11s11 4.935 11 11zm-5-19c0 3.309-2.691 6-6 6s-6-2.691-6-6 2.691-6 6-6 6 2.691 6 6zm-6-8c-3.719 0-6.845 2.555-7.737 6h-18.263c-1.654 0-3-1.346-3-3v-16c0-1.654 1.346-3 3-3h24c1.654 0 3 1.346 3 3v13.069c-.328-.041-.661-.069-1-.069zm29-7c0 1.654-1.346 3-3 3h-23v-9c0-2.414-1.721-4.434-4-4.899v-5.101c0-1.654 1.346-3 3-3h24c1.654 0 3 1.346 3 3z"/><path d="m54.132 10h-5.378l-1.42-4.971h-2.668l-1.42 4.971h-5.378l-.763 2.271 4.647 3.1-2.161 5.043 2.03 1.535 4.379-3.647 4.378 3.647 2.03-1.535-2.161-5.043 4.647-3.1zm-6.379 4.629 1.687 3.935-3.44-2.866-3.439 2.865 1.687-3.935-3.945-2.628h4.451l1.246-4.36 1.246 4.36h4.451z"/><path d="m22.497 20.662-4.502-4-4.5 4-4.535-4.036-2.117 2.117 4.55 12.512.923-.306c.029-.01 2.89-.949 5.684-.949s5.655.939 5.685.949l.923.307 4.55-12.513-2.116-2.117zm.884 8.114c-1.165-.311-3.258-.776-5.381-.776s-4.216.465-5.381.776l-3.343-9.191 4.219 3.753 4.5-4 4.502 4 4.227-3.755z"/><path d="m56 29h-4c-3.859 0-7 3.141-7 7v7h11c3.859 0 7-3.141 7-7s-3.141-7-7-7zm0 12h-9v-5c0-2.757 2.243-5 5-5h4c2.757 0 5 2.243 5 5s-2.243 5-5 5z"/><path d="m49 33h2v2h-2z"/><path d="m53 33h2v2h-2z"/><path d="m57 33h2v2h-2z"/><path d="m49 37h10v2h-10z"/><path d="m19 39h-11c-3.859 0-7 3.141-7 7s3.141 7 7 7h4c3.859 0 7-3.141 7-7zm-2 7c0 2.757-2.243 5-5 5h-4c-2.757 0-5-2.243-5-5s2.243-5 5-5h9z"/><path d="m13 47h2v2h-2z"/><path d="m9 47h2v2h-2z"/><path d="m5 47h2v2h-2z"/><path d="m5 43h10v2h-10z"/><path d="m17 24h2v2h-2z"/></svg>