<svg height="512" viewBox="0 0 64 64" width="512" xmlns="http://www.w3.org/2000/svg"><g id="Fill_Outline" data-name="Fill Outline"><g id="Color"><g><path d="m11 48h12v10h-12z" fill="#f89c8d"/><path d="m13 50v-2h-2v10h12v-2h-4a6 6 0 0 1 -6-6z" fill="#f8664f"/><path d="m5 51-2 3v4h8v-7z" fill="#f8664f"/><path d="m9 51v1a4 4 0 0 1 -4 4h-2v2h8v-7z" fill="#cc5144"/><circle cx="11" cy="11" fill="#aae1f9" r="8"/><path d="m14 15a7.986 7.986 0 0 1 -7.575-10.557 8 8 0 1 0 12.15 9.114 7.954 7.954 0 0 1 -4.575 1.443z" fill="#57b7eb"/><path d="m42 47-4 4v10h22v-14z" fill="#93999a"/><path d="m50 58a8 8 0 0 1 -8-8v-3l-4 4v10h22v-3z" fill="#656b76"/><path d="m42 22a10 10 0 1 0 -15 8.651v2.349h10v-2.349a9.988 9.988 0 0 0 5-8.651z" fill="#f9e109"/><rect fill="#c4f236" height="4" rx="2" width="16" x="24" y="33"/><rect fill="#c4f236" height="4" rx="2" width="16" x="24" y="37"/><g fill="#aae1f9"><path d="m27 41h10a0 0 0 0 1 0 0v1a5 5 0 0 1 -5 5 5 5 0 0 1 -5-5v-1a0 0 0 0 1 0 0z"/><circle cx="7" cy="59" r="2"/><circle cx="18" cy="59" r="2"/></g><path d="m55 41h4v6h-4z" fill="#d0d8da"/><path d="m47 41h4v6h-4z" fill="#d0d8da"/><path d="m55 31a3 3 0 0 0 -2.916 2.323 2 2 0 1 0 .661 2.636 2.995 2.995 0 1 0 2.255-4.959z" fill="#aae1f9"/><path d="m42 55h4v6h-4z" fill="#57b7eb"/><circle cx="11" cy="9" fill="#f9e109" r="2"/><path d="m10 11h2a2 2 0 0 1 2 2v2a0 0 0 0 1 0 0h-6a0 0 0 0 1 0 0v-2a2 2 0 0 1 2-2z" fill="#f9e109"/><g><path d="m49 3h12v8h-12z" fill="#aae1f9"/><path d="m53 11h4v4h-4z" fill="#d0d8da"/><path d="m49 3v8h12l-7-8z" fill="#57b7eb"/><path d="m57 9a6 6 0 0 1 -6-6h-2v8h12v-2z" fill="#57b7eb"/><path d="m57 9a6 6 0 0 1 -6-6h-2v8h12l-1.75-2z" fill="#4891d3"/><path d="m53 15v-4h4z" fill="#93999a"/></g><path d="m26 16a14.1 14.1 0 0 1 .177-2.119 9.982 9.982 0 0 0 .823 16.77v2.349h10v-2.349a9.976 9.976 0 0 0 1.153-.787 13.992 13.992 0 0 1 -12.153-13.864z" fill="#fcbc04"/><path d="m26 33a2 2 0 0 0 0 4h12a2 2 0 0 0 2-2h-12a2 2 0 0 1 -2-2z" fill="#a1d51c"/><path d="m26 37a2 2 0 0 0 0 4h12a2 2 0 0 0 2-2h-12a2 2 0 0 1 -2-2z" fill="#a1d51c"/><path d="m36 43h.9a4.988 4.988 0 0 0 .1-1v-1h-10v1a4.993 4.993 0 0 0 4.127 4.912 5 5 0 0 1 4.873-3.912z" fill="#57b7eb"/><path d="m57 43v-2h-2v6h4v-1.184a2.99 2.99 0 0 1 -2-2.816z" fill="#93999a"/><path d="m49 43v-2h-2v6h4v-1.184a2.99 2.99 0 0 1 -2-2.816z" fill="#93999a"/><path d="m43.76 55h-1.76v6h4v-4.079a8.04 8.04 0 0 1 -2.24-1.921z" fill="#4891d3"/><path d="m58 47h-14a2 2 0 0 0 2 2h10a2 2 0 0 1 2 2v1a2 2 0 0 0 2 2v-7z" fill="#d0d8da"/><path d="m55 35a2.979 2.979 0 0 1 -2.255-1.041 1.984 1.984 0 0 1 -3.468.041 1.992 1.992 0 1 0 3.468 1.959 2.981 2.981 0 0 0 5.071-2.959 2.99 2.99 0 0 1 -2.816 2z" fill="#57b7eb"/><path d="m12 10a1.992 1.992 0 0 1 -1.82-2.82 2 2 0 1 0 2.64 2.64 1.99 1.99 0 0 1 -.82.18z" fill="#fcbc04"/><path d="m12 14a1.988 1.988 0 0 1 -1.723-3h-.277a2 2 0 0 0 -2 2v2h6v-1z" fill="#fcbc04"/><path d="m8.1 12.393a1.972 1.972 0 0 0 -.1.607v2h6a7.966 7.966 0 0 1 -5.9-2.607z" fill="#e59730"/><circle cx="18" cy="59" fill="#57b7eb" r="1"/><circle cx="7" cy="59" fill="#57b7eb" r="1"/></g></g><g id="Outlines_copy" data-name="Outlines copy"><g fill="#323232"><path d="m39 41a1 1 0 0 0 -1-1h-12a1 1 0 0 1 0-2h12a3 3 0 0 0 0-6v-.791a10.977 10.977 0 0 0 3.59-14.589 1 1 0 0 0 -1.744.981 8.977 8.977 0 0 1 -3.346 12.185 1 1 0 0 0 -.5.865v1.349h-1v-6.586l2.707-2.707a1 1 0 0 0 .125-1.262l-2-3a1 1 0 0 0 -1.387-.277l-2.445 1.632-2.445-1.63a1 1 0 0 0 -1.387.277l-2 3a1 1 0 0 0 .125 1.262l2.707 2.705v6.586h-1v-1.349a1 1 0 0 0 -.5-.865 8.994 8.994 0 0 1 4.5-16.786 8.908 8.908 0 0 1 5.48 1.874 1 1 0 0 0 1.22-1.585 10.9 10.9 0 0 0 -5.7-2.241v-4.048h9l-1.6 1.2a1 1 0 1 0 1.2 1.6l4-3a1 1 0 0 0 0-1.6l-4-3a1 1 0 1 0 -1.2 1.6l1.6 1.2h-10a1 1 0 0 0 -1 1v5.051a10.989 10.989 0 0 0 -5 20.158v.791a2.987 2.987 0 0 0 -2.22 5 2.987 2.987 0 0 0 2.22 5 6 6 0 0 0 12 0 1 1 0 0 0 1-1zm-8.293-16.707-2.42-2.42.99-1.486 2.168 1.445a1 1 0 0 0 1.11 0l2.168-1.445.99 1.486-2.42 2.42a1 1 0 0 0 -.293.707v7h-2v-7a1 1 0 0 0 -.293-.707zm-4.707 9.707h12a1 1 0 0 1 0 2h-12a1 1 0 0 1 0-2zm6 12a4 4 0 0 1 -4-4h8a4 4 0 0 1 -4 4z"/><path d="m23 47h-12a1 1 0 0 0 -1 1v2h-5a1 1 0 0 0 -.832.445l-2 3a1.006 1.006 0 0 0 -.168.555v4a1 1 0 0 0 1 1h1a3 3 0 0 0 6 0h5a3.029 3.029 0 1 0 .78-2h-3.78v-8h10v7a1 1 0 0 0 2 0v-8a1 1 0 0 0 -1-1zm-5 11a1 1 0 1 1 -1 1 1 1 0 0 1 1-1zm-11 2a1 1 0 1 1 1-1 1 1 0 0 1 -1 1zm2.22-3a2.964 2.964 0 0 0 -4.44 0h-.78v-2.7l1.535-2.3h4.465v5z"/><path d="m15 52a1 1 0 0 0 0 2h4a1 1 0 0 0 0-2z"/><path d="m60 46v-5a1 1 0 0 0 -1-1h-4a1 1 0 0 0 -1 1v5h-2v-5a1 1 0 0 0 -1-1h-4a1 1 0 0 0 -1 1v5h-4a1 1 0 0 0 -.707.293l-4 4a1 1 0 0 0 -.293.707v10a1 1 0 0 0 1 1h22a1 1 0 0 0 1-1v-6a1 1 0 0 0 -2 0v5h-12v-5a1 1 0 0 0 -1-1h-4a1 1 0 0 0 -1 1v5h-2v-8.586l3.414-3.414h16.586v3a1 1 0 0 0 2 0v-4a1 1 0 0 0 -1-1zm-17 10h2v4h-2zm5-10v-4h2v4zm8 0v-4h2v4z"/><path d="m51 32a3 3 0 1 0 1.844 5.358 3.958 3.958 0 0 0 2.156.642 4 4 0 1 0 -3.486-5.955 2.941 2.941 0 0 0 -.514-.045zm1.459 2.25a1 1 0 0 0 .6-.7 2.013 2.013 0 1 1 .441 1.75 1 1 0 0 0 -.755-.344c-.035 0-.07 0-.1 0a1 1 0 0 0 -.771.512.986.986 0 0 1 -.874.532 1 1 0 0 1 0-2 .983.983 0 0 1 .541.163 1 1 0 0 0 .918.087z"/><path d="m50 50h-2a1 1 0 0 0 0 2h2a1 1 0 0 0 0-2z"/><path d="m56 50h-2a1 1 0 0 0 0 2h2a1 1 0 0 0 0-2z"/><path d="m56 54h-2a1 1 0 0 0 0 2h2a1 1 0 0 0 0-2z"/><circle cx="50" cy="55" r="1"/><path d="m7 13v2a1 1 0 0 0 1 1h6a1 1 0 0 0 1-1v-2a2.994 2.994 0 0 0 -1.4-2.529 2.967 2.967 0 0 0 .4-1.471 3 3 0 0 0 -6 0 2.967 2.967 0 0 0 .4 1.471 2.994 2.994 0 0 0 -1.4 2.529zm6 1h-4v-1a1 1 0 0 1 1-1h2a1 1 0 0 1 1 1zm-2-6a1 1 0 1 1 -1 1 1 1 0 0 1 1-1z"/><path d="m11 20a9 9 0 1 0 -4.566-16.747 1 1 0 1 0 1.017 1.722 7.026 7.026 0 1 1 -2.475 2.476 1 1 0 1 0 -1.723-1.017 8.988 8.988 0 0 0 7.747 13.566z"/><path d="m62 3a1 1 0 0 0 -1-1h-12a1 1 0 0 0 -1 1v8a1 1 0 0 0 1 1h3v2h-2a1 1 0 0 0 0 2h10a1 1 0 0 0 0-2h-2v-2h3a.993.993 0 0 0 .367-.074.878.878 0 0 0 .135-.081.918.918 0 0 0 .156-.093c.009-.007.012-.017.02-.025a.974.974 0 0 0 .135-.177 1.012 1.012 0 0 0 .093-.138 1.05 1.05 0 0 0 .045-.169.951.951 0 0 0 .042-.211c0-.011.007-.021.007-.032zm-2 5.338-3.8-4.338h3.8zm-10-4.338h3.546l5.25 6h-8.796zm6 10h-2v-2h2z"/><path d="m56 18a1 1 0 0 0 -1 1v5l-1.2-1.6a1 1 0 0 0 -1.6 1.2l3 4a1 1 0 0 0 1.6 0l3-4a1 1 0 1 0 -1.6-1.2l-1.2 1.6v-5a1 1 0 0 0 -1-1z"/><path d="m34 55h-4l1.6-1.2a1 1 0 0 0 -1.2-1.6l-4 3a1 1 0 0 0 0 1.6l4 3a1 1 0 0 0 1.2-1.6l-1.6-1.2h4a1 1 0 0 0 0-2z"/><path d="m11 44a1 1 0 0 0 1-1v-17l1.2 1.6a1 1 0 0 0 1.6-1.2l-3-4a1.036 1.036 0 0 0 -1.6 0l-3 4a1 1 0 1 0 1.6 1.2l1.2-1.6v17a1 1 0 0 0 1 1z"/></g></g></g></svg>