<svg id="Layer_5" enable-background="new 0 0 62 62.278" height="512" viewBox="0 0 62 62.278" width="512" xmlns="http://www.w3.org/2000/svg"><g><g><g><path d="m49 33.278c-.69 0-1.36.06-2.01.17-.03-1.15-.16-2.3-.39-3.42l-.78-3.9v-.01l-.57-2.84h-.01l-1.83-9.13-3.92-.87h-.01l-1.36-.3c-3.49-.78-6.82-2.36-9.62-4.59l-2.5-2-2.5 2c-2.8 2.23-6.13 3.82-9.62 4.59l-1.36.3c-.01 0-.01 0-.02 0l-3.91.87-1.83 9.13h-.01l-.56 2.83-.79 3.92c-.27 1.31-.4 2.65-.4 4 0 3.77 1.06 7.44 3 10.59 1.37 2.26 3.18 4.26 5.37 5.86l4.78 3.49 1.87 1.36c1.74 1.28 3.81 1.95 5.98 1.95s4.24-.67 5.98-1.95l1.87-1.36 4.78-3.49c.9-.66 1.75-1.4 2.53-2.19v-5c1.04.03 1.98.48 2.67 1.16.72.73 1.17 1.73 1.17 2.83l.55 2.09c-1.32 1.62-2.85 3.08-4.56 4.34l-6.65 4.85c-2.43 1.78-5.32 2.72-8.34 2.72s-5.91-.94-8.34-2.72l-6.64-4.85c-6.28-4.58-10.02-11.94-10.02-19.68 0-1.61.16-3.22.48-4.79l3.7-18.43 7.83-1.74c2.91-.64 5.67-1.96 7.99-3.81l5-3.98 5 3.98c2.32 1.85 5.08 3.17 7.98 3.81l7.84 1.74 3.7 18.43c.28 1.38.44 2.79.47 4.21-.65-.11-1.31-.17-1.99-.17z" fill="#aab2bd"/></g><g><path d="m38.17 44.448c.73-.72 1.73-1.17 2.83-1.17.05 0 .11 0 .16.01v5c-.78.79-1.63 1.53-2.53 2.19l-4.78 3.49c-.36-1.58-1.35-2.93-2.71-3.75 3.24-1.18 5.86-2.94 5.86-2.94 0-1.1.45-2.1 1.17-2.83z" fill="#ccd1d9"/></g><g><path d="m46.6 30.028c.23 1.12.36 2.27.39 3.42-2.21.37-4.2 1.34-5.82 2.74-.92-.58-2.01-.91-3.17-.91v-2l1.79-.89c1.35-.68 2.21-2.07 2.21-3.58v-1.53h2c.81 0 1.49-.48 1.82-1.15z" fill="#ccd1d9"/></g><g><path d="m28.5 8.388c2.8 2.23 6.13 3.81 9.62 4.59l1.36.3c-.05 0-.09 0-.15 0h-6.66c-3.69 0-6.67 2.98-6.67 6.67 0-3.69-2.98-6.67-6.67-6.67h-6.66c-.05 0-.1 0-.15 0l1.36-.3c3.49-.77 6.82-2.36 9.62-4.59l2.5-2z" fill="#ccd1d9"/></g><g><path d="m14 33.278v2c-1.66 0-3.16.67-4.24 1.76-1.09 1.08-1.76 2.58-1.76 4.24v3.34c-1.94-3.15-3-6.82-3-10.59 0-1.35.13-2.69.4-4l.79-3.92c.3.69 1 1.17 1.81 1.17h2v1.53c0 1.51.86 2.9 2.21 3.58z" fill="#ccd1d9"/></g><g><path d="m20.86 50.218c-1.36.82-2.35 2.17-2.71 3.75l-4.78-3.49c-2.19-1.6-4-3.6-5.37-5.86v-3.34c0-1.66.67-3.16 1.76-4.24 1.08-1.09 2.58-1.76 4.24-1.76l2.71 3-.6 5.08c-.07.61-.21 1.21-.4 1.8l-.71 2.12s2.62 1.76 5.86 2.94z" fill="#ef7385"/></g><g><path d="m8.59 14.148 3.91-.87h.02.15 6.66c3.69 0 6.67 2.98 6.67 6.67 0 1.28-.37 2.52-1.04 3.58-.28-.16-.61-.25-.96-.25h-2-.39c-1.13 0-2.22-.28-3.18-.8-.97-.52-1.81-1.26-2.43-2.2l-1 1c-1.3-.44-2.29-1.44-2.74-2.68-1.38.77-2.26 2.23-2.26 3.84v.84h-3.24z" fill="#656d78"/></g><g><path d="m39.49 13.278 3.92.87 1.83 9.13h-3.24v-.84c0-1.61-.88-3.07-2.26-3.84-.45 1.24-1.44 2.24-2.74 2.68l-1-1-2 1-2-2c-1.23.61-2 1.87-2 3.24v.76h-2c-.35 0-.68.09-.96.25-.67-1.06-1.04-2.3-1.04-3.58 0-3.69 2.98-6.67 6.67-6.67h6.66.15z" fill="#b27946"/></g><g><path d="m35.28 37.998 2.72-2.72c1.16 0 2.25.33 3.17.91-2.55 2.19-4.17 5.45-4.17 9.09v2l-.71-2.12c-.19-.59-.33-1.19-.4-1.8l-.63-5.36z" fill="#e6e9ed"/></g><g><path d="m45.25 23.278.57 2.84v.01c-.33.67-1.01 1.15-1.82 1.15h-2v-4h3.24z" fill="#f0d0b4"/></g><g><path d="m35.28 37.998h-.02l-.33-2.77c-.36-3.12-2.29-5.7-4.93-7.01v-.94-4-.76c0-1.37.77-2.63 2-3.24l2 2 2-1 1 1c1.3-.44 2.29-1.44 2.74-2.68 1.38.77 2.26 2.23 2.26 3.84v.84 4 1.53c0 1.51-.86 2.9-2.21 3.58l-1.79.89v2z" fill="#f0d0b4"/></g><g><path d="m30 23.278v4h-2c-.55 0-1.05-.22-1.41-.59-.37-.36-.59-.86-.59-1.41 0-.75.42-1.41 1.04-1.75.28-.16.61-.25.96-.25z" fill="#f0d0b4"/></g><g><path d="m24.96 23.528c.62.34 1.04 1 1.04 1.75 0 .55-.22 1.05-.59 1.41-.36.37-.86.59-1.41.59h-2v-4h2c.35 0 .68.09.96.25z" fill="#f0d0b4"/></g><g><path d="m22 23.278v4 .94c-.72.35-1.38.8-1.98 1.33-1.59 1.42-2.68 3.41-2.95 5.68l-.36 3.05-2.71-3v-2l-1.79-.89c-1.35-.68-2.21-2.07-2.21-3.58v-1.53-4-.84c0-1.61.88-3.07 2.26-3.84.45 1.24 1.44 2.24 2.74 2.68l1-1c.62.94 1.46 1.68 2.43 2.2.96.52 2.05.8 3.18.8z" fill="#f0d0b4"/></g><g><path d="m10 23.278v4h-2c-.81 0-1.51-.48-1.81-1.17l.56-2.83h.01z" fill="#f0d0b4"/></g><g><path d="m33.85 53.968-1.87 1.36c-1.74 1.28-3.81 1.95-5.98 1.95s-4.24-.67-5.98-1.95l-1.87-1.36c.36-1.58 1.35-2.93 2.71-3.75h.01c.62-.38 1.31-.64 2.06-.76l1.07-.18c0 1.1.9 2 2 2 .55 0 1.05-.22 1.41-.59.37-.36.59-.86.59-1.41l1.07.18c.75.12 1.44.38 2.06.76h.01c1.36.82 2.35 2.17 2.71 3.75z" fill="#b4dd7f"/></g><g><path d="m24 47.278v2l-1.07.18c-.75.12-1.44.38-2.06.76h-.01c-3.24-1.18-5.86-2.94-5.86-2.94l.71-2.12c.19-.59.33-1.19.4-1.8l.6-5.08.36-3.05c.27-2.27 1.36-4.26 2.95-5.68.6-.53 1.26-.98 1.98-1.33l4-.94c1.43 0 2.79.33 4 .94 2.64 1.31 4.57 3.89 4.93 7.01l.33 2.77.63 5.36c.07.61.21 1.21.4 1.8l.71 2.12s-2.62 1.76-5.86 2.94h-.01c-.62-.38-1.31-.64-2.06-.76l-1.07-.18v-2l.97-.24c1.78-.45 3.03-2.05 3.03-3.88v-3.88c0-1.1-.9-2-2-2h-2.88c-1.59 0-3.05-.71-4.03-1.87-1.78.45-3.09 2.06-3.09 3.97v3.78c0 1.83 1.25 3.43 3.03 3.88z" fill="#fcd770"/></g><g><path d="m32 39.278v3.88c0 1.83-1.25 3.43-3.03 3.88l-.97.24v2c0 .55-.22 1.05-.59 1.41-.36.37-.86.59-1.41.59-1.1 0-2-.9-2-2v-2l-.97-.24c-1.78-.45-3.03-2.05-3.03-3.88v-3.78c0-1.91 1.31-3.52 3.09-3.97.98 1.16 2.44 1.87 4.03 1.87h2.88c1.1 0 2 .9 2 2z" fill="#f0d0b4"/></g><g><path d="m57 43.278c-1.1 0-2.1.45-2.83 1.17-.5.51-.87 1.15-1.05 1.86l-.12-.03c0-10-4-13-4-13 .68 0 1.34.06 1.99.17 2.52.41 4.77 1.61 6.5 3.34 2.17 2.17 3.51 5.17 3.51 8.49v2c0-1.1-.45-2.1-1.17-2.83-.73-.72-1.73-1.17-2.83-1.17z" fill="#ed5565"/></g><g><path d="m46.99 33.448c.65-.11 1.32-.17 2.01-.17 0 0-4 3-4 13l.12.03c-.08.31-.12.64-.12.97 0-1.1-.45-2.1-1.17-2.83-.69-.68-1.63-1.13-2.67-1.16-.05-.01-.11-.01-.16-.01-1.1 0-2.1.45-2.83 1.17-.72.73-1.17 1.73-1.17 2.83v-2c0-3.64 1.62-6.9 4.17-9.09 1.62-1.4 3.61-2.37 5.82-2.74z" fill="#ed5565"/></g><g><path d="m53 46.278.12.03c-.08.31-.12.64-.12.97 0-1.1-.45-2.1-1.17-2.83-.73-.72-1.73-1.17-2.83-1.17s-2.1.45-2.83 1.17c-.5.51-.87 1.15-1.05 1.86l-.12-.03c0-10 4-13 4-13s4 3 4 13z" fill="#ed5565"/></g></g><g><path d="m51.939 32.626c-.067-1.205-.198-2.407-.435-3.585l-3.829-19.071-8.475-1.876c-2.755-.609-5.376-1.859-7.58-3.616l-5.62-4.478-5.621 4.478c-2.204 1.757-4.825 3.008-7.582 3.616l-8.472 1.876-3.829 19.068c-.329 1.636-.496 3.314-.496 4.986 0 8.063 3.897 15.723 10.425 20.491l6.641 4.85c2.608 1.905 5.698 2.913 8.934 2.913 3.237 0 6.326-1.008 8.934-2.913l6.642-4.85c1.768-1.291 3.366-2.813 4.75-4.523l-1.555-1.258c-1.275 1.575-2.747 2.977-4.375 4.166l-6.642 4.85c-2.263 1.654-4.944 2.528-7.754 2.528-2.809 0-5.491-.874-7.754-2.528l-6.641-4.85c-6.014-4.393-9.605-11.449-9.605-18.876 0-1.54.154-3.085.457-4.592l3.572-17.791 7.2-1.595c3.052-.675 5.956-2.06 8.396-4.005l4.375-3.484 4.374 3.485c2.441 1.945 5.344 3.33 8.394 4.005l7.203 1.595 3.573 17.794c.191.95.301 1.918.373 2.889-.304-.021-.607-.046-.916-.046-.367 0-.727.025-1.086.055-.067-.842-.166-1.681-.331-2.505l-3.316-16.517-5.93-1.313c-3.346-.739-6.53-2.259-9.208-4.393l-3.13-2.492-3.128 2.491c-2.678 2.136-5.863 3.654-9.21 4.394l-5.928 1.313-3.317 16.515c-.276 1.377-.417 2.789-.417 4.197 0 6.79 3.284 13.242 8.784 17.261l6.642 4.851c1.919 1.401 4.192 2.143 6.574 2.143s4.655-.741 6.575-2.144l6.641-4.849c.945-.69 1.838-1.464 2.655-2.299l-1.429-1.398c-.74.756-1.55 1.456-2.406 2.082l-3.696 2.698c-.321-.692-.748-1.316-1.265-1.857 2.527-1.109 4.387-2.34 4.48-2.402l.445-.297v-.535c0-1.654 1.346-3 3-3s3 1.346 3 3h2c0-1.302.839-2.402 2-2.816v13.816c0 .552-.449 1-1 1s-1-.448-1-1v-1h-2v1c0 1.654 1.346 3 3 3s3-1.346 3-3v-13.815c1.161.414 2 1.514 2 2.816h2c0-1.654 1.346-3 3-3s3 1.346 3 3h2v-2c0-6.157-4.306-11.316-10.061-12.653zm-22.707 15.844-.232-.039v-.371l.213-.054c2.23-.558 3.787-2.552 3.787-4.851v-3.877c0-1.654-1.346-3-3-3h-2.877c-1.968 0-3.675-1.333-4.153-3.242l-1.94.484c.128.511.333.981.572 1.429-1.573.887-2.602 2.554-2.602 4.43v3.776c0 2.299 1.557 4.293 3.788 4.852l.212.053v.371l-.232.039c-.703.117-1.368.339-1.981.647-1.98-.771-3.701-1.735-4.589-2.269l.459-1.377c.215-.644.364-1.314.444-1.992l.958-8.138c.473-4.026 3.887-7.063 7.941-7.063s7.468 3.036 7.941 7.063l.958 8.138c.08.678.229 1.349.444 1.992l.459 1.377c-.883.533-2.596 1.494-4.591 2.269-.612-.308-1.276-.53-1.979-.647zm-.504-2.405-1.728.432v2.781c0 .552-.449 1-1 1s-1-.448-1-1v-2.781l-1.728-.431c-1.337-.335-2.272-1.532-2.272-2.911v-3.776c0-1.237.729-2.333 1.825-2.827 1.135 1.071 2.647 1.726 4.298 1.726h2.877c.551 0 1 .448 1 1v3.877c0 1.379-.935 2.576-2.272 2.91zm-16.07-14.576c-1.023-.511-1.658-1.539-1.658-2.682v-6.367c0-.876.344-1.7.927-2.319.649.963 1.598 1.719 2.757 2.105l.586.196.642-.642c1.318 1.434 3.131 2.321 5.088 2.474v3.373c-2.649 1.534-4.548 4.249-4.928 7.479l-.102.863-.97-1.075v-2.234zm10.342-7.211h1c.551 0 1 .448 1 1s-.449 1-1 1h-1zm17.073-4.157c.583.62.927 1.444.927 2.319v6.366c0 1.144-.635 2.171-1.658 2.683l-2.342 1.171v2.204l-.985.985-.087-.743c-.38-3.23-2.279-5.945-4.928-7.479v-5.113c0-.761.322-1.463.871-1.951l1.932 1.932 2-1 .927.928.586-.196c1.159-.387 2.108-1.143 2.757-2.106zm-11.073 6.157h-1c-.551 0-1-.448-1-1s.449-1 1-1h1zm7.65 14.964-.337-2.862 2.074-2.075c.36.028.714.087 1.057.19-1.244 1.352-2.209 2.962-2.794 4.747zm4.431-6.25c-.656-.322-1.357-.539-2.081-.643v-.453l1.236-.618c1.705-.852 2.764-2.566 2.764-4.471v-.528h1c.414 0 .814-.09 1.181-.248l.44 2.193c.161.801.254 1.618.312 2.436-1.791.434-3.436 1.239-4.852 2.332zm1.919-10.714h1.428l.331 1.649c-.188.219-.463.351-.759.351h-1zm1.027-2h-1.038c-.049-1.628-.828-3.135-2.104-4.113.068-.341.115-.69.115-1.049v-.838h-2v.838c0 1.259-.692 2.393-1.771 2.977l-1.032-1.031-2 1-2-2-.645.322c-1.503.752-2.452 2.231-2.536 3.895h-1.016c-.162 0-.317.023-.472.048-.345-.745-.528-1.555-.528-2.382 0-3.125 2.542-5.667 5.667-5.667h6.667l.047.001 3.181.704zm-19.908-13.108 1.881-1.499 1.882 1.5c1.553 1.237 3.265 2.277 5.073 3.107h-.289c-2.856 0-5.348 1.573-6.667 3.895-1.319-2.322-3.81-3.895-6.667-3.895h-.287c1.81-.83 3.521-1.87 5.074-3.108zm-11.507 5.11 6.721-.002c3.125 0 5.667 2.542 5.667 5.667 0 .827-.183 1.637-.528 2.381-.155-.025-.31-.048-.472-.048h-1-1-.395c-1.922 0-3.707-.955-4.773-2.555l-.677-1.015-1.384 1.384c-1.079-.583-1.771-1.717-1.771-2.976v-.838h-2v.838c0 .359.047.707.115 1.05-1.276.978-2.054 2.485-2.104 4.113h-1.038l1.465-7.295zm-3.612 11.998h-1c-.298 0-.572-.133-.759-.351l.331-1.649h1.428zm-2.622 3.944.44-2.191c.367.157.766.247 1.182.247h1v.528c0 1.905 1.059 3.619 2.764 4.472l1.236.618v.453c-3.076.442-5.506 2.893-5.928 5.976-.696-2.008-1.072-4.134-1.072-6.301 0-1.276.127-2.555.378-3.802zm2.622 14.115v-3.058c0-2.617 2.029-4.748 4.593-4.959l2.067 2.29-.545 4.634c-.064.543-.184 1.079-.355 1.594l-.95 2.849.636.424c.093.062 1.953 1.292 4.479 2.402-.518.541-.944 1.165-1.265 1.857l-3.696-2.699c-2.002-1.463-3.673-3.285-4.964-5.334zm22.395 10.183c-1.575 1.15-3.44 1.759-5.395 1.759s-3.82-.607-5.395-1.758l-1.295-.946c.604-1.637 2.029-2.84 3.786-3.133l.132-.022c.45 1.089 1.522 1.858 2.771 1.858 1.25 0 2.321-.769 2.772-1.858l.132.022c1.758.293 3.183 1.496 3.786 3.132zm9.605-12.242c-1.036 0-1.99.328-2.789.869.849-4.304 4.214-7.712 8.495-8.625-1.032 1.659-2.208 4.47-2.579 8.886-.859-.695-1.938-1.13-3.127-1.13zm8 0c-1.062 0-2.043.338-2.853.904.474-4.834 1.993-7.375 2.853-8.456.86 1.081 2.378 3.621 2.853 8.454-.81-.565-1.792-.902-2.853-.902zm8 0c-1.184 0-2.271.418-3.128 1.109-.373-4.397-1.544-7.2-2.573-8.857 4.273.913 7.637 4.306 8.491 8.601-.798-.538-1.758-.853-2.79-.853z"/><path d="m28 41.042c-.381.763-1.147 1.236-2 1.236s-1.619-.474-2-1.236l-.105-.211-1.789.895.105.211c.722 1.444 2.174 2.342 3.789 2.342s3.067-.897 3.789-2.342l.105-.211-1.789-.895z"/></g></g></svg>