<svg id="Capa_1" enable-background="new 0 0 511.999 511.999" height="512" viewBox="0 0 511.999 511.999" width="512" xmlns="http://www.w3.org/2000/svg"><g><g clip-rule="evenodd" fill-rule="evenodd"><path d="m468.09 219.545c20.125 0 36.426 16.328 36.426 36.426 0 20.126-16.301 36.426-36.426 36.426-20.127 0-36.426-16.3-36.426-36.426 0-20.097 16.299-36.426 36.426-36.426zm-212.091 212.091c20.127 0 36.426 16.3 36.426 36.426 0 20.098-16.299 36.425-36.426 36.425-20.099 0-36.426-16.328-36.426-36.425 0-20.126 16.327-36.426 36.426-36.426zm-212.091-212.091c20.127 0 36.426 16.328 36.426 36.426 0 20.126-16.299 36.426-36.426 36.426-20.097 0-36.397-16.3-36.397-36.426 0-20.097 16.301-36.426 36.397-36.426zm217.194-212.005c20.098 0 36.396 16.299 36.396 36.397 0 20.126-16.299 36.425-36.396 36.425-20.126 0-36.426-16.299-36.426-36.425 0-20.098 16.3-36.397 36.426-36.397z" fill="#ffe07d"/><path d="m468.09 219.545c20.125 0 36.426 16.328 36.426 36.426 0 20.126-16.301 36.426-36.426 36.426-4.253 0-8.333-.737-12.133-2.069 14.145-5.018 24.293-18.482 24.293-34.356 0-15.846-10.148-29.338-24.293-34.328 3.8-1.361 7.88-2.099 12.133-2.099zm-212.091 212.091c20.127 0 36.426 16.3 36.426 36.426 0 20.098-16.299 36.425-36.426 36.425-4.253 0-8.334-.737-12.133-2.098 14.145-4.989 24.295-18.482 24.295-34.328 0-15.874-10.149-29.339-24.295-34.357 3.799-1.331 7.88-2.068 12.133-2.068zm-212.091-212.091c20.127 0 36.426 16.328 36.426 36.426 0 20.126-16.299 36.426-36.426 36.426-4.251 0-8.334-.737-12.132-2.069 14.145-5.018 24.293-18.482 24.293-34.356 0-15.846-10.148-29.338-24.293-34.328 3.798-1.361 7.881-2.099 12.132-2.099zm217.194-212.005c20.098 0 36.396 16.299 36.396 36.397 0 20.126-16.299 36.425-36.396 36.425-4.28 0-8.362-.736-12.161-2.068 14.174-4.989 24.293-18.483 24.293-34.357 0-15.846-10.119-29.338-24.293-34.328 3.798-1.332 7.88-2.069 12.161-2.069z" fill="#ffd064"/><path d="m186.124 161.86h139.75l24.265 22.167v158.345c0 4.28-3.487 7.767-7.767 7.767h-172.746c-4.252 0-7.767-3.487-7.767-7.767v-158.345z" fill="#bfe2ff"/><path d="m301.609 161.86h24.265l24.265 22.167v158.345c0 4.28-3.487 7.767-7.767 7.767h-24.265c4.279 0 7.767-3.487 7.767-7.767v-158.345z" fill="#96d0ff"/><path d="m208.942 161.86v44.306c0 12.955-10.601 23.528-23.527 23.528-12.954 0-23.556-10.573-23.556-23.528v-36.539c0-5.301 2.948-7.767 7.767-7.767zm94.141 0v44.306c0 12.955-10.602 23.528-23.557 23.528-12.926 0-23.527-10.573-23.527-23.528v-44.306z" fill="#f37c7c"/><path d="m208.942 161.86v44.306c0 12.955-10.601 23.528-23.527 23.528-4.45 0-8.589-1.219-12.16-3.374 6.831-4.139 11.424-11.65 11.424-20.155v-44.305zm94.141 0v44.306c0 12.955-10.602 23.528-23.557 23.528-4.422 0-8.561-1.219-12.132-3.374 6.831-4.139 11.424-11.65 11.424-20.155v-44.305z" fill="#eb5468"/><path d="m255.999 161.86v44.306c0 12.955-10.573 23.528-23.527 23.528-12.955 0-23.529-10.573-23.529-23.528v-44.306zm94.14 7.767v36.539c0 12.955-10.573 23.528-23.527 23.528-12.955 0-23.528-10.573-23.528-23.528v-44.306h39.289c5.101 0 7.766 1.842 7.766 7.767z" fill="#22a6fe"/><path d="m255.999 161.86v44.306c0 12.955-10.573 23.528-23.527 23.528-4.424 0-8.589-1.219-12.134-3.374 6.804-4.139 11.396-11.65 11.396-20.155v-44.305zm94.14 7.767v36.539c0 12.955-10.573 23.528-23.527 23.528-4.424 0-8.589-1.219-12.134-3.374 6.804-4.139 11.396-11.65 11.396-20.155v-36.539c0-5.925-2.664-7.767-7.767-7.767h24.265c5.102.001 7.767 1.843 7.767 7.768z" fill="#0593fc"/></g><path d="m448.643 325.109c1.39-3.884 5.669-5.897 9.554-4.508 3.883 1.39 5.895 5.67 4.506 9.553-10.828 30.105-28.006 57.175-49.946 79.542-18.737 19.105-40.96 34.81-65.594 46.091l10.346 4.393c3.799 1.588 5.585 5.982 3.997 9.78-1.616 3.798-5.98 5.585-9.78 3.968l-26.957-11.424c-3.799-1.587-5.584-5.98-3.997-9.779l11.424-26.929c1.616-3.827 5.981-5.585 9.808-3.997 3.799 1.615 5.584 5.981 3.969 9.78l-4.337 10.261c22.706-10.488 43.172-25.001 60.464-42.633 20.464-20.863 36.48-46.063 46.543-74.098zm-105.988-92.382c-4.705 2.835-10.177 4.479-16.044 4.479-9.1 0-17.632-3.969-23.528-10.857-5.925 6.888-14.457 10.857-23.557 10.857-9.07 0-17.603-3.969-23.527-10.857-5.895 6.888-14.456 10.857-23.527 10.857s-17.632-3.969-23.529-10.857c-5.924 6.888-14.456 10.857-23.527 10.857-5.867 0-11.366-1.644-16.044-4.479v64.036c0 4.139-3.373 7.483-7.512 7.483s-7.483-3.345-7.483-7.483v-134.903c0-4.138 3.345-7.484 7.483-7.484h188.279c4.139 0 7.512 3.346 7.512 7.484v87.138c0 4.139-3.373 7.512-7.512 7.512s-7.483-3.373-7.483-7.512v-16.271zm-32.088-26.562c0 4.394 1.812 8.42 4.733 11.311 2.892 2.92 6.916 4.734 11.31 4.734s8.419-1.814 11.31-4.734c2.92-2.891 4.734-6.917 4.734-11.311v-36.793h-32.088v36.793zm-14.997 0v-36.793h-32.06v36.793c0 4.394 1.814 8.42 4.707 11.311 2.918 2.92 6.915 4.734 11.309 4.734 4.424 0 8.419-1.814 11.339-4.734 2.893-2.891 4.705-6.917 4.705-11.311zm-47.054 0v-36.793h-32.088v36.793c0 4.394 1.812 8.42 4.733 11.311 2.892 2.92 6.916 4.734 11.311 4.734 4.394 0 8.419-1.814 11.309-4.734 2.92-2.891 4.735-6.917 4.735-11.311zm-47.085 0v-36.793h-32.06v36.793c0 4.394 1.814 8.42 4.706 11.311 2.92 2.92 6.916 4.734 11.338 4.734 4.396 0 8.391-1.814 11.311-4.734 2.892-2.891 4.705-6.917 4.705-11.311zm141.224 76.821c0-4.139 3.345-7.512 7.483-7.512 4.139 0 7.512 3.373 7.512 7.512v67.153c0 4.138-3.373 7.512-7.512 7.512h-188.279c-4.139 0-7.483-3.374-7.483-7.512v-19.417c0-4.139 3.345-7.484 7.483-7.484 4.139 0 7.512 3.345 7.512 7.484v11.905h173.284zm125.435-70.924c12.132 0 23.103 4.904 31.068 12.869 7.936 7.938 12.841 18.908 12.841 31.04s-4.904 23.102-12.841 31.068c-7.966 7.937-18.936 12.841-31.068 12.841-12.133 0-23.104-4.904-31.04-12.841-7.966-7.966-12.869-18.936-12.869-31.068s4.903-23.103 12.869-31.04c7.936-7.965 18.907-12.869 31.04-12.869zm20.438 23.471c-5.216-5.245-12.444-8.476-20.438-8.476s-15.223 3.231-20.439 8.476c-5.243 5.215-8.475 12.444-8.475 20.438s3.232 15.223 8.475 20.438c5.216 5.245 12.444 8.476 20.439 8.476 7.994 0 15.223-3.231 20.438-8.476 5.244-5.215 8.475-12.444 8.475-20.438s-3.231-15.222-8.475-20.438zm-232.529 188.619c12.133 0 23.103 4.904 31.067 12.841 7.939 7.965 12.87 18.936 12.87 31.068s-4.932 23.102-12.87 31.04c-7.965 7.965-18.935 12.869-31.067 12.869-12.133 0-23.102-4.904-31.039-12.869-7.967-7.937-12.871-18.908-12.871-31.04 0-12.133 4.904-23.103 12.871-31.068 7.936-7.936 18.906-12.841 31.039-12.841zm20.467 23.472c-5.245-5.245-12.474-8.476-20.467-8.476s-15.222 3.232-20.438 8.476c-5.243 5.216-8.476 12.444-8.476 20.438 0 7.993 3.232 15.222 8.476 20.438 5.217 5.244 12.445 8.476 20.438 8.476s15.222-3.232 20.467-8.476c5.215-5.215 8.447-12.444 8.447-20.438s-3.232-15.222-8.447-20.438zm-232.558-235.562c12.133 0 23.131 4.904 31.068 12.869 7.938 7.938 12.869 18.908 12.869 31.04s-4.932 23.102-12.869 31.068c-7.938 7.937-18.936 12.841-31.068 12.841-12.103 0-23.103-4.904-31.04-12.841-7.936-7.965-12.868-18.936-12.868-31.068s4.932-23.103 12.868-31.04c7.938-7.965 18.937-12.869 31.04-12.869zm20.467 23.471c-5.244-5.245-12.473-8.476-20.467-8.476-7.966 0-15.194 3.231-20.438 8.476-5.244 5.215-8.475 12.444-8.475 20.438s3.23 15.223 8.475 20.438c5.244 5.245 12.473 8.476 20.438 8.476 7.994 0 15.223-3.231 20.467-8.476 5.215-5.215 8.476-12.444 8.476-20.438s-3.261-15.222-8.476-20.438zm196.727-235.505c12.104 0 23.104 4.932 31.04 12.869 7.938 7.937 12.868 18.936 12.868 31.04 0 12.133-4.931 23.131-12.868 31.068-7.936 7.937-18.936 12.87-31.04 12.87-12.133 0-23.131-4.933-31.068-12.87s-12.87-18.936-12.87-31.068c0-12.104 4.934-23.103 12.87-31.04 7.937-7.937 18.935-12.869 31.068-12.869zm20.437 23.472c-5.243-5.244-12.472-8.476-20.438-8.476-7.994 0-15.223 3.231-20.467 8.476-5.216 5.244-8.475 12.473-8.475 20.438 0 7.994 3.259 15.222 8.475 20.466 5.244 5.216 12.473 8.476 20.467 8.476 7.966 0 15.194-3.26 20.438-8.476 5.216-5.244 8.476-12.472 8.476-20.466 0-7.966-3.26-15.195-8.476-20.438zm-122.23 26.617c-3.799-1.587-5.585-5.981-3.997-9.779 1.614-3.799 5.981-5.584 9.778-3.997l26.958 11.424c3.799 1.616 5.586 5.982 3.998 9.78l-11.424 26.958c-1.616 3.798-5.981 5.584-9.808 3.996-3.798-1.615-5.584-5.98-3.969-9.808l4.593-10.857c-23.726 10.177-45.157 24.719-63.27 42.634-21.544 21.288-38.354 47.311-48.785 76.366-1.39 3.884-5.669 5.897-9.554 4.508-3.882-1.39-5.923-5.67-4.506-9.553 11.196-31.21 29.252-59.16 52.356-81.979 19.305-19.078 42.152-34.611 67.466-45.525zm300.843 104.316c1.587-3.798 5.981-5.584 9.779-3.968 3.8 1.587 5.585 5.982 3.97 9.78l-11.34 26.958c-1.616 3.798-6.009 5.585-9.808 3.997l-26.957-11.367c-3.799-1.588-5.585-5.981-3.998-9.78 1.616-3.798 5.982-5.584 9.78-3.996l10.318 4.337c-10.063-21.799-23.84-41.557-40.537-58.395-20.125-20.325-44.476-36.454-71.631-46.942-3.827-1.474-5.755-5.811-4.281-9.667 1.503-3.855 5.84-5.754 9.695-4.28 29.112 11.283 55.248 28.545 76.819 50.344 18.086 18.255 32.996 39.657 43.824 63.327zm-408.278 203.077c-1.615 3.798-5.982 5.584-9.779 3.996-3.828-1.616-5.585-5.981-3.998-9.808l11.368-26.958c1.588-3.798 5.981-5.584 9.779-3.997l26.986 11.367c3.798 1.616 5.584 5.982 3.969 9.78-1.588 3.827-5.981 5.585-9.78 3.997l-10.291-4.337c10.319 22.422 24.607 42.662 41.927 59.812 21.004 20.778 46.46 37.049 74.807 47.226 3.885 1.417 5.896 5.669 4.507 9.552-1.388 3.884-5.669 5.925-9.552 4.536-30.445-10.942-57.801-28.404-80.308-50.712-18.737-18.568-34.157-40.48-45.298-64.801z"/></g></svg>