<svg enable-background="new 0 0 36 60" height="512" viewBox="0 0 36 60" width="512" xmlns="http://www.w3.org/2000/svg"><path d="m32.998 1h-29.996c-1.106 0-2.002.896-2.002 2.002v47.998h34v-47.998c0-1.106-.896-2.002-2.002-2.002z" fill="#ebba16"/><path d="m32.544 59h-29.088c-1.357 0-2.456-1.099-2.456-2.456v-9.544h34v9.544c0 1.357-1.099 2.456-2.456 2.456z" fill="#eaeff0"/><circle cx="18" cy="53" fill="#b8bec3" r="3"/><path d="m20 14-13 5-2 14 11 9 13-5 2-14z" fill="#dc691d"/><g fill="#4d007e"><path d="m16 43c-.228 0-.452-.077-.634-.226l-11-9c-.271-.222-.406-.569-.357-.916l2-14c.051-.358.293-.662.631-.792l13-5c.336-.13.714-.068.992.159l11 9c.271.222.406.569.357.916l-2 14c-.051.358-.293.662-.631.792l-13 5c-.115.046-.237.067-.358.067zm-9.93-10.417 10.114 8.275 11.91-4.581 1.837-12.86-10.114-8.275-11.91 4.581z"/><path d="m10.001 32c-.367 0-.72-.202-.895-.553-.247-.494-.047-1.095.447-1.342l7.521-3.761.934-7.469c.069-.548.569-.928 1.116-.868.548.068.937.568.868 1.116l-1 8c-.041.332-.246.621-.545.771l-8 4c-.143.072-.296.106-.446.106z"/><path d="m25 34c-.23 0-.462-.079-.65-.241l-7-6c-.419-.359-.468-.99-.108-1.409.359-.421.991-.469 1.41-.108l7 6c.419.359.468.99.108 1.409-.198.231-.479.349-.76.349z"/><path d="m21 6h-6c-.552 0-1-.447-1-1s.448-1 1-1h6c.552 0 1 .447 1 1s-.448 1-1 1z"/><path d="m33.004 60h-30.008c-1.652 0-2.996-1.344-2.996-2.996v-10.004c0-.553.448-1 1-1h34c.552 0 1 .447 1 1v10.004c0 1.652-1.344 2.996-2.996 2.996zm-31.004-12v9.004c0 .549.447.996.996.996h30.008c.549 0 .996-.447.996-.996v-9.004z"/><path d="m18 57c-2.206 0-4-1.794-4-4s1.794-4 4-4 4 1.794 4 4-1.794 4-4 4zm0-6c-1.103 0-2 .897-2 2s.897 2 2 2 2-.897 2-2-.897-2-2-2z"/><path d="m33.004 60h-30.008c-1.652 0-2.996-1.344-2.996-2.996v-54.002c0-1.655 1.346-3.002 3.001-3.002h29.997c1.655 0 3.002 1.347 3.002 3.002v54.002c0 1.652-1.344 2.996-2.996 2.996zm-30.003-58c-.552 0-1.001.449-1.001 1.002v54.002c0 .549.447.996.996.996h30.008c.549 0 .996-.447.996-.996v-54.002c0-.553-.449-1.002-1.002-1.002z"/></g></svg>