<svg height="512" viewBox="0 0 512 512" width="512" xmlns="http://www.w3.org/2000/svg"><g id="FilledOutline"><path d="m192 256h224v160h-224z" fill="#ef5249"/><path d="m96 96h232v160h-232z" fill="#88bf40"/><path d="m96 256h58.845a32 32 0 1 1 42.31 0h58.845v58.845a32 32 0 1 0 0 42.31v58.845h-160z" fill="#0093ba"/><path d="m256 96v58.845a32 32 0 1 1 0 42.31v58.845h58.845a32 32 0 1 0 42.31 0h58.845v-160z" fill="#ffc119"/><path d="m336 400.971 17.177 15.029h62.823v-35.565a45.192 45.192 0 0 0 -40 12.536l-36-36a16.971 16.971 0 0 0 -24 24z" fill="#e8493f"/><path d="m111.029 336-15.029 17.177v62.823h35.565a45.192 45.192 0 0 0 -12.536-40l36-36a16.971 16.971 0 0 0 -24-24z" fill="#047fa7"/><path d="m176 111.029-17.177-15.029h-62.823v35.565a45.192 45.192 0 0 0 40-12.536l36 36a16.971 16.971 0 0 0 24-24z" fill="#7ca540"/><path d="m400.971 176 15.029-17.177v-62.823h-35.565a45.192 45.192 0 0 0 12.536 40l-36 36a16.971 16.971 0 0 0 24 24z" fill="#faac2b"/><g fill="#f5be9a"><path d="m24 416 16-16v-72a24 24 0 0 1 24-24h32v32l20-20a16.971 16.971 0 0 1 24 0 16.971 16.971 0 0 1 0 24l-36 36a45.255 45.255 0 0 1 0 64l-40 40z"/><path d="m96 24 16 16h72a24 24 0 0 1 24 24v32h-32l20 20a16.971 16.971 0 0 1 0 24 16.971 16.971 0 0 1 -24 0l-36-36a45.255 45.255 0 0 1 -64 0l-40-40z"/><path d="m488 96-16 16v72a24 24 0 0 1 -24 24h-32v-32l-20 20a16.971 16.971 0 0 1 -24 0 16.971 16.971 0 0 1 0-24l36-36a45.255 45.255 0 0 1 0-64l40-40z"/><path d="m416 488-16-16h-72a24 24 0 0 1 -24-24v-32h32l-20-20a16.971 16.971 0 0 1 0-24 16.971 16.971 0 0 1 24 0l36 36a45.255 45.255 0 0 1 64 0l40 40z"/></g><path d="m408 386.745a52.861 52.861 0 0 0 -31.581 10.36l-30.762-30.762a24.971 24.971 0 0 0 -35.314 35.314l6.343 6.343h-52.686v-50.845a8 8 0 0 0 -14-5.292 24 24 0 1 1 0-31.726 8 8 0 0 0 14-5.292v-50.845h35.347a40 40 0 1 0 73.306 0h35.347v104h16v-152h24a32.036 32.036 0 0 0 32-32v-68.686l13.657-13.657-11.314-11.314-16 16a8 8 0 0 0 -2.343 5.657v72a16.019 16.019 0 0 1 -16 16h-24v-20.686l13.657-13.657-11.314-11.314-36 36a8.97 8.97 0 0 1 -12.686-12.686l36-36a8 8 0 0 0 0-11.314 37.3 37.3 0 0 1 0-52.686l40-40-11.314-11.314-40 40a53.343 53.343 0 0 0 -5.233 69.233l-30.767 30.767a24.971 24.971 0 1 0 35.314 35.314l6.343-6.343v52.686h-50.846a8 8 0 0 0 -5.292 14 24 24 0 1 1 -31.724 0 8 8 0 0 0 -5.292-14h-50.846v-35.346a40 40 0 1 0 0-73.308v-35.346h104v-16h-152v-24a32.036 32.036 0 0 0 -32-32h-68.687l-13.656-13.657-11.314 11.314 16 16a8 8 0 0 0 5.657 2.343h72a16.019 16.019 0 0 1 16 16v24h-20.686l-13.657-13.657-11.314 11.314 36 36a8.97 8.97 0 1 1 -12.686 12.686l-36-36a8 8 0 0 0 -11.314 0 37.254 37.254 0 0 1 -52.686 0l-40-40-11.314 11.314 40 40a53.282 53.282 0 0 0 69.238 5.238l30.762 30.762a24.971 24.971 0 0 0 35.314-35.314l-6.343-6.343h52.686v50.845a8 8 0 0 0 14 5.292 24 24 0 1 1 0 31.726 8 8 0 0 0 -14 5.292v50.845h-35.347a40 40 0 1 0 -73.306 0h-35.347v-104h-16v152h-24a32.036 32.036 0 0 0 -32 32v68.686l-13.657 13.657 11.314 11.314 16-16a8 8 0 0 0 2.343-5.657v-72a16.019 16.019 0 0 1 16-16h24v20.686l-13.657 13.657 11.314 11.314 36-36a8.97 8.97 0 1 1 12.686 12.686l-36 36a8 8 0 0 0 0 11.314 37.3 37.3 0 0 1 0 52.686l-40 40 11.314 11.314 40-40a53.343 53.343 0 0 0 5.233-69.233l30.767-30.767a24.971 24.971 0 1 0 -35.314-35.314l-6.343 6.343v-52.686h50.846a8 8 0 0 0 5.292-14 24 24 0 1 1 31.724 0 8 8 0 0 0 5.292 14h50.846v35.346a40 40 0 1 0 0 73.308v35.346h-104v16h152v24a32.036 32.036 0 0 0 32 32h68.687l13.656 13.657 11.314-11.314-16-16a8 8 0 0 0 -5.657-2.343h-72a16.019 16.019 0 0 1 -16-16v-24h20.686l13.657 13.657 11.314-11.314-36-36a8.97 8.97 0 1 1 12.686-12.686l36 36a8 8 0 0 0 11.314 0 37.254 37.254 0 0 1 52.686 0l40 40 11.314-11.314-40-40a52.908 52.908 0 0 0 -37.657-15.598z"/></g></svg>