<svg id="Layer_5" enable-background="new 0 0 64 64" height="512" viewBox="0 0 64 64" width="512" xmlns="http://www.w3.org/2000/svg"><path d="m40 50 2 8h-20l2-8z" fill="#aab2bd"/><path d="m49 60v2h-34v-2c0-1.1.9-2 2-2h5 20 5c1.1 0 2 .9 2 2z" fill="#aab2bd"/><path d="m58 50h-52c-2.209 0-4-1.791-4-4v-34c0-2.209 1.791-4 4-4h52c2.209 0 4 1.791 4 4v34c0 2.209-1.791 4-4 4z" fill="#ccd1d9"/><path d="m57 42h-50c-.552 0-1-.448-1-1v-28c0-.552.448-1 1-1h50c.552 0 1 .448 1 1v28c0 .552-.448 1-1 1z" fill="#69d6f4"/><g fill="#ff826e"><circle cx="12" cy="22" r="2"/><circle cx="20" cy="22" r="2"/><circle cx="28" cy="22" r="2"/></g><path d="m40 39v3h-6c0-4.42-3.58-8-8-8s-8 3.58-8 8h-6v-3l2.56-.63c.21-.66.48-1.28.79-1.88l-1.37-2.27 4.24-4.24 2.27 1.37c.6-.31 1.22-.58 1.88-.79l.63-2.56h6l.63 2.56c.66.21 1.28.48 1.88.79l2.27-1.37 4.24 4.24-1.37 2.27c.31.6.58 1.22.79 1.88z" fill="#fcd770"/><path d="m59.99 9.5c-1.32-2.28-3.21-4.17-5.49-5.49-2.2-1.28-4.77-2.01-7.5-2.01s-5.3.73-7.5 2.01c-1.76 1.02-3.28 2.38-4.5 3.99-.35.48-.69.98-.99 1.5-.46.79-.85 1.63-1.15 2.5-.56 1.57-.86 3.25-.86 5h2 2c0-2 .53-3.88 1.47-5.5.96-1.67 2.36-3.07 4.03-4.03 1.62-.94 3.5-1.47 5.5-1.47s3.88.53 5.5 1.47c1.67.96 3.07 2.36 4.03 4.03.94 1.62 1.47 3.5 1.47 5.5h2 2c0-2.73-.73-5.3-2.01-7.5z" fill="#ff826e"/><path d="m36 17c0-2 .53-3.88 1.47-5.5.96-1.67 2.36-3.07 4.03-4.03 1.62-.94 3.5-1.47 5.5-1.47s3.88.53 5.5 1.47c1.67.96 3.07 2.36 4.03 4.03.94 1.62 1.47 3.5 1.47 5.5h2c0 2.55-.74 4.93-2.01 6.93-2.29 3.65-6.36 6.07-10.99 6.07-7.18 0-13-5.82-13-13z" fill="#e6e9ed"/><circle cx="47" cy="22" fill="#fcd770" r="2"/><path d="m35 45h2v2h-2z"/><path d="m31 45h2v2h-2z"/><path d="m27 45h2v2h-2z"/><path d="m47 1c-5.039 0-9.535 2.347-12.47 6h-28.53c-2.757 0-5 2.243-5 5v34c0 2.757 2.243 5 5 5h16.72l-1.5 6h-4.22c-1.654 0-3 1.346-3 3v3h36v-3c0-1.654-1.346-3-3-3h-4.22l-1.5-6h16.72c2.757 0 5-2.243 5-5v-28-1c0-8.822-7.178-16-16-16zm-12.059 40c-.499-4.493-4.316-8-8.941-8s-8.442 3.507-8.941 8h-4.059v-1.216l2.345-.577.17-.534c.182-.573.425-1.154.723-1.727l.259-.498-1.255-2.074 3.133-3.133 2.074 1.255.498-.259c.573-.298 1.154-.541 1.725-.722l.536-.169.576-2.346h4.432l.577 2.347.536.169c.57.181 1.151.424 1.725.722l.498.259 2.074-1.255 3.133 3.133-1.255 2.074.259.498c.298.573.541 1.154.722 1.725l.169.536 2.346.576v1.216zm-2.021 0h-13.84c.488-3.386 3.401-6 6.92-6s6.432 2.614 6.92 6zm5.286-3.471c-.123-.332-.262-.664-.416-.995l1.492-2.465-5.352-5.352-2.465 1.492c-.331-.154-.663-.293-.995-.416l-.686-2.793h-7.568l-.687 2.794c-.332.123-.664.262-.995.416l-2.465-1.492-5.352 5.352 1.492 2.465c-.154.33-.293.663-.416.995l-2.793.686v2.784h-4v-28h24.527c-.332 1.281-.527 2.617-.527 4v1h2.051c.516 7.253 6.567 13 13.949 13 3.916 0 7.457-1.621 10-4.221v14.221h-16v-2.784zm-3.797-26.644 1.743 1.006c-.599 1.266-.989 2.649-1.11 4.109h-2.006c.128-1.823.609-3.55 1.373-5.115zm12.591 18.115c-6.28 0-11.438-4.85-11.949-11h1.949v-1c0-5.514 4.486-10 10-10s10 4.486 10 10v1h1.949c-.511 6.15-5.669 11-11.949 11zm1-23.952v-2c1.821.13 3.546.606 5.11 1.369l-1.003 1.737c-1.266-.598-2.648-.985-4.107-1.106zm-2 0c-1.459.121-2.841.508-4.107 1.106l-1.003-1.736c1.564-.763 3.288-1.239 5.11-1.369zm12.959 10.952c-.121-1.46-.512-2.843-1.11-4.109l1.743-1.006c.763 1.565 1.244 3.292 1.373 5.115zm-.382-6.839-1.734 1.001c-.816-1.171-1.834-2.188-3.005-3.004l1.003-1.737c1.47.999 2.737 2.27 3.736 3.74zm-19.417-3.74 1.003 1.737c-1.171.816-2.189 1.833-3.005 3.004l-1.734-1.001c.998-1.47 2.265-2.741 3.736-3.74zm8.84 54.579v1h-32v-1c0-.552.448-1 1-1h30c.552 0 1 .448 1 1zm-7.28-3h-17.44l1.5-6h14.44zm20.28-11c0 1.654-1.346 3-3 3h-52c-1.654 0-3-1.346-3-3v-34c0-1.654 1.346-3 3-3h27.165c-.372.641-.705 1.307-.987 2h-25.178c-1.103 0-2 .897-2 2v28c0 1.103.897 2 2 2h50c1.103 0 2-.897 2-2v-16.826c1.099-1.831 1.789-3.928 1.949-6.174h.051z"/><path d="m48 19.184v-10.184h-2v10.184c-1.161.414-2 1.514-2 2.816s.839 2.402 2 2.816v2.184h2v-2.184c1.161-.414 2-1.514 2-2.816s-.839-2.402-2-2.816zm-1 3.816c-.552 0-1-.448-1-1s.448-1 1-1 1 .448 1 1-.448 1-1 1z"/><path d="m12 19c-1.654 0-3 1.346-3 3s1.346 3 3 3 3-1.346 3-3-1.346-3-3-3zm0 4c-.552 0-1-.448-1-1s.448-1 1-1 1 .448 1 1-.448 1-1 1z"/><path d="m20 19c-1.654 0-3 1.346-3 3s1.346 3 3 3 3-1.346 3-3-1.346-3-3-3zm0 4c-.552 0-1-.448-1-1s.448-1 1-1 1 .448 1 1-.448 1-1 1z"/><path d="m28 19c-1.654 0-3 1.346-3 3s1.346 3 3 3 3-1.346 3-3-1.346-3-3-3zm0 4c-.552 0-1-.448-1-1s.448-1 1-1 1 .448 1 1-.448 1-1 1z"/><path d="m53 37h2v2h-2z"/><path d="m43 37h8v2h-8z"/><path d="m43 33h12v2h-12z"/><path d="m52.096 13.831c.284.455.505.944.655 1.453l1.918-.568c-.202-.681-.497-1.335-.876-1.943z"/><path d="m50.429 9.771-.857 1.807c.516.245.994.563 1.422.945l1.332-1.492c-.57-.51-1.209-.933-1.897-1.26z"/><path d="m9 15h2v2h-2z"/><path d="m13 15h2v2h-2z"/><path d="m17 15h2v2h-2z"/></svg>