<svg id="_x33_0" enable-background="new 0 0 64 64" height="512" viewBox="0 0 64 64" width="512" xmlns="http://www.w3.org/2000/svg"><g><g><g><path d="m27.35 54.59 1.65 7.41h-11l4-8 3.91.43z" fill="#ff826e"/></g><g><path d="m40 56 2 6h-13l-1.65-7.41 2.63.3z" fill="#fc6e51"/></g><g><path d="m19.25 49.42 2.75 4.58-4 8h-.69c-3.12 0-5.95-1.27-7.99-3.32-2.05-2.04-3.32-4.87-3.32-7.99 0-3 1.19-5.88 3.31-8l.69-.69c3.87 1.29 7.15 3.92 9.25 7.42z" fill="#fc6e51"/></g><g><path d="m25.23 50.12c.03.12.05.24.07.36l.61 3.95-3.91-.43-2.75-4.58c-2.1-3.5-5.38-6.13-9.25-7.42h5.42c1.64 0 3.2.4 4.58 1.11 2.66 1.37 4.65 3.91 5.23 7.01z" fill="#ff826e"/></g><g><path d="m18.62 38h1.38v.23 4.88c-1.38-.71-2.94-1.11-4.58-1.11h-5.42v-8c0-.73.2-1.43.55-2.02.69-1.19 1.98-1.98 3.45-1.98h.2l.44 4.4c.2 2.04 1.92 3.6 3.98 3.6z" fill="#e6e9ed"/></g><g><path d="m14 28 .2 2h-.2c-1.47 0-2.76.79-3.45 1.98l-2.58-1.8c-3.74-2.62-5.97-6.9-5.97-11.47v-8.71l12.05 4.02c-.03.27-.05.54-.05.81v1.17c-3.31 0-6 2.69-6 6s2.69 6 6 6z" fill="#b27946"/></g><g><path d="m15.02 11.24-.01.01c-.51.84-.84 1.78-.96 2.77l-12.05-4.02c0-4.42 3.58-8 8-8h14c1.66 0 3.16.67 4.24 1.76.37.37.7.79 1.66 3.18l.1 1.06c0 1.4-.72 2.64-1.82 3.35-.63.41-1.37.65-2.18.65h-9c-.76 0-1.45-.29-1.98-.76z" fill="#b27946"/></g><g><path d="m28.49 13.65.58 4.35.27 2.01.66 4.99-2 1v6h-8.13c-.5 0-.92-.37-.99-.86l-.69-4.84-.01-.01c1.12-1.08 1.82-2.61 1.82-4.29 0-3.31-2.69-6-6-6v-1.17c0-.27.02-.54.05-.81.12-.99.45-1.93.96-2.77l.01-.01c.53.47 1.22.76 1.98.76h9c.81 0 1.55-.24 2.18-.65z" fill="#e6e9ed"/></g><g><path d="m42 54.66.45-.3c.36-.23.78-.36 1.21-.36.82 0 1.57.46 1.94 1.2l.4.8h5c.55 0 1 .45 1 1v1c0 2.21-1.79 4-4 4h-6l-2-6z" fill="#e6e9ed"/></g><g><path d="m62 25v10c0 .55-.45 1-1 1h-1.08c-1.57 0-2.98.95-3.58 2.39l-.02.05c-.6 1.45-.27 3.12.84 4.23l.76.77c.39.39.39 1.02 0 1.41l-7.07 7.07c-.39.39-1.02.39-1.41 0l-.77-.77c-1.11-1.11-2.77-1.44-4.22-.84l-.06.03c-1.45.6-2.39 2.01-2.39 3.57v.75l-2 1.34-10.02-1.11.02-.22v-.76c0-1.56-.94-2.97-2.39-3.57l-.06-.03c-.75-.31-1.57-.37-2.32-.19-.58-3.1-2.57-5.64-5.23-7.01v-4.88c2.08 4.05 5.65 7.21 10 8.74 1.88.67 3.9 1.03 6 1.03s4.12-.36 6-1.03c6.99-2.47 12-9.13 12-16.97 0-9.94-8.06-18-18-18-2.68 0-5.23.59-7.51 1.65l-.31-2.3c1.1-.71 1.82-1.95 1.82-3.35l-.1-1.06h.01c.06-.28.09-.56.09-.85v-1.09c0-.55.45-1 1-1h10c.55 0 1 .45 1 1v1.08c0 1.57.95 2.98 2.39 3.58l.05.02c1.45.6 3.12.27 4.23-.84l.77-.76c.39-.39 1.02-.39 1.41 0l7.07 7.07c.39.39.39 1.02 0 1.41l-.77.77c-1.11 1.11-1.44 2.77-.84 4.22l.03.06c.6 1.45 2.01 2.39 3.57 2.39h1.09c.55 0 1 .45 1 1z" fill="#fcd770"/></g><g><path d="m42.61 40c-.2.13-.4.26-.61.38v3.62h-12v-3.62c-.2-.12-.4-.24-.6-.38h4.6 4z" fill="#ccd1d9"/></g><g><path d="m42 44v2.97c-1.88.67-3.9 1.03-6 1.03s-4.12-.36-6-1.03v-2.97z" fill="#ccd1d9"/></g><g><path d="m35.53 18.01c-2.24.08-4.33.81-6.1 1.99l-.09.01.66 4.99-2 1v6h1c.55 0 1 .45 1 1v4c0 .55-.45 1-1 1h-1.93c.68.77 1.47 1.44 2.33 2h4.6 4 4.61c3.24-2.14 5.39-5.82 5.39-10 0-6.78-5.63-12.25-12.47-11.99z" fill="#ffeaa7"/></g><g><path d="m40 26c1.1 0 2 .9 2 2s-.9 2-2 2h-2v-2c0-1.1.9-2 2-2z" fill="#fcd770"/></g><g><path d="m34 28v2h-2c-1.1 0-2-.9-2-2s.9-2 2-2 2 .9 2 2z" fill="#fcd770"/></g><g><circle cx="12" cy="52" fill="#ffeaa7" r="2"/></g><g><path d="m30 33v4c0 .55-.45 1-1 1h-1.93-7.07-1.38c-2.06 0-3.78-1.56-3.98-3.6l-.44-4.4-.2-2c1.63 0 3.11-.65 4.18-1.71l.01.01.69 4.84c.07.49.49.86.99.86h8.13 1c.55 0 1 .45 1 1z" fill="#aab2bd"/></g><g><path d="m14 16c3.31 0 6 2.69 6 6 0 1.68-.7 3.21-1.82 4.29-1.07 1.06-2.55 1.71-4.18 1.71-3.31 0-6-2.69-6-6s2.69-6 6-6z" fill="#fcd770"/></g><g><circle cx="14" cy="22" fill="#ccd1d9" r="2"/></g></g><g><path d="m14 25c1.654 0 3-1.346 3-3s-1.346-3-3-3-3 1.346-3 3 1.346 3 3 3zm0-4c.551 0 1 .449 1 1s-.449 1-1 1-1-.449-1-1 .449-1 1-1z"/><path d="m12 49c-1.654 0-3 1.346-3 3s1.346 3 3 3 3-1.346 3-3-1.346-3-3-3zm0 4c-.551 0-1-.449-1-1s.449-1 1-1 1 .449 1 1-.449 1-1 1z"/><path d="m23 57h2v2h-2z"/><circle cx="36" cy="8" r="1"/><circle cx="36" cy="52" r="1"/><path d="m51.556 44.556c-.256 0-.512.098-.707.293-.391.391-.391 1.024 0 1.414.195.195.451.293.707.293s.512-.098.707-.293c.391-.391.391-1.024 0-1.414-.195-.195-.451-.293-.707-.293z"/><circle cx="58" cy="30" r="1"/><path d="m51.556 13.444c-.256 0-.512.098-.707.293-.391.391-.391 1.024 0 1.414.195.195.451.293.707.293s.512-.098.707-.293c.391-.391.391-1.024 0-1.414-.195-.196-.451-.293-.707-.293z"/><path d="m61 23h-1.089c-1.164 0-2.204-.695-2.676-1.834-.445-1.075-.201-2.302.622-3.124l.77-.77c.78-.78.78-2.048 0-2.828l-7.071-7.071c-.756-.756-2.072-.756-2.828 0l-.762.762c-.827.828-2.06 1.073-3.189.606-1.079-.447-1.777-1.491-1.777-2.659v-1.082c0-1.103-.897-2-2-2h-10c-.599 0-1.13.27-1.497.688-1.283-1.633-3.27-2.688-5.503-2.688h-14c-4.962 0-9 4.038-9 9v8.711c0 4.89 2.392 9.484 6.398 12.289l1.908 1.336c-.186.523-.306 1.077-.306 1.664v7.586l-.394.394c-2.325 2.325-3.606 5.417-3.606 8.707 0 6.789 5.524 12.313 12.313 12.313h30.687c2.757 0 5-2.243 5-5v-1c0-1.103-.897-2-2-2h-4.382l-.123-.246c-.541-1.082-1.628-1.754-2.837-1.754-.177 0-.351.018-.523.047.253-.796.853-1.461 1.699-1.812 1.075-.444 2.301-.201 3.124.622l.77.77c.779.78 2.049.78 2.828 0l7.071-7.071c.78-.78.78-2.048 0-2.828l-.762-.762c-.828-.827-1.073-2.061-.606-3.189.447-1.079 1.491-1.777 2.659-1.777h1.082c1.103 0 2-.897 2-2v-10c0-1.103-.897-2-2-2zm-21.746 33.923 1.358 4.077h-10.81l-1.168-5.257zm-16.671-1.852 3.951.439 1.22 5.49h-8.135zm4.202-1.545-.381-2.475c.274.034.551.097.826.211 1.031.427 1.706 1.402 1.76 2.508zm-2.059-.229-2.124-.236-2.491-4.152c-1.443-2.406-3.427-4.414-5.757-5.909h1.067c4.474 0 8.215 3.209 8.896 7.631zm-9.305-12.297h-4.421v-7c0-1.414.986-2.594 2.304-2.91l.341 3.408c.256 2.566 2.396 4.502 4.975 4.502h.38v2.597c-1.125-.382-2.326-.597-3.579-.597zm-1.421-24c2.757 0 5 2.243 5 5s-2.243 5-5 5-5-2.243-5-5 2.243-5 5-5zm28.267 22h-3.267v-8h1c1.654 0 3-1.346 3-3s-1.346-3-3-3-3 1.346-3 3v1h-2v-1c0-1.654-1.346-3-3-3-.341 0-.663.069-.968.174l-.612-4.594c1.574-.948 3.337-1.504 5.149-1.573 3.032-.122 5.886.974 8.059 3.066 2.174 2.094 3.372 4.909 3.372 7.927 0 3.595-1.801 6.953-4.733 9zm-1.267 4h-10v-2h10zm-9-16c.551 0 1 .449 1 1v1h-1c-.551 0-1-.449-1-1s.449-1 1-1zm5 12h-2v-8h2zm2-10v-1c0-.551.449-1 1-1s1 .449 1 1-.449 1-1 1zm-10-1v-1.382l.485-.242c-.304.469-.485 1.025-.485 1.624 0 1.654 1.346 3 3 3h1v8h-3.302c-.043-.03-.083-.063-.125-.094.822-.248 1.427-1.003 1.427-1.906v-4c0-1.103-.897-2-2-2zm0 5v4h-10.38c-1.548 0-2.832-1.162-2.985-2.702l-.539-5.393c.837-.132 1.625-.409 2.337-.811l.456 3.188c.138.98.989 1.718 1.978 1.718zm-2.336 6c.708.733 1.48 1.395 2.336 1.943v.057 4.504c-3.025-1.361-5.61-3.602-7.417-6.504zm4.336 6h10v1.247c-1.582.488-3.26.753-5 .753-1.728 0-3.407-.264-5-.75zm12-4v-.058c3.715-2.381 6-6.522 6-10.942 0-3.566-1.416-6.893-3.985-9.367-2.569-2.473-5.951-3.751-9.522-3.624-1.865.071-3.69.564-5.359 1.424l-.554-4.153c2.037-.834 4.188-1.28 6.42-1.28 9.374 0 17 7.626 17 17 0 6.877-4.112 12.8-10 15.474zm-15.075-24h-4.925v2h5.191l.723 5.425-1.914.957v5.618h-7.133l-.625-4.376c1.09-1.235 1.758-2.851 1.758-4.624 0-3.519-2.613-6.432-6-6.92v-.251c0-.742.151-1.471.424-2.155.484.208 1.016.326 1.576.326h9c.476 0 .927-.088 1.363-.213zm-17.925-14h14c2.757 0 5 2.243 5 5 0 1.654-1.346 3-3 3h-9c-1.103 0-2-.897-2-2s.897-2 2-2v-2c-2.206 0-4 1.794-4 4 0 .9.31 1.722.813 2.391-.209.427-.392.864-.52 1.319l-10.257-3.419c.356-3.528 3.343-6.291 6.964-6.291zm-1.455 26.361c-3.472-2.431-5.545-6.412-5.545-10.65v-7.323l10.007 3.336c0 .035-.007.07-.007.105v.251c-3.387.488-6 3.401-6 6.92 0 3.55 2.659 6.484 6.088 6.934l.016.157c-1.086.198-2.042.748-2.763 1.527zm-1.545 21.326c0-2.755 1.073-5.345 3.021-7.293l.24-.24c3.392 1.276 6.265 3.667 8.136 6.785l2.464 4.105-3.479 6.956h-.068c-5.688 0-10.314-4.626-10.314-10.313zm37.706 4.961.676 1.352h5.618v1c0 1.654-1.346 3-3 3h-5.279l-1.531-4.592 1.817-1.211c.566-.377 1.395-.157 1.699.451zm16.294-20.648h-1.082c-1.98 0-3.749 1.182-4.526 3.059-.758 1.832-.342 3.92 1.059 5.321l.762.762-7.071 7.071-.77-.77c-1.396-1.396-3.477-1.812-5.367-1.029-1.825.756-3.005 2.521-3.005 4.497v.22l-1.251.834-8.749-.971v-.083c0-1.976-1.18-3.741-3.069-4.524-.612-.252-1.268-.359-1.924-.351-.779-2.812-2.597-5.124-5.006-6.533v-.839c3.555 4.593 9.027 7.336 14.999 7.336 10.477 0 19-8.523 19-19s-8.523-19-19-19c-2.317 0-4.558.431-6.693 1.238l-.062-.466c1.065-.918 1.755-2.259 1.755-3.772 0-.354-.035-.699-.086-1.039.053-.287.086-.579.086-.872v-1.089h10v1.082c0 1.98 1.182 3.749 3.059 4.526 1.832.759 3.92.343 5.321-1.059l.762-.762 7.071 7.071-.77.77c-1.396 1.396-1.811 3.477-1.029 5.367.756 1.825 2.521 3.005 4.497 3.005h1.089z"/></g></g></svg>