<svg id="Layer_1" height="512" viewBox="0 0 150 150" width="512" xmlns="http://www.w3.org/2000/svg" data-name="Layer 1"><circle cx="75" cy="75" fill="#ea8953" r="64"/><path d="m90.39 36.23h-44.65v77.54h58.52v-63.66z" fill="#ebf0f3"/><path d="m77.93 78.67v2.68a.61.61 0 0 1 -.61.62h-.66v13.74a1 1 0 0 1 -.2.58l-1.11 1.46a.94.94 0 0 1 -1.34.18l-.29-.22-2.09-1.63a.38.38 0 0 1 -.16-.31v-2.27a.4.4 0 0 1 .2-.34l.41-.24a.41.41 0 0 0 .2-.35v-.85a.39.39 0 0 0 -.39-.4.26.26 0 0 1 -.26-.26v-.3a.42.42 0 0 1 .21-.33l.85-.56a.39.39 0 0 0 0-.66l-.63-.46a.42.42 0 0 1 -.16-.32v-1.21c0-.13.85-1.18.85-1.31v-1.24c0-.1-.69-1.31-.69-1.42v-1.35h-1.06a.61.61 0 0 1 -.61-.61v-2.62z" fill="#dda64e"/><path d="m73.72 79.65v18.06l.29.22a1 1 0 0 0 .79.18v-18.46z" fill="#f7be56"/><path d="m74.37 64.7a7.92 7.92 0 1 0 7.91 7.91 7.91 7.91 0 0 0 -7.91-7.91zm0 5.12a1.53 1.53 0 1 1 1.53-1.53 1.53 1.53 0 0 1 -1.53 1.53z" fill="#dda64e"/><path d="m74.37 65.59a7 7 0 1 0 7 7 7 7 0 0 0 -7-7zm0 4.23a1.53 1.53 0 1 1 1.53-1.53 1.53 1.53 0 0 1 -1.53 1.53z" fill="#f7be56"/><g fill="#3a556a"><path d="m53.65 58.31h-.65v-4.38a3.21 3.21 0 0 1 -.65.47 4.43 4.43 0 0 1 -.73.36v-.66a4.3 4.3 0 0 0 1-.66 2.61 2.61 0 0 0 .61-.75h.45z"/><path d="m56.68 55.55a5 5 0 0 1 .21-1.6 2 2 0 0 1 .61-.95 1.52 1.52 0 0 1 1-.33 1.67 1.67 0 0 1 .79.18 1.55 1.55 0 0 1 .56.52 2.69 2.69 0 0 1 .35.84 5.67 5.67 0 0 1 .13 1.32 4.93 4.93 0 0 1 -.21 1.59 2 2 0 0 1 -.6.94 1.71 1.71 0 0 1 -2.29-.25 3.7 3.7 0 0 1 -.55-2.26zm.71 0a3.61 3.61 0 0 0 .32 1.84 1 1 0 0 0 .8.45 1 1 0 0 0 .8-.46 3.54 3.54 0 0 0 .32-1.83 3.61 3.61 0 0 0 -.32-1.84 1 1 0 0 0 -.81-.45.86.86 0 0 0 -.75.4 3.5 3.5 0 0 0 -.36 1.89z"/><path d="m65.44 58.31h-.69v-4.38a3.21 3.21 0 0 1 -.65.47 4.8 4.8 0 0 1 -.72.36v-.66a4.23 4.23 0 0 0 1-.66 2.45 2.45 0 0 0 .61-.75h.45z"/><path d="m71.33 58.31h-.68v-4.38a3.3 3.3 0 0 1 -.66.47 4.38 4.38 0 0 1 -.72.36v-.66a4.3 4.3 0 0 0 1-.66 2.61 2.61 0 0 0 .61-.75h.44z"/><path d="m74.37 55.55a5 5 0 0 1 .21-1.6 2 2 0 0 1 .6-.93 1.56 1.56 0 0 1 1-.33 1.67 1.67 0 0 1 .79.18 1.63 1.63 0 0 1 .56.52 3 3 0 0 1 .35.84 5.75 5.75 0 0 1 .12 1.32 5 5 0 0 1 -.2 1.59 2 2 0 0 1 -.6.94 1.56 1.56 0 0 1 -1 .33 1.54 1.54 0 0 1 -1.27-.58 3.7 3.7 0 0 1 -.56-2.28zm.71 0a3.61 3.61 0 0 0 .32 1.84 1 1 0 0 0 .8.45.93.93 0 0 0 .79-.46 3.41 3.41 0 0 0 .33-1.83 3.48 3.48 0 0 0 -.32-1.84 1 1 0 0 0 -.8-.45.88.88 0 0 0 -.76.4 3.62 3.62 0 0 0 -.36 1.89z"/><path d="m83.13 58.31h-.69v-4.38a3.52 3.52 0 0 1 -.65.47 4.43 4.43 0 0 1 -.73.36v-.66a4.3 4.3 0 0 0 1-.66 2.61 2.61 0 0 0 .61-.75h.45z"/><path d="m86.16 55.55a5 5 0 0 1 .21-1.6 2 2 0 0 1 .63-.95 1.52 1.52 0 0 1 1-.33 1.67 1.67 0 0 1 .79.18 1.55 1.55 0 0 1 .56.52 3 3 0 0 1 .35.84 5.75 5.75 0 0 1 .12 1.32 5 5 0 0 1 -.2 1.59 2 2 0 0 1 -.6.94 1.71 1.71 0 0 1 -2.29-.25 3.7 3.7 0 0 1 -.57-2.26zm.71 0a3.61 3.61 0 0 0 .32 1.84.93.93 0 0 0 1.6 0 3.54 3.54 0 0 0 .32-1.83 3.61 3.61 0 0 0 -.32-1.84 1 1 0 0 0 -.81-.45.86.86 0 0 0 -.75.4 3.5 3.5 0 0 0 -.36 1.88z"/><path d="m94.92 58.31h-.69v-4.38a3.21 3.21 0 0 1 -.65.47 4.43 4.43 0 0 1 -.73.36v-.66a4.3 4.3 0 0 0 1-.66 2.61 2.61 0 0 0 .61-.75h.45z"/><path d="m53.65 67.7h-.65v-4.38a4.23 4.23 0 0 1 -.65.47 4.43 4.43 0 0 1 -.73.36v-.67a4 4 0 0 0 1-.66 2.46 2.46 0 0 0 .61-.74h.45z"/><path d="m56.77 64.94a5.29 5.29 0 0 1 .2-1.6 2 2 0 0 1 .61-.94 1.6 1.6 0 0 1 1-.32 1.65 1.65 0 0 1 .79.18 1.49 1.49 0 0 1 .57.52 3 3 0 0 1 .34.83 5.26 5.26 0 0 1 .13 1.33 5.36 5.36 0 0 1 -.2 1.59 2 2 0 0 1 -.61.93 1.56 1.56 0 0 1 -1 .33 1.53 1.53 0 0 1 -1.27-.58 3.66 3.66 0 0 1 -.56-2.27zm.7 0a3.41 3.41 0 0 0 .33 1.83.93.93 0 0 0 .79.46 1 1 0 0 0 .8-.46 3.59 3.59 0 0 0 .32-1.83 3.56 3.56 0 0 0 -.32-1.84 1 1 0 0 0 -.8-.45.88.88 0 0 0 -.76.4 3.5 3.5 0 0 0 -.36 1.89z"/><path d="m62.75 64.94a5 5 0 0 1 .2-1.6 2 2 0 0 1 .61-.94 1.6 1.6 0 0 1 1-.32 1.65 1.65 0 0 1 .79.18 1.4 1.4 0 0 1 .56.52 2.73 2.73 0 0 1 .35.83 5.26 5.26 0 0 1 .13 1.33 5.36 5.36 0 0 1 -.2 1.59 2 2 0 0 1 -.61.93 1.56 1.56 0 0 1 -1 .33 1.53 1.53 0 0 1 -1.27-.58 3.66 3.66 0 0 1 -.56-2.27zm.7 0a3.41 3.41 0 0 0 .33 1.83.93.93 0 0 0 .79.46 1 1 0 0 0 .8-.46 3.59 3.59 0 0 0 .32-1.83 3.56 3.56 0 0 0 -.32-1.84 1 1 0 0 0 -.81-.45.87.87 0 0 0 -.75.4 3.5 3.5 0 0 0 -.36 1.89z"/><path d="m80.68 64.94a5 5 0 0 1 .21-1.6 2 2 0 0 1 .6-.94 1.61 1.61 0 0 1 1-.32 1.67 1.67 0 0 1 .79.18 1.47 1.47 0 0 1 .56.52 3 3 0 0 1 .35.83 5.85 5.85 0 0 1 .12 1.33 5 5 0 0 1 -.2 1.59 2 2 0 0 1 -.6.93 1.56 1.56 0 0 1 -1 .33 1.51 1.51 0 0 1 -1.27-.58 3.65 3.65 0 0 1 -.56-2.27zm.71 0a3.54 3.54 0 0 0 .32 1.83 1 1 0 0 0 .8.46.93.93 0 0 0 .79-.46 3.46 3.46 0 0 0 .33-1.83 3.43 3.43 0 0 0 -.33-1.84 1 1 0 0 0 -.8-.45.88.88 0 0 0 -.76.4 3.62 3.62 0 0 0 -.35 1.89z"/><path d="m86.66 64.94a5 5 0 0 1 .21-1.6 1.92 1.92 0 0 1 .6-.94 1.61 1.61 0 0 1 1-.32 1.67 1.67 0 0 1 .79.18 1.54 1.54 0 0 1 .56.52 3 3 0 0 1 .35.83 5.85 5.85 0 0 1 .12 1.33 5 5 0 0 1 -.2 1.59 2 2 0 0 1 -.61.93 1.52 1.52 0 0 1 -1 .33 1.55 1.55 0 0 1 -1.28-.58 3.72 3.72 0 0 1 -.54-2.27zm.71 0a3.54 3.54 0 0 0 .32 1.83 1 1 0 0 0 .8.46.93.93 0 0 0 .79-.46 3.46 3.46 0 0 0 .33-1.83 3.43 3.43 0 0 0 -.33-1.84 1 1 0 0 0 -.8-.45.88.88 0 0 0 -.76.4 3.62 3.62 0 0 0 -.35 1.89z"/><path d="m95.5 67.7h-.69v-4.38a4.23 4.23 0 0 1 -.65.47 4.43 4.43 0 0 1 -.73.36v-.67a4 4 0 0 0 1-.66 2.46 2.46 0 0 0 .61-.74h.45z"/><path d="m53.65 77.08h-.65v-4.38a3.65 3.65 0 0 1 -.65.48 5.25 5.25 0 0 1 -.73.35v-.66a4 4 0 0 0 1-.66 2.61 2.61 0 0 0 .61-.75h.45z"/><path d="m56.68 74.32a5 5 0 0 1 .21-1.6 2 2 0 0 1 .61-.93 1.52 1.52 0 0 1 1-.33 1.67 1.67 0 0 1 .79.18 1.49 1.49 0 0 1 .56.53 2.53 2.53 0 0 1 .35.83 5.73 5.73 0 0 1 .13 1.32 4.93 4.93 0 0 1 -.21 1.59 1.92 1.92 0 0 1 -.6.94 1.56 1.56 0 0 1 -1 .33 1.53 1.53 0 0 1 -1.27-.58 3.7 3.7 0 0 1 -.57-2.28zm.71 0a3.61 3.61 0 0 0 .32 1.84.94.94 0 0 0 1.6 0 3.61 3.61 0 0 0 .32-1.84 3.54 3.54 0 0 0 -.32-1.83 1 1 0 0 0 -.81-.49.86.86 0 0 0 -.75.4 3.5 3.5 0 0 0 -.36 1.92z"/><path d="m89 77.08h-.69v-4.38a3.32 3.32 0 0 1 -.65.48 5.79 5.79 0 0 1 -.72.35v-.66a4.2 4.2 0 0 0 1-.66 2.79 2.79 0 0 0 .61-.75h.45z"/><path d="m94.92 77.08h-.69v-4.38a3.65 3.65 0 0 1 -.65.48 5.25 5.25 0 0 1 -.73.35v-.66a4 4 0 0 0 1-.66 2.61 2.61 0 0 0 .61-.75h.45z"/><path d="m53.65 86.47h-.65v-4.38a3.21 3.21 0 0 1 -.65.47 4.43 4.43 0 0 1 -.73.36v-.67a4.27 4.27 0 0 0 1-.65 2.61 2.61 0 0 0 .61-.75h.45z"/><path d="m56.77 83.71a5.34 5.34 0 0 1 .2-1.6 2 2 0 0 1 .61-.93 1.55 1.55 0 0 1 1-.33 1.65 1.65 0 0 1 .79.18 1.58 1.58 0 0 1 .57.52 3 3 0 0 1 .34.83 6.62 6.62 0 0 1 -.07 2.92 2.11 2.11 0 0 1 -.61.94 1.56 1.56 0 0 1 -1 .33 1.53 1.53 0 0 1 -1.28-.57 3.66 3.66 0 0 1 -.55-2.29zm.7 0a3.41 3.41 0 0 0 .33 1.83.93.93 0 0 0 .79.46 1 1 0 0 0 .8-.46 3.54 3.54 0 0 0 .32-1.83 3.58 3.58 0 0 0 -.32-1.84 1 1 0 0 0 -.8-.45.88.88 0 0 0 -.76.4 3.5 3.5 0 0 0 -.36 1.89z"/><path d="m62.75 83.71a5 5 0 0 1 .2-1.6 2 2 0 0 1 .61-.93 1.55 1.55 0 0 1 1-.33 1.65 1.65 0 0 1 .79.18 1.47 1.47 0 0 1 .56.52 2.73 2.73 0 0 1 .35.83 6.62 6.62 0 0 1 -.07 2.92 2.11 2.11 0 0 1 -.61.94 1.56 1.56 0 0 1 -1 .33 1.53 1.53 0 0 1 -1.28-.57 3.66 3.66 0 0 1 -.55-2.29zm.7 0a3.41 3.41 0 0 0 .33 1.83.93.93 0 0 0 .79.46 1 1 0 0 0 .8-.46 3.54 3.54 0 0 0 .32-1.83 3.58 3.58 0 0 0 -.32-1.84 1 1 0 0 0 -.81-.45.87.87 0 0 0 -.75.4 3.5 3.5 0 0 0 -.36 1.89z"/><path d="m80.68 83.71a5 5 0 0 1 .21-1.6 2 2 0 0 1 .6-.93 1.56 1.56 0 0 1 1-.33 1.67 1.67 0 0 1 .79.18 1.55 1.55 0 0 1 .56.52 3 3 0 0 1 .35.83 5.85 5.85 0 0 1 .12 1.33 5 5 0 0 1 -.2 1.59 2.09 2.09 0 0 1 -.6.94 1.56 1.56 0 0 1 -1 .33 1.52 1.52 0 0 1 -1.27-.57 3.65 3.65 0 0 1 -.56-2.29zm.71 0a3.54 3.54 0 0 0 .32 1.83 1 1 0 0 0 .8.46.93.93 0 0 0 .79-.46 3.41 3.41 0 0 0 .33-1.83 3.45 3.45 0 0 0 -.33-1.84 1 1 0 0 0 -.8-.45.88.88 0 0 0 -.76.4 3.62 3.62 0 0 0 -.35 1.89z"/><path d="m86.66 83.71a5 5 0 0 1 .21-1.6 1.93 1.93 0 0 1 .6-.93 1.56 1.56 0 0 1 1-.33 1.67 1.67 0 0 1 .79.18 1.63 1.63 0 0 1 .56.52 3 3 0 0 1 .35.83 5.85 5.85 0 0 1 .12 1.33 5 5 0 0 1 -.2 1.59 2.11 2.11 0 0 1 -.61.94 1.52 1.52 0 0 1 -1 .33 1.55 1.55 0 0 1 -1.27-.57 3.72 3.72 0 0 1 -.55-2.29zm.71 0a3.54 3.54 0 0 0 .32 1.83 1 1 0 0 0 .8.46.93.93 0 0 0 .79-.46 3.41 3.41 0 0 0 .33-1.83 3.45 3.45 0 0 0 -.33-1.84 1 1 0 0 0 -.8-.45.88.88 0 0 0 -.76.4 3.62 3.62 0 0 0 -.35 1.89z"/><path d="m95.5 86.47h-.69v-4.38a3.21 3.21 0 0 1 -.65.47 4.43 4.43 0 0 1 -.73.36v-.67a4.27 4.27 0 0 0 1-.65 2.61 2.61 0 0 0 .61-.75h.45z"/><path d="m53.65 94.63h-.65v-4.38a3.65 3.65 0 0 1 -.65.48 4.31 4.31 0 0 1 -.73.35v-.66a4 4 0 0 0 1-.66 2.61 2.61 0 0 0 .58-.76h.45z"/><path d="m56.68 91.87a4.93 4.93 0 0 1 .21-1.59 2 2 0 0 1 .61-.94 1.52 1.52 0 0 1 1-.33 1.67 1.67 0 0 1 .79.18 1.58 1.58 0 0 1 .56.53 2.63 2.63 0 0 1 .35.83 5.73 5.73 0 0 1 .13 1.32 4.93 4.93 0 0 1 -.21 1.59 1.92 1.92 0 0 1 -.6.94 1.56 1.56 0 0 1 -1 .33 1.53 1.53 0 0 1 -1.27-.58 3.7 3.7 0 0 1 -.57-2.28zm.71 0a3.61 3.61 0 0 0 .32 1.84.93.93 0 0 0 1.6 0 3.61 3.61 0 0 0 .32-1.84 3.54 3.54 0 0 0 -.32-1.87 1 1 0 0 0 -.81-.46.88.88 0 0 0 -.75.4 3.5 3.5 0 0 0 -.36 1.93z"/><path d="m65.44 94.63h-.69v-4.38a3.65 3.65 0 0 1 -.65.48 4.65 4.65 0 0 1 -.72.35v-.66a4 4 0 0 0 1-.66 2.45 2.45 0 0 0 .62-.76h.45z"/><path d="m83.13 94.63h-.69v-4.38a4.06 4.06 0 0 1 -.65.48 4.31 4.31 0 0 1 -.73.35v-.66a4 4 0 0 0 1-.66 2.61 2.61 0 0 0 .61-.75h.45z"/><path d="m86.16 91.87a4.93 4.93 0 0 1 .21-1.59 1.93 1.93 0 0 1 .61-.94 1.52 1.52 0 0 1 1.02-.34 1.67 1.67 0 0 1 .79.18 1.58 1.58 0 0 1 .56.53 2.88 2.88 0 0 1 .35.83 5.81 5.81 0 0 1 .12 1.32 5 5 0 0 1 -.2 1.59 1.92 1.92 0 0 1 -.6.94 1.56 1.56 0 0 1 -1 .33 1.53 1.53 0 0 1 -1.27-.58 3.7 3.7 0 0 1 -.59-2.27zm.71 0a3.61 3.61 0 0 0 .32 1.84 1 1 0 0 0 .8.46 1 1 0 0 0 .8-.46 3.61 3.61 0 0 0 .32-1.84 3.54 3.54 0 0 0 -.32-1.87 1 1 0 0 0 -.81-.46.88.88 0 0 0 -.75.4 3.5 3.5 0 0 0 -.36 1.93z"/><path d="m94.92 94.63h-.69v-4.38a3.65 3.65 0 0 1 -.65.48 4.31 4.31 0 0 1 -.73.35v-.66a4 4 0 0 0 1-.66 2.61 2.61 0 0 0 .61-.75h.45z"/><path d="m53.65 104h-.65v-4.36a3.21 3.21 0 0 1 -.65.47 4.43 4.43 0 0 1 -.73.36v-.67a4.27 4.27 0 0 0 1-.65 2.61 2.61 0 0 0 .61-.75h.45z"/><path d="m56.77 101.26a5.34 5.34 0 0 1 .2-1.6 2 2 0 0 1 .61-.93 1.55 1.55 0 0 1 1-.33 1.65 1.65 0 0 1 .79.18 1.58 1.58 0 0 1 .57.52 3 3 0 0 1 .34.84 5.12 5.12 0 0 1 .13 1.32 5.27 5.27 0 0 1 -.2 1.59 2.05 2.05 0 0 1 -.61.94 1.71 1.71 0 0 1 -2.29-.25 3.71 3.71 0 0 1 -.54-2.28zm.7 0a3.41 3.41 0 0 0 .33 1.83.93.93 0 0 0 .79.46 1 1 0 0 0 .8-.46 3.54 3.54 0 0 0 .32-1.83 3.61 3.61 0 0 0 -.32-1.84 1 1 0 0 0 -.8-.45.88.88 0 0 0 -.76.4 3.5 3.5 0 0 0 -.36 1.89z"/><path d="m62.75 101.26a5 5 0 0 1 .2-1.6 2 2 0 0 1 .61-.93 1.55 1.55 0 0 1 1-.33 1.65 1.65 0 0 1 .79.18 1.47 1.47 0 0 1 .56.52 2.69 2.69 0 0 1 .35.84 5.12 5.12 0 0 1 .13 1.32 5.27 5.27 0 0 1 -.2 1.59 2.05 2.05 0 0 1 -.61.94 1.71 1.71 0 0 1 -2.29-.25 3.71 3.71 0 0 1 -.54-2.28zm.7 0a3.41 3.41 0 0 0 .33 1.83.93.93 0 0 0 .79.46 1 1 0 0 0 .8-.46 3.54 3.54 0 0 0 .32-1.83 3.61 3.61 0 0 0 -.32-1.84 1 1 0 0 0 -.81-.45.87.87 0 0 0 -.75.4 3.5 3.5 0 0 0 -.36 1.89z"/><path d="m68.73 101.26a5 5 0 0 1 .2-1.6 2 2 0 0 1 .61-.93 1.53 1.53 0 0 1 1-.33 1.67 1.67 0 0 1 .79.18 1.55 1.55 0 0 1 .56.52 2.69 2.69 0 0 1 .35.84 5.61 5.61 0 0 1 .13 1.32 4.93 4.93 0 0 1 -.21 1.59 2 2 0 0 1 -.6.94 1.71 1.71 0 0 1 -2.29-.25 3.71 3.71 0 0 1 -.54-2.28zm.7 0a3.54 3.54 0 0 0 .32 1.83 1 1 0 0 0 .8.46 1 1 0 0 0 .8-.46 3.54 3.54 0 0 0 .32-1.83 3.61 3.61 0 0 0 -.32-1.84 1 1 0 0 0 -.81-.45.87.87 0 0 0 -.75.4 3.5 3.5 0 0 0 -.36 1.89z"/><path d="m77.56 104h-.69v-4.36a3 3 0 0 1 -.65.47 4.8 4.8 0 0 1 -.72.36v-.67a4.49 4.49 0 0 0 1-.65 2.79 2.79 0 0 0 .61-.75h.44z"/><path d="m80.68 101.26a5 5 0 0 1 .21-1.6 2 2 0 0 1 .6-.93 1.56 1.56 0 0 1 1-.33 1.67 1.67 0 0 1 .79.18 1.55 1.55 0 0 1 .56.52 3 3 0 0 1 .35.84 5.7 5.7 0 0 1 .12 1.32 5 5 0 0 1 -.2 1.59 2 2 0 0 1 -.6.94 1.56 1.56 0 0 1 -1 .33 1.54 1.54 0 0 1 -1.27-.58 3.7 3.7 0 0 1 -.56-2.28zm.71 0a3.54 3.54 0 0 0 .32 1.83 1 1 0 0 0 .8.46.93.93 0 0 0 .79-.46 3.41 3.41 0 0 0 .33-1.83 3.48 3.48 0 0 0 -.33-1.84 1 1 0 0 0 -.8-.45.88.88 0 0 0 -.76.4 3.62 3.62 0 0 0 -.35 1.89z"/><path d="m86.66 101.26a5 5 0 0 1 .21-1.6 1.93 1.93 0 0 1 .6-.93 1.56 1.56 0 0 1 1-.33 1.67 1.67 0 0 1 .79.18 1.63 1.63 0 0 1 .56.52 3 3 0 0 1 .35.84 5.7 5.7 0 0 1 .12 1.32 5 5 0 0 1 -.2 1.59 2.05 2.05 0 0 1 -.61.94 1.52 1.52 0 0 1 -1 .33 1.57 1.57 0 0 1 -1.28-.58 3.78 3.78 0 0 1 -.54-2.28zm.71 0a3.54 3.54 0 0 0 .32 1.83 1 1 0 0 0 .8.46.93.93 0 0 0 .79-.46 3.41 3.41 0 0 0 .33-1.83 3.48 3.48 0 0 0 -.33-1.84 1 1 0 0 0 -.8-.45.88.88 0 0 0 -.76.4 3.62 3.62 0 0 0 -.35 1.89z"/><path d="m95.5 104h-.69v-4.36a3.21 3.21 0 0 1 -.65.47 4.43 4.43 0 0 1 -.73.36v-.67a4.27 4.27 0 0 0 1-.65 2.61 2.61 0 0 0 .61-.75h.45z"/></g><path d="m90.39 50.11h13.87l-13.87-13.88z" fill="#d5d6db"/></svg>