<svg id="_x33_0" enable-background="new 0 0 62 62" height="512" viewBox="0 0 62 62" width="512" xmlns="http://www.w3.org/2000/svg"><g><g><g><path d="m32.36 44.59 1.64 16.41h-26l1.64-16.41c.21-2.1.88-4.13 1.95-5.94 1.08.58 2.22 1.06 3.41 1.43v8.92c0 3.31 2.69 6 6 6 1.66 0 3.16-.67 4.24-1.76 1.09-1.08 1.76-2.58 1.76-4.24v-8.92c1.18-.37 2.32-.85 3.4-1.43 1.08 1.81 1.75 3.83 1.96 5.94z" fill="#969faa"/></g><g><path d="m27 40.08v8.92c0 1.66-.67 3.16-1.76 4.24-1.08 1.09-2.58 1.76-4.24 1.76-3.31 0-6-2.69-6-6v-8.92c1.9.6 3.91.92 6 .92s4.11-.32 6-.92z" fill="#ccd1d9"/></g><g><path d="m30.4 38.65c-1.08.58-2.22 1.06-3.4 1.43-1.89.6-3.91.92-6 .92s-4.1-.32-6-.92c-1.19-.37-2.33-.85-3.41-1.43-6.31-3.37-10.59-10-10.59-17.65 0-11.05 8.95-20 20-20 5.45 0 10.39 2.18 14 5.72v6.53c-2.73-4.92-7.98-8.25-14-8.25-8.84 0-16 7.16-16 16s7.16 16 16 16c6.02 0 11.27-3.33 14-8.25v.25h4.34c-1.81 4.14-4.98 7.54-8.94 9.65z" fill="#aab2bd"/></g><g><path d="m35 13.25v15.5c-2.73 4.92-7.98 8.25-14 8.25-8.84 0-16-7.16-16-16s7.16-16 16-16c6.02 0 11.27 3.33 14 8.25z" fill="#ccd1d9"/></g><g><path d="m11 21c0-5.52 4.48-10 10-10s10 4.48 10 10-4.48 10-10 10-10-4.48-10-10z" fill="#fc6e51"/></g><g><circle cx="21" cy="21" fill="#ff826e" r="6"/></g><g><path d="m59 29h-19.66-4.34v-.25-15.5-6.53-3.72h24z" fill="#fcd770"/></g><g><circle cx="49" cy="49" fill="#ff826e" r="12"/></g></g><g><path d="m39.963 30h20.037v-28h-26v2.516c-3.693-2.922-8.229-4.516-13-4.516-11.579 0-21 9.42-21 21 0 7.658 4.133 14.351 10.273 18.02-.865 1.704-1.437 3.569-1.626 5.468l-1.752 17.512h28.211l-1.752-17.511c-.189-1.894-.756-3.752-1.618-5.454 3.515-2.092 6.406-5.201 8.227-9.035zm-3.963-26h22v24h-22zm-15 32c-8.271 0-15-6.729-15-15s6.729-15 15-15c5.367 0 10.322 2.879 13 7.524v14.952c-2.678 4.645-7.633 7.524-13 7.524zm10.363 8.688 1.532 15.312h-23.79l1.531-15.313c.164-1.641.655-3.252 1.398-4.726.639.303 1.294.575 1.966.813v8.226c0 3.86 3.141 7 7 7s7-3.14 7-7v-8.213c.673-.238 1.335-.502 1.978-.806.738 1.471 1.222 3.073 1.385 4.707zm-15.363-3.315c1.606.395 3.274.627 5 .627 1.711 0 3.385-.218 5-.614v7.614c0 2.757-2.243 5-5 5s-5-2.243-5-5zm5-1.373c-10.477 0-19-8.523-19-19s8.523-19 19-19c4.869 0 9.464 1.839 13 5.164v2.887c-3.197-3.791-7.937-6.051-13-6.051-9.374 0-17 7.626-17 17s7.626 17 17 17c5.878 0 11.319-3.046 14.416-8h2.317c-3.294 6.12-9.7 10-16.733 10z"/><path d="m49 36c-7.168 0-13 5.832-13 13s5.832 13 13 13 13-5.832 13-13-5.832-13-13-13zm0 24c-6.065 0-11-4.935-11-11s4.935-11 11-11 11 4.935 11 11-4.935 11-11 11z"/><path d="m46 52.586-2.293-2.293-1.414 1.414 3.707 3.707 10.707-10.707-1.414-1.414z"/><path d="m21 10c-5.728 0-10.442 4.402-10.949 10h-2.051v2h2.051c.507 5.598 5.221 10 10.949 10 6.065 0 11-4.935 11-11s-4.935-11-11-11zm0 20c-4.625 0-8.442-3.507-8.941-8h2.021c.488 3.387 3.401 6 6.92 6 3.859 0 7-3.14 7-7s-3.141-7-7-7c-3.519 0-6.432 2.613-6.92 6h-2.021c.499-4.493 4.316-8 8.941-8 4.963 0 9 4.038 9 9s-4.037 9-9 9zm-4.899-10c.465-2.279 2.484-4 4.899-4 2.757 0 5 2.243 5 5s-2.243 5-5 5c-2.414 0-4.434-1.721-4.899-4h6.899v-2z"/><path d="m54 7h2v15h-2z"/><path d="m54 24h2v2h-2z"/><path d="m50 7h2v15h-2z"/><path d="m50 24h2v2h-2z"/><path d="m46 7h2v15h-2z"/><path d="m46 24h2v2h-2z"/><path d="m42 22v2 2h2v-2-2-15h-2z"/><path d="m38 7h2v15h-2z"/><path d="m38 24h2v2h-2z"/></g></g></svg>