<svg id="_x33_0" enable-background="new 0 0 64 64" height="512" viewBox="0 0 64 64" width="512" xmlns="http://www.w3.org/2000/svg"><g><g><path d="m60.945 48h2.055v-6h-2.055c-.778 0-1.473-.465-1.786-1.222-.303-.726-.142-1.551.409-2.103l1.455-1.456-4.244-4.244-1.457 1.456c-.55.552-1.375.71-2.04.438l-.101-.046c-.717-.296-1.181-.99-1.181-1.768v-2.055h-2v6.026c0 .69-.029 1.374-.082 2.053l.003-.009c2.874.444 5.079 2.933 5.079 5.93 0 3.31-2.69 6-6 6-.948 0-1.845-.221-2.642-.613l.018-.058c-1.01 1.724-2.214 3.325-3.588 4.778l1.077-.091c.307-.022.625.023.851.115l.101.044c.718.298 1.183.992 1.183 1.77v2.055h6v-2.055c0-.778.465-1.473 1.222-1.786.726-.302 1.55-.143 2.102.409l1.456 1.456 4.244-4.244-1.455-1.456c-.551-.552-.712-1.377-.393-2.141.297-.718.991-1.183 1.769-1.183z" fill="#f0bc5e"/></g><g><path d="m24 12c0-.502.192-.956.497-1.307l-1.716-1.718-1.457 1.456c-.55.552-1.376.711-2.04.438l-.101-.046c-.719-.296-1.183-.99-1.183-1.768v-2.055h-6v2.055c0 .778-.464 1.473-1.222 1.786-.726.302-1.551.143-2.103-.409l-1.455-1.456-4.244 4.244 1.455 1.456c.551.552.712 1.377.393 2.141-.297.718-.991 1.183-1.769 1.183h-2.055v6h2.055c.778 0 1.473.465 1.786 1.222.303.726.142 1.551-.409 2.103l-1.456 1.455 4.244 4.244 1.457-1.456c.55-.553 1.374-.712 2.04-.438l.101.044c.717.299 1.182.993 1.182 1.771v2.055h2v-8.083c-2.835-.477-5-2.948-5-5.917 0-3.31 2.69-6 6-6 2.967 0 5.435 2.161 5.915 4.993 1.39-.015 2.764-.201 4.099-.541l.014-5.715c-.611-.342-1.028-.987-1.028-1.737z" fill="#f0bc5e"/></g><g><path d="m61 5h-6.697l-1.149-.767c-3.174-2.115-6.867-3.233-10.681-3.233h-7.473c-1.103 0-2 .897-2 2 0 .732.212 1.41.556 2.001l-5.556-.001c-1.654 0-3 1.346-3 3 0 .395.081.77.22 1.116-1.275.345-2.22 1.501-2.22 2.884s.945 2.539 2.22 2.884c-.139.346-.22.721-.22 1.116 0 .838.347 1.595.903 2.14-1.364.452-2.781.722-4.215.808-.887-2.913-3.566-4.948-6.688-4.948-3.86 0-7 3.141-7 7 0 3.141 2.059 5.833 5 6.704v9.322c0 1.914.213 3.821.609 5.685-.954.431-1.88.934-2.762 1.522l-1.15.767h-6.697c-1.103 0-2 .897-2 2v12c0 1.103.897 2 2 2h6c.809 0 1.504-.485 1.819-1.178 3.129 2.056 6.824 3.178 10.584 3.178h8.597c.412 0 .805-.084 1.163-.235.173.061.345.125.52.183l.317.106.317-.105c6.138-2.046 11.159-6.118 14.448-11.319.716.242 1.464.37 2.235.37 3.86 0 7-3.141 7-7 0-3.118-2.118-5.857-5.05-6.716.019-.419.05-.835.05-1.258v-15.967c.753-.366 1.481-.78 2.18-1.24.314.694 1.01 1.181 1.82 1.181h6c1.103 0 2-.897 2-2v-12c0-1.103-.897-2-2-2zm-33 2 9 .001v-.001h3.17c.603 0 1.148.279 1.521.743-.436.376-.818.801-1.156 1.257h-12.535c-.551 0-1-.448-1-1s.449-1 1-1zm6.166 9.242-1.863-1.242h6.697v2h-3.564c-.433-.234-.859-.483-1.27-.758zm-8.166-5.242h13.465c-.229.639-.371 1.31-.426 2h-13.039c-.551 0-1-.448-1-1s.449-1 1-1zm2 6c-.551 0-1-.448-1-1s.449-1 1-1h3.697l-1.862 1.242c-.412.274-.838.523-1.271.758zm-18 4c0-2.757 2.243-5 5-5 2.008 0 3.747 1.187 4.538 2.94-.681-.048-1.36-.124-2.034-.258l-4.504-.902v7.786c-1.787-.778-3-2.535-3-4.566zm-1 38h-6v-12h6zm21 2h-8.597c-3.747 0-7.418-1.249-10.403-3.506v-10.959l.956-.638c2.843-1.895 6.153-2.897 9.571-2.897h5.473c0 1.103-.896 2-1.996 2h-.004-3.006v2h3.006.004 8.996c.551 0 1 .448 1 1s-.449 1-1 1h-12v2h14c.551 0 1 .448 1 1s-.449 1-1 1h-14v2h12c.551 0 1 .448 1 1s-.449 1-1 1h-12v2h8c.551 0 1 .448 1 1s-.449 1-1 1zm-11-23.974v-12.092c.576.044 1.153.066 1.725.066 3.803 0 7.248-.779 10.275-2.304v22.304h-2.556c.344-.591.556-1.268.556-2 0-1.103-.897-2-2-2h-5.473c-.714 0-1.421.052-2.124.13-.263-1.348-.403-2.724-.403-4.104zm19.987 14.843c-.059-1.324-.974-2.418-2.207-2.753.139-.346.22-.721.22-1.116 0-1.654-1.346-3-3-3h-1v-22.304c3.027 1.526 6.472 2.304 10.275 2.304.572 0 1.149-.022 1.725-.066v12.093c0 5.624-2.195 10.911-6.013 14.842zm-6.045 8.705c.036-.186.058-.378.058-.574 0-.352-.072-.686-.184-1h1.184c1.594 0 2.89-1.254 2.982-2.825 6.279-4.355 10.018-11.465 10.018-19.149v-14.336l-1.126.144c-.863.11-1.738.166-2.599.166-4.079 0-7.695-.959-10.749-2.851l-.526-.326-.526.326c-3.054 1.892-6.67 2.851-10.749 2.851-.861 0-1.735-.056-2.599-.166l-1.126-.144v14.336c0 1.485.148 2.965.426 4.417-.653.142-1.295.325-1.93.535-.323-1.627-.496-3.286-.496-4.952v-16.806l2.113.423c1.187.237 2.403.357 3.612.357 3.648 0 7.182-1.069 10.219-3.094l1.056-.704 1.056.704c3.037 2.025 6.57 3.094 10.219 3.094 1.209 0 2.425-.12 3.613-.357l2.112-.423v16.807c0 10.466-6.404 19.753-16.058 23.547zm21.058-15.574c0 2.757-2.243 5-5 5-.412 0-.813-.052-1.204-.149 1.551-2.918 2.572-6.132 2.982-9.511 1.89.729 3.222 2.573 3.222 4.66zm-7.504-26.318c-1.82.363-3.679.39-5.496.134v-5.191c0-1.624.684-3.145 1.854-4.228.967 1.009 2.307 1.603 3.759 1.603h.387v-2h-.387c-1.23 0-2.334-.684-2.892-1.802-.676-1.355-2.036-2.198-3.551-2.198h-3.174c-1.1 0-1.996-.897-1.996-2h7.473c3.418 0 6.728 1.002 9.571 2.897l.956.638v10.965c-.636.481-1.304.917-2 1.306v-1.026zm14.504.318h-6v-12h6z"/><path d="m47.825 13.264c-2.254.563-4.039 2.216-4.774 4.42l1.897.633c.518-1.553 1.774-2.716 3.362-3.113l.932-.233-.485-1.939z"/><path d="m1 39h2v2h-2z"/><path d="m5 39h2v2h-2z"/><path d="m9 39h2v2h-2z"/><path d="m53 25h2v2h-2z"/><path d="m57 25h2v2h-2z"/><path d="m61 25h2v2h-2z"/></g></g></svg>