<svg id="Layer_35" enable-background="new 0 0 64 64" height="512" viewBox="0 0 64 64" width="512" xmlns="http://www.w3.org/2000/svg"><path d="m48 2h-36c-2.21 0-4 1.79-4 4v23 4 25c0 2.21 1.79 4 4 4h36c2.21 0 4-1.79 4-4v-52c0-2.21-1.79-4-4-4z" fill="#e6e9ed"/><path d="m55 12-3-3-18 18 3 3 3 3 12-12 6-6z" fill="#b4dd7f"/><path d="m55 12-18 18 3 3 12-12 6-6z" fill="#ffeaa7"/><path d="m62 9.24c0 1.13-.45 2.21-1.24 3l-2.76 2.76-3-3-3-3 2.76-2.76c.79-.79 1.87-1.24 3-1.24 1.17 0 2.23.48 3 1.24.76.77 1.24 1.83 1.24 3z" fill="#aab2bd"/><path d="m40 33-7 1 1-7 3 3z" fill="#cf9e76"/><path d="m30 48v8c0 1.1-.9 2-2 2h-14c-1.1 0-2-.9-2-2v-8c0-1.1.9-2 2-2h14c1.1 0 2 .9 2 2z" fill="#ff826e"/><path d="m30 32v8c0 1.1-.9 2-2 2h-14c-1.1 0-2-.9-2-2v-8c0-1.1.9-2 2-2h14c1.1 0 2 .9 2 2z" fill="#fcd770"/><path d="m45.2 39.4 1.6 1.199 4.2-5.599v23c0 1.654-1.346 3-3 3h-36c-1.654 0-3-1.346-3-3v-25h-2v25c0 2.757 2.243 5 5 5h36c2.757 0 5-2.243 5-5v-23l4.2 5.599 1.6-1.199-6.8-9.067z"/><path d="m57.758 4c-1.4 0-2.717.545-3.707 1.535l-1.051 1.051v-.586c0-2.757-2.243-5-5-5h-36c-2.757 0-5 2.243-5 5v20l-4.2-5.6-1.6 1.2 6.8 9.067 6.8-9.067-1.6-1.2-4.2 5.6v-20c0-1.654 1.346-3 3-3h36c1.654 0 3 1.346 3 3v2.586l-17.942 17.942-1.236 8.65 8.65-1.236 10.528-10.528v4.586h2v-6.586l8.465-8.465c.99-.99 1.535-2.306 1.535-3.707 0-2.89-2.352-5.242-5.242-5.242zm-19.344 26 16.586-16.586 1.586 1.586-16.586 16.586zm-1.414-1.414-1.586-1.586 16.586-16.586 1.586 1.586zm-2.293.535 3.172 3.172-3.7.528zm25.344-17.586-2.051 2.051-4.586-4.586 2.051-2.051c.612-.612 1.427-.949 2.293-.949 1.788 0 3.242 1.454 3.242 3.242 0 .866-.337 1.681-.949 2.293z"/><path d="m11 56c0 1.654 1.346 3 3 3h14c1.654 0 3-1.346 3-3v-8c0-1.654-1.346-3-3-3h-14c-1.654 0-3 1.346-3 3zm2-8c0-.552.448-1 1-1h14c.552 0 1 .448 1 1v8c0 .552-.448 1-1 1h-14c-.552 0-1-.448-1-1z"/><path d="m11 32v8c0 1.654 1.346 3 3 3h14c1.654 0 3-1.346 3-3v-8c0-1.654-1.346-3-3-3h-14c-1.654 0-3 1.346-3 3zm18 0v8c0 .552-.448 1-1 1h-14c-.552 0-1-.448-1-1v-8c0-.552.448-1 1-1h14c.552 0 1 .448 1 1z"/><path d="m33 57h16v2h-16z"/><path d="m47 53h2v2h-2z"/><path d="m33 53h12v2h-12z"/><path d="m33 49h16v2h-16z"/><path d="m33 45h16v2h-16z"/><path d="m33 41h10v2h-10z"/><path d="m33 37h10v2h-10z"/><path d="m11 5h2v2h-2z"/><path d="m15 5h2v2h-2z"/><path d="m19 5h2v2h-2z"/><path d="m11 9h26v2h-26z"/><path d="m35 13h2v2h-2z"/><path d="m11 13h22v2h-22z"/><path d="m11 17h26v2h-26z"/><path d="m17 21h2v2h-2z"/><path d="m21 21h2v2h-2z"/><path d="m25 21h2v2h-2z"/></svg>