<svg height="511pt" viewBox="0 0 511.8 511" width="511pt" xmlns="http://www.w3.org/2000/svg"><path d="m157.199219 349.601562c0-19.800781-16.199219-36-36-36h-10.199219c-7 0-13.601562 3.796876-17 9.796876-4.199219-2.597657-9.398438-3.398438-14.199219-2.398438-9.402343 2-16 10.398438-15.800781 20v9.398438c0 10.800781 1.800781 21.601562 5.398438 31.800781l1 2.800781c4.601562 12.800781 15 22.601562 28 26.398438l.800781.203124c7.601562 2.199219 15.402343 2.199219 23 0l.601562-.203124c13.199219-3.796876 23.597657-13.597657 28-26.597657l1.199219-3.601562c3.398438-10.398438 5.199219-21 5.199219-31.597657zm0 0" fill="#6d6c6b"/><path d="m301.601562 349.601562c0-19.800781-16.203124-36-36-36h-10.203124c-7 0-13.597657 3.796876-17 9.796876-4.199219-2.597657-9.398438-3.398438-14.199219-2.398438-9.398438 2-16 10.398438-15.800781 20v9.398438c0 10.800781 1.800781 21.601562 5.402343 31.800781l1 2.800781c4.597657 12.800781 15 22.601562 28 26.398438l.800781.203124c7.597657 2.199219 15.398438 2.199219 23 0l.597657-.203124c13.199219-3.796876 23.601562-13.597657 28-26.597657l1.199219-3.601562c3.402343-10.398438 5.203124-21 5.203124-31.597657zm0 0" fill="#6d6c6b"/><path d="m445.800781 349.601562c0-19.800781-16.199219-36-36-36h-10.199219c-7 0-13.601562 3.796876-17 9.796876-4.203124-2.597657-9.402343-3.398438-14.203124-2.398438-9.398438 2-16 10.398438-15.796876 20v9.398438c0 10.800781 1.796876 21.601562 5.398438 31.800781l1 2.800781c4.601562 12.800781 15 22.601562 28 26.398438l.800781.203124c7.597657 2.199219 15.398438 2.199219 23 0l.597657-.203124c13-3.796876 23.601562-13.597657 28-26.597657l1.203124-3.601562c3.398438-10.398438 5.199219-21 5.199219-31.597657zm0 0" fill="#6d6c6b"/><path d="m181.398438 460.601562c-.398438-6-4.597657-11.203124-10.398438-12.601562l-27-6.800781-16.398438-8h-32.203124l-16.199219 8-27 6.800781c-5.800781 1.398438-10 6.601562-10.398438 12.601562l-2.199219 41c-.203124 2.796876 2 5.199219 4.796876 5.398438h.203124 134.199219c2.800781 0 5-2.199219 5-5v-.199219zm0 0" fill="#e9e9ea"/><path d="m325.601562 460.601562c-.402343-6-4.601562-11.203124-10.402343-12.601562l-27-6.800781-16.199219-8h-32.199219l-16.199219 8-27 6.800781c-5.800781 1.398438-10 6.601562-10.402343 12.601562l-2.199219 41c-.199219 2.796876 2 5.199219 4.800781 5.398438h.199219 134.199219c2.800781 0 5-2.199219 5-5v-.199219zm0 0" fill="#e9e9ea"/><path d="m470 460.601562c-.398438-6-4.601562-11.203124-10.398438-12.601562l-27-6.800781-16.203124-8h-32.199219l-16.199219 8-27.199219 6.800781c-5.800781 1.398438-10 6.601562-10.402343 12.601562l-2.199219 41c-.199219 2.796876 2 5.199219 4.800781 5.398438h.199219 134.199219c2.800781 0 5-2.199219 5-5v-.199219zm0 0" fill="#e9e9ea"/><path d="m122.601562 411.199219-.601562.199219c-7.601562 2.203124-15.398438 2.203124-23 0l-.800781-.199219c-8.398438-2.398438-15.597657-7.199219-21-14 2 8.800781 7.402343 16.199219 15 21.199219 2.199219 1.402343 3.402343 3.800781 3.402343 6.402343v8.597657h32.199219s0-5 0-8.796876c0-2.402343 1.199219-4.800781 3.199219-6.203124 7.800781-5.597657 13-14 14.601562-23.398438-5.601562 7.800781-13.800781 13.398438-23 16.199219zm0 0" fill="#f9d0b4"/><path d="m156.199219 362.800781c-1.398438 10-4.199219 19.597657-8.597657 28.597657h3.597657c8 1.203124 15.402343-4 16.601562-12 .199219-.796876.199219-1.398438.199219-2.199219.199219-7-4.800781-13-11.800781-14.398438zm0 0" fill="#f9d0b4"/><path d="m64.601562 362.800781c-6.800781 1.398438-11.800781 7.398438-11.800781 14.398438.199219 8 6.800781 14.402343 14.800781 14.402343.796876 0 1.398438 0 2.199219-.203124h3.398438c-4.398438-9-7.398438-18.597657-8.597657-28.597657zm0 0" fill="#f9d0b4"/><path d="m267 411.199219-.601562.199219c-7.597657 2.203124-15.398438 2.203124-23 0l-.796876-.199219c-8.402343-2.398438-15.601562-7.199219-21-14 2 8.800781 7.398438 16.199219 15 21.199219 2.199219 1.402343 3.398438 3.800781 3.398438 6.402343v8.597657h31.800781s0-5 0-8.796876c0-2.402343 1.199219-4.800781 3.199219-6.203124 7.800781-5.597657 13-14 14.601562-23.398438-5.402343 7.800781-13.402343 13.398438-22.601562 16.199219zm0 0" fill="#f9d0b4"/><path d="m300.601562 362.800781c-1.402343 10-4.203124 19.597657-8.800781 28.597657h3.597657c8 1.203124 15.402343-4 16.601562-12 .199219-.796876.199219-1.398438.199219-2.199219.199219-7-4.800781-13-11.597657-14.398438zm0 0" fill="#f9d0b4"/><path d="m209 362.800781c-6.800781 1.398438-11.800781 7.398438-11.800781 14.398438.199219 8 6.800781 14.402343 14.800781 14.402343.800781 0 1.398438 0 2.199219-.203124h3.402343c-4.601562-9-7.402343-18.597657-8.601562-28.597657zm0 0" fill="#f9d0b4"/><path d="m411.199219 411.199219-.597657.199219c-7.601562 2.203124-15.402343 2.203124-23 0l-.800781-.199219c-8.402343-2.398438-15.601562-7.199219-21-14 2 8.800781 7.398438 16.199219 15 21.199219 2.199219 1.402343 3.398438 3.800781 3.398438 6.402343v8.597657h32.199219s0-5 0-8.796876c0-2.402343 1.203124-4.800781 3.203124-6.203124 7.796876-5.597657 13-14 14.597657-23.398438-5.800781 7.800781-13.800781 13.398438-23 16.199219zm0 0" fill="#f9d0b4"/><path d="m444.800781 362.800781c-1.402343 10-4.199219 19.597657-8.800781 28.597657h3.601562c8 1.203124 15.398438-4 16.597657-12 .199219-.796876.199219-1.398438.199219-2.199219.203124-7-4.597657-13-11.597657-14.398438zm0 0" fill="#f9d0b4"/><path d="m353.199219 362.800781c-6.800781 1.398438-11.800781 7.398438-11.800781 14.398438.203124 8 6.800781 14.402343 14.800781 14.402343.800781 0 1.402343 0 2.199219-.203124h3.402343c-4.402343-9-7.402343-18.597657-8.601562-28.597657zm0 0" fill="#f9d0b4"/><path d="m42.800781 5.398438h426.199219c6.601562 0 12 5.402343 12 12v14c0 6.601562-5.398438 12-12 12h-426.199219c-6.601562 0-12-5.398438-12-12v-14c0-6.597657 5.398438-12 12-12zm0 0" fill="#e9e9ea"/><path d="m58.601562 329.800781h8.398438c5.601562-9.199219 17.800781-12.199219 27-6.601562 3.601562-6 10-9.800781 17-9.800781h10.199219c12.199219 0 23.402343 6.203124 30.199219 16.402343h59.800781c5.601562-9.199219 17.800781-12.199219 27-6.601562 3.601562-6 10-9.800781 17-9.800781h10.199219c12.203124 0 23.402343 6.203124 30.203124 16.402343h59.796876c5.601562-9.199219 17.800781-12.199219 27-6.601562 3.601562-6 10-9.800781 17-9.800781h10.203124c12.199219 0 23.398438 6.203124 30.199219 16.402343h13.199219c8.199219 0 14.800781-6.601562 14.800781-14.800781v-271.601562h-424v271.601562c0 8.199219 6.597657 14.800781 14.800781 14.800781zm0 0" fill="#60bae2"/><path d="m65.398438 43.398438h380.800781v264.800781h-380.800781zm0 0" fill="#caecfc"/><path d="m511.398438 358.601562c-9-1.800781-15.796876-8.601562-17.597657-17.601562 0-.199219-.199219-.398438-.402343-.398438-.199219 0-.199219.199219-.398438.398438-1.800781 9-8.601562 15.800781-17.601562 17.601562-.199219 0-.398438.199219-.398438.398438s.199219.199219.398438.398438c9 1.800781 15.800781 8.601562 17.601562 17.601562 0 .199219.199219.398438.398438.398438.203124 0 .203124-.199219.402343-.398438 1.800781-9 8.597657-15.800781 17.597657-17.601562.203124 0 .402343-.199219.402343-.398438 0-.398438-.199219-.398438-.402343-.398438zm0 0" fill="#f75c64"/><path d="m39.398438 419h-17.398438c-2.800781 0-5-2.199219-5-5s2.199219-5 5-5h17.398438c2.800781 0 5 2.199219 5 5s-2.199219 5-5 5zm0 0" fill="#60bae2"/><path d="m30.800781 427.800781c-2.800781 0-5-2.199219-5-5v-17.402343c0-2.796876 2.199219-5 5-5s5 2.203124 5 5v17.402343c0 2.597657-2.199219 5-5 5zm0 0" fill="#60bae2"/><path d="m4.800781 342.398438c1.398438 0 2.597657.601562 3.597657 1.402343.203124.199219.402343.398438.601562.800781.199219.199219.398438.597657.398438.796876.203124.402343.203124.601562.203124 1 0 .402343.199219.601562.199219 1 0 .402343 0 .601562-.199219 1 0 .402343-.203124.601562-.203124 1-.199219.402343-.199219.601562-.398438.800781s-.398438.601562-.601562.800781c-1.398438 1.398438-3.597657 1.800781-5.398438 1-.199219-.199219-.601562-.199219-.800781-.398438-.199219-.203124-.597657-.402343-.800781-.601562-.199219-.199219-.398438-.398438-.597657-.800781-.199219-.199219-.402343-.597657-.402343-.800781-.199219-.199219-.199219-.597657-.199219-1 0-.398438 0-.597657-.199219-1 0-.398438 0-.597657.199219-1 0-.398438.199219-.597657.199219-1 .203124-.398438.203124-.597657.402343-.796876.199219-.203124.398438-.601562.597657-.800781.203124-.199219.402343-.402343.800781-.601562.199219-.199219.601562-.398438.800781-.398438.398438-.199219.601562-.199219 1-.199219.199219 0 .398438-.203124.800781-.203124zm0 0" fill="#6dcc6d"/><path d="m472.199219 408c1.402343 0 2.601562.601562 3.601562 1.398438.199219.203124.398438.402343.597657.800781.203124.199219.402343.601562.402343.800781.199219.398438.199219.601562.199219 1s.199219.601562.199219 1 0 .601562-.199219 1c0 .398438-.199219.601562-.199219 1-.199219.398438-.199219.601562-.402343.800781-.199219.199219-.398438.597657-.597657.800781-1.402343 1.398438-3.601562 1.796876-5.402343 1-.199219-.203124-.597657-.203124-.796876-.402343-.203124-.199219-.601562-.398438-.800781-.597657-.199219-.203124-.402343-.402343-.601562-.800781-.199219-.199219-.398438-.601562-.398438-.800781-.199219-.199219-.199219-.601562-.199219-1s0-.601562-.203124-1c0-.398438 0-.601562.203124-1 0-.398438.199219-.601562.199219-1 .199219-.398438.199219-.601562.398438-.800781s.402343-.597657.601562-.800781c.199219-.199219.398438-.398438.800781-.597657.199219-.199219.597657-.402343.796876-.402343.402343-.199219.601562-.199219 1-.199219.203124-.199219.402343-.199219.800781-.199219zm0 0" fill="#fcd770"/><g fill="#231f20"><path d="m446.199219 313.199219h-380.800781c-2.796876 0-5-2.199219-5-5v-264.800781c0-2.796876 2.203124-5 5-5h380.800781c2.800781 0 5 2.203124 5 5v264.800781c0 2.800781-2.199219 5-5 5zm-375.800781-10h370.800781v-254.800781h-370.800781zm0 0"/><path d="m468.800781 48.398438h-426c-9.402343 0-17-7.597657-17-17v-14c0-9.398438 7.597657-17 17-17h426.199219c9.398438 0 17 7.601562 17 17v14c-.199219 9.402343-7.800781 17-17.199219 17zm-426-38c-3.800781 0-7 3.203124-7 7v14c0 3.800781 3.199219 7 7 7h426.199219c3.800781 0 7-3.199219 7-7v-14c0-3.796876-3.199219-7-7-7zm0 0"/><path d="m152.398438 512c-2.796876 0-5-2.199219-5-5v-19.800781c0-2.800781 2.203124-5 5-5 2.800781 0 5 2.199219 5 5v19.800781c0 2.800781-2.398438 5-5 5zm0 0"/><path d="m69.800781 512c-2.800781 0-5-2.199219-5-5v-19.800781c0-2.800781 2.199219-5 5-5s5 2.199219 5 5v19.800781c0 2.800781-2.402343 5-5 5zm0 0"/><path d="m178.601562 512h-134.203124c-5.597657 0-10-4.398438-10-10 0-.199219 0-.398438 0-.601562l2.203124-41c.398438-8.199219 6.199219-15.199219 14.199219-17.199219l26.597657-6.597657 15.800781-7.800781c.601562-.402343 1.402343-.601562 2.199219-.601562h32.203124c.796876 0 1.597657.199219 2.199219.601562l15.800781 7.800781 26.597657 6.597657c8 2 13.800781 9 14.199219 17.199219l2.203124 41c.398438 5.601562-4 10.203124-9.402343 10.601562-.199219 0-.398438 0-.597657 0zm-82-73.800781-15.203124 7.601562c-.398438.199219-.597657.199219-1 .398438l-27 6.800781c-3.796876 1-6.398438 4.199219-6.597657 8l-2.199219 41h134.199219l-2.199219-41c-.203124-3.800781-2.800781-7-6.601562-8l-27-6.800781c-.398438 0-.601562-.199219-1-.398438l-15.199219-7.601562zm0 0"/><path d="m127.601562 438.199219h-32.203124c-2.796876 0-5-2.199219-5-5v-8.597657c0-.800781-.398438-1.601562-1.199219-2.203124-8.597657-5.597657-14.597657-14.199219-17-24.199219-.597657-2.597657 1-5.398438 3.800781-6 1.800781-.398438 3.800781.199219 5 1.800781 4.800781 6 11.199219 10.199219 18.601562 12.398438l.796876.203124c6.601562 1.796876 13.601562 1.796876 20.203124 0l.597657-.203124c8.199219-2.398438 15.199219-7.398438 20-14.398438 1.601562-2.199219 4.601562-2.800781 7-1.199219 1.601562 1.199219 2.402343 3 2 5-1.800781 10.800781-7.800781 20.398438-16.597657 26.597657-.601562.402343-1 1.203124-1 2.203124v8.796876c0 2.601562-2.203124 4.800781-5 4.800781zm-27.203124-10h22.203124v-3.800781c0-3.597657 1.597657-7 4.199219-9.398438-1 .398438-1.800781.601562-2.800781 1l-.601562.199219c-8.398438 2.402343-17.398438 2.402343-25.796876 0l-.601562-.199219c2.199219 2.398438 3.601562 5.398438 3.601562 8.800781zm0 0"/><path d="m110.398438 418c-4.398438 0-8.597657-.601562-12.796876-1.800781l-.800781-.199219c-14.601562-4.199219-26.199219-15.199219-31.402343-29.601562l-1-2.796876c-3.796876-10.800781-5.796876-22-5.796876-33.402343v-9.398438c0-12 8.199219-22.402343 19.796876-24.800781 4.601562-1 9.203124-.601562 13.601562 1 4.800781-5.398438 11.601562-8.398438 18.601562-8.398438h10.199219c22.597657 0 41 18.398438 41 41 0 11.199219-1.800781 22.398438-5.601562 33l-1.199219 3.597657c-5 14.402343-16.800781 25.402343-31.398438 29.601562l-.601562.199219c-3.800781 1.398438-8.199219 2-12.601562 2zm-26.597657-92.601562c-8.199219 0-15 6.601562-15 15v.402343 9.398438c0 10.199219 1.800781 20.402343 5.199219 30.199219l1 2.800781c4 11.199219 13.199219 20 24.601562 23.199219l.796876.203124c6.601562 1.796876 13.601562 1.796876 20.203124 0l.597657-.203124c11.601562-3.398438 20.800781-12 24.601562-23.398438l1.199219-3.601562c3.398438-9.597657 5-19.597657 5-29.796876 0-17.203124-13.800781-31-31-31h-10.199219c-5.199219 0-10.199219 2.796876-12.800781 7.398438-1.398438 2.398438-4.398438 3.199219-6.800781 1.800781-2.199219-1.601562-4.800781-2.402343-7.398438-2.402343zm0 0"/><path d="m153.601562 396.601562c-1 0-1.800781 0-2.800781-.203124h-3.199219c-2.800781 0-5-2.199219-5-5 0-.796876.199219-1.796876.597657-2.398438 4.199219-8.398438 6.800781-17.601562 8.199219-26.800781.402343-2.800781 3-4.597657 5.601562-4.199219h.199219c9.199219 1.800781 15.800781 10 15.800781 19.398438 0 10.601562-8.800781 19.203124-19.398438 19.203124zm6.398438-26.402343c-1.199219 5.601562-2.800781 11-4.800781 16.402343 1.601562-.203124 3.199219-1 4.402343-2 4-3.402343 4.597657-9.402343 1.199219-13.402343-.199219-.398438-.402343-.800781-.800781-1zm0 0"/><path d="m67.398438 396.601562c-10.796876 0-19.597657-8.800781-19.597657-19.601562 0-9.398438 6.597657-17.398438 15.800781-19.199219 2.796876-.601562 5.398438 1.199219 6 3.800781v.398438c1.199219 9.398438 3.796876 18.398438 8 26.800781 1.398438 2.398438.597657 5.398438-1.800781 6.800781-.800781.398438-1.601562.597657-2.402343.597657h-3c-1.199219.402343-2 .402343-3 .402343zm-6.597657-26.402343c-3.800781 3.601562-4 9.601562-.199219 13.402343.199219.199219.597657.597657.796876.796876 1.203124 1 2.601562 1.800781 4.203124 2-2-5.199219-3.601562-10.597657-4.800781-16.199219zm0 0"/><path d="m296.601562 512c-2.800781 0-5-2.199219-5-5v-19.800781c0-2.800781 2.199219-5 5-5 2.796876 0 5 2.199219 5 5v19.800781c0 2.800781-2.203124 5-5 5zm0 0"/><path d="m214 512c-2.800781 0-5-2.199219-5-5v-19.800781c0-2.800781 2.199219-5 5-5s5 2.199219 5 5v19.800781c0 2.800781-2.199219 5-5 5zm0 0"/><path d="m322.800781 512h-134c-5.601562 0-10-4.398438-10-10 0-.199219 0-.398438 0-.601562l2.199219-41c.398438-8.199219 6.199219-15.199219 14.199219-17.199219l26.601562-6.597657 15.800781-7.800781c.597657-.402343 1.398438-.601562 2.199219-.601562h32c.800781 0 1.597657.199219 2.199219.601562l15.800781 7.800781 26.597657 6.597657c8 2 13.800781 9 14.203124 17.199219l2.199219 41c.398438 5.601562-4 10.203124-9.402343 10.601562-.199219 0-.398438 0-.597657 0zm-82-73.800781-15.199219 7.601562c-.402343.199219-.601562.199219-1 .398438l-27 6.800781c-3.800781 1-6.402343 4.199219-6.601562 8l-2.199219 41h134.199219l-2.199219-41c-.199219-3.800781-2.800781-7-6.601562-8l-27-6.800781c-.398438 0-.597657-.199219-1-.398438l-15.199219-7.601562zm0 0"/><path d="m271.800781 438.199219h-32c-2.800781 0-5-2.199219-5-5v-8.597657c0-.800781-.402343-1.601562-1.199219-2.203124-8.601562-5.597657-14.601562-14.199219-17-24.199219-.601562-2.597657 1-5.398438 3.796876-6 1.800781-.398438 3.800781.199219 5 1.800781 4.800781 6 11.203124 10.199219 18.601562 12.398438l.800781.203124c6.597657 1.796876 13.597657 1.796876 20.199219 0l.601562-.203124c8.199219-2.398438 15.199219-7.398438 20-14.398438 1.597657-2.199219 4.597657-2.800781 7-1.199219 1.597657 1.199219 2.398438 3 2 5-1.800781 10.800781-7.800781 20.398438-16.601562 26.597657-.601562.402343-1 1.203124-1 2v8.800781c-.199219 2.800781-2.398438 5-5.199219 5zm-27-10h22.199219v-3.800781c0-3.597657 1.601562-7 4.199219-9.398438-1 .398438-1.800781.601562-2.800781 1l-.597657.199219c-8.402343 2.402343-17.402343 2.402343-25.800781 0l-.601562-.199219c2.203124 2.398438 3.601562 5.398438 3.601562 8.800781zm22.199219-17"/><path d="m254.800781 418c-4.402343 0-8.601562-.601562-12.800781-1.800781l-.800781-.199219c-14.597657-4.199219-26.199219-15.199219-31.398438-29.601562l-1-2.796876c-3.800781-10.800781-5.800781-22-5.800781-33.402343v-9.398438c0-12 8.199219-22.402343 19.800781-24.800781 4.597657-1 9.199219-.601562 13.597657 1 4.800781-5.398438 11.601562-8.398438 18.601562-8.398438h10.199219c22.601562 0 41 18.398438 41 41 0 11.199219-1.800781 22.398438-5.597657 33l-1.203124 3.597657c-5 14.402343-16.796876 25.402343-31.398438 29.601562l-.601562.199219c-4 1.398438-8.199219 2-12.597657 2zm-26.800781-92.601562c-8.199219 0-15 6.601562-15 15v.402343 9.398438c0 10.199219 1.800781 20.402343 5.199219 30.199219l1 2.800781c4 11.199219 13.199219 20 24.601562 23.199219l.800781.203124c6.597657 1.796876 13.597657 1.796876 20.199219 0l.597657-.203124c11.601562-3.398438 20.800781-12 24.601562-23.398438l1.199219-3.601562c3.402343-9.597657 5-19.597657 5-29.796876 0-17.203124-13.800781-31-31-31h-10.199219c-5.199219 0-10.199219 2.796876-12.800781 7.398438-1.398438 2.398438-4.398438 3.199219-6.800781 1.800781-2.199219-1.601562-4.796876-2.402343-7.398438-2.402343zm0 0"/><path d="m297.800781 396.601562c-1 0-1.800781 0-2.800781-.203124h-3.199219c-2.800781 0-5-2.199219-5-5 0-.796876.199219-1.796876.597657-2.398438 4.203124-8.398438 6.800781-17.601562 8.203124-26.800781.398438-2.800781 3-4.597657 5.597657-4.199219h.199219c9.203124 1.800781 15.800781 10 15.800781 19.398438 0 10.601562-8.597657 19.203124-19.398438 19.203124zm6.597657-26.402343c-1.199219 5.601562-2.796876 11-4.796876 16.402343 1.597657-.203124 3.199219-1 4.398438-2 4-3.402343 4.601562-9.402343 1.199219-13.402343-.199219-.398438-.597657-.800781-.800781-1zm0 0"/><path d="m211.800781 396.601562c-10.800781 0-19.601562-8.800781-19.601562-19.601562 0-9.398438 6.601562-17.398438 15.800781-19.199219 2.800781-.601562 5.398438 1.199219 6 3.800781v.398438c1.199219 9.398438 3.800781 18.398438 8 26.800781 1.398438 2.398438.601562 5.398438-1.800781 6.800781-.800781.398438-1.597657.597657-2.398438.597657h-3c-1.199219.402343-2.199219.402343-3 .402343zm-6.800781-26.402343c-3.800781 3.601562-4 9.601562-.199219 13.402343.199219.199219.597657.597657.800781.796876 1.199219 1 2.597657 1.800781 4.199219 2-2-5.199219-3.601562-10.597657-4.800781-16.199219zm0 0"/><path d="m440.800781 512c-2.800781 0-5-2.199219-5-5v-19.800781c0-2.800781 2.199219-5 5-5s5 2.199219 5 5v19.800781c0 2.800781-2.199219 5-5 5zm0 0"/><path d="m358.199219 512c-2.800781 0-5-2.199219-5-5v-19.800781c0-2.800781 2.199219-5 5-5s5 2.199219 5 5v19.800781c0 2.800781-2.199219 5-5 5zm0 0"/><path d="m467.199219 512h-134.199219c-5.601562 0-10-4.398438-10-10 0-.199219 0-.398438 0-.601562l2.199219-41c.402343-8.199219 6.199219-15.199219 14.199219-17.199219l26.601562-6.597657 15.800781-7.800781c.597657-.402343 1.398438-.601562 2.199219-.601562h32.199219c.800781 0 1.601562.199219 2.199219.601562l15.800781 7.800781 26.601562 6.597657c8 2 13.800781 9 14.199219 17.199219l2.199219 41c.402343 5.601562-4 10.203124-9.398438 10.601562-.199219 0-.402343 0-.601562 0zm-82-73.800781-15.199219 7.601562c-.398438.199219-.601562.199219-1 .398438l-27 6.800781c-3.800781 1-6.398438 4.199219-6.601562 8l-2.199219 41h134.199219l-2.199219-41c-.199219-3.800781-2.800781-7-6.597657-8l-27-6.800781c-.402343 0-.601562-.199219-1-.398438l-15.203124-7.601562zm0 0"/><path d="m416.199219 438.199219h-32.199219c-1.800781 0-5-.800781-5-6.199219v-7.199219c0-.800781-.398438-1.601562-1.199219-2.199219-8.601562-5.601562-14.601562-14.203124-17-24.203124-.601562-2.597657 1-5.398438 3.800781-6 1.796876-.398438 3.796876.203124 5 1.800781 4.796876 6 11.199219 10.199219 18.597657 12.402343l.800781.199219c6.601562 1.800781 13.601562 1.800781 20.199219 0l.601562-.199219c8.199219-2.402343 15.199219-7.402343 20-14.402343 1.597657-2.199219 4.597657-2.800781 7-1.199219 1.597657 1.199219 2.398438 3 2 5-1.800781 10.800781-7.800781 20.398438-16.601562 26.601562-.597657.398438-1 1.199219-1 2v8.796876c0 2.601562-2.398438 4.800781-5 4.800781zm-27.199219-10h22.199219v-3.800781c0-3.597657 1.601562-7 4.199219-9.398438-1 .398438-1.796876.601562-2.796876 1l-.601562.199219c-8.398438 2.402343-17.398438 2.402343-25.800781 0l-.597657-.199219c2.199219 2.398438 3.597657 5.398438 3.597657 8.800781zm0 0"/><path d="m399 418c-4.398438 0-8.601562-.601562-12.800781-1.800781l-.800781-.199219c-14.597657-4.199219-26.199219-15.199219-31.398438-29.601562l-1-2.796876c-3.800781-10.800781-5.800781-22-5.800781-33.402343v-9.398438c0-12 8.199219-22.402343 19.800781-24.800781 4.601562-1 9.199219-.601562 13.601562 1 4.796876-5.398438 11.597657-8.398438 18.597657-8.398438h10.199219c22.601562 0 41 18.398438 41 41 0 11.199219-1.796876 22.398438-5.597657 33l-1.199219 3.597657c-5 14.402343-16.800781 25.402343-31.402343 29.601562l-.597657.199219c-3.800781 1.398438-8.203124 2-12.601562 2zm-26.800781-92.601562c-8.199219 0-15 6.601562-15 15v.402343 9.398438c0 10.199219 1.800781 20.402343 5.199219 30.199219l1 2.800781c4 11.199219 13.203124 20 24.601562 23.199219l.800781.203124c6.597657 1.796876 13.597657 1.796876 20.199219 0l.601562-.203124c11.597657-3.398438 20.796876-12 24.597657-23.398438l1.199219-3.601562c3.402343-9.597657 5-19.597657 5-29.796876 0-17.203124-13.796876-31-31-31h-10.199219c-5.199219 0-10.199219 2.796876-12.800781 7.398438-1.398438 2.398438-4.398438 3.199219-6.796876 1.800781-2-1.601562-4.601562-2.402343-7.402343-2.402343zm0 0"/><path d="m442.199219 396.601562c-1 0-1.800781 0-2.800781-.203124h-3.199219c-2.800781 0-5-2.199219-5-5 0-.796876.199219-1.796876.601562-2.398438 4.199219-8.398438 6.800781-17.601562 8.199219-26.800781.398438-2.800781 3-4.597657 5.601562-4.199219h.199219c9.199219 1.800781 15.800781 10 15.800781 19.398438 0 10.601562-8.800781 19.203124-19.402343 19.203124zm6.402343-26.402343c-1.203124 5.601562-2.800781 11-4.800781 16.402343 1.597657-.203124 3.199219-1 4.398438-2 4-3.402343 4.601562-9.402343 1.199219-13.402343-.199219-.398438-.398438-.800781-.796876-1zm0 0"/><path d="m356 396.601562c-10.800781 0-19.601562-8.800781-19.601562-19.601562 0-9.398438 6.601562-17.398438 15.800781-19.199219 2.800781-.601562 5.402343 1.199219 6 3.800781v.398438c1.199219 9.398438 3.800781 18.398438 8 26.800781 1.402343 2.398438.601562 5.398438-1.800781 6.800781-.796876.398438-1.597657.597657-2.398438.597657h-3c-1.199219.402343-2.199219.402343-3 .402343zm-6.601562-26.402343c-3.796876 3.601562-4 9.601562-.199219 13.402343.199219.199219.601562.597657.800781.796876 1.199219 1 2.601562 1.800781 4.199219 2-2.199219-5.199219-3.800781-10.597657-4.800781-16.199219zm0 0"/><path d="m453 334.800781h-13.199219c-1.601562 0-3.199219-.800781-4.199219-2.199219-5.800781-8.800781-15.402343-14-26-14h-10.203124c-5.199219 0-10.199219 2.796876-12.796876 7.398438-1.402343 2.398438-4.402343 3.199219-6.800781 1.800781-3.199219-2-7-2.601562-10.601562-1.800781-4 .800781-7.398438 3.199219-9.398438 6.800781-1 1.398438-2.601562 2.398438-4.199219 2.398438h-59.800781c-1.601562 0-3.199219-.800781-4.199219-2.199219-5.800781-8.800781-15.402343-14-26-14h-10.203124c-5.199219 0-10.199219 2.800781-12.796876 7.398438-1.402343 2.402343-4.402343 3.203124-6.800781 1.800781-3.199219-2-7-2.597657-10.601562-1.800781-4 .800781-7.398438 3.203124-9.398438 6.800781-1 1.402343-2.601562 2.402343-4.199219 2.402343h-60.203124c-1.597657 0-3.199219-.800781-4.199219-2.203124-5.800781-8.796876-15.398438-14-26-14h-10.199219c-5.199219 0-10.199219 2.800781-12.800781 7.402343-1.398438 2.398438-4.398438 3.199219-6.800781 1.800781-3.199219-2-7-2.601562-10.597657-1.800781-4 .800781-7.402343 3.199219-9.402343 6.800781-1 1.398438-2.597657 2.398438-4.199219 2.398438h-8.398438c-11 0-19.800781-8.800781-19.800781-19.800781v-272.800781c0-2.796876 2.199219-5 5-5h424c2.800781 0 5 2.203124 5 5v271.601562c-.199219 11-9 19.800781-20 19.800781zm-10.601562-10h10.601562c5.398438 0 9.800781-4.402343 9.800781-9.800781v-266.601562h-414v266.601562c0 5.398438 4.398438 9.800781 9.800781 9.800781h5.796876c3.601562-4.601562 8.601562-7.800781 14.402343-8.800781 4.597657-1 9.199219-.601562 13.597657 1 4.800781-5.398438 11.601562-8.398438 18.601562-8.398438h10.199219c12.800781 0 25 6 32.601562 16.398438h54.597657c3.601562-4.601562 8.601562-7.800781 14.402343-8.800781 4.597657-1 9.199219-.597657 13.597657 1 4.800781-5.398438 11.601562-8.398438 18.601562-8.398438h10.199219c12.800781 0 25 6 32.601562 16.398438h54.597657c3.601562-4.597657 8.601562-7.800781 14.402343-8.800781 4.597657-1 9.199219-.597657 13.597657 1 4.800781-5.398438 11.601562-8.398438 18.601562-8.398438h10.199219c13.402343-.398438 25.601562 5.601562 33.199219 15.800781zm0 0"/></g><path d="m411.800781 103.398438h-199.800781c1 2.402343 1.601562 5.203124 1.601562 7.800781v27c6 5.800781 6.199219 15.199219.597657 21.199219-3.398438 3.601562-8.398438 5.203124-13.398438 4.402343-.800781 12.398438-8 23.398438-18.800781 29.199219v14l16.800781 8.398438 18 4.601562c6.398438 1.601562 12.199219 5.398438 16.597657 10.601562l18.402343 25c.597657.796876 1.597657 1 2.398438.398438l30.800781-27.800781 9.199219-8.398438c12-10 29.601562 1.597657 25.199219 16.398438-.796876 3-2.597657 5.601562-5 7.601562l-9 7.398438-.199219.199219-36.199219 30.203124h131.199219c6.402343 0 11.601562-5.203124 11.601562-11.601562zm0 0" fill="#e9e9ea"/><path d="m207.398438 262.800781v19h22.402343l-18-21c-1-1-2.800781-.800781-3.800781.199219-.398438.398438-.601562 1-.601562 1.800781zm0 0" fill="#e9e9ea"/><path d="m380.601562 168.601562c0 21.207032-17.195312 38.398438-38.402343 38.398438s-38.398438-17.191406-38.398438-38.398438c0-21.210937 17.191407-38.402343 38.398438-38.402343s38.402343 17.191406 38.402343 38.402343zm0 0" fill="#60bae2"/><path d="m342.199219 130.199219v38.402343h38.402343c0-21.203124-17.203124-38.402343-38.402343-38.402343zm0 0" fill="#f75c64"/><path d="m342.199219 168.601562 23 30.796876c9.601562-7.199219 15.402343-18.597657 15.402343-30.796876zm0 0" fill="#ffae2c"/><path d="m316.601562 221.800781c-5.402343-6.800781-15.402343-7.800781-22.203124-2.402343 0 0-.199219.203124-.199219.203124l-40 36.199219c-.800781.597657-1.800781.597657-2.398438-.199219l-18.402343-25c-4.199219-5.203124-10-8.800781-16.597657-10.601562l-18-4.601562-16.800781-8.398438-5.601562 16.398438c-.398438 1-1.199219 1.601562-2.199219 1.601562h-17.398438c-1 0-2-.601562-2.199219-1.601562l-5.601562-16.398438-16.800781 8.398438-28 7c-6 1.601562-10.398438 6.800781-10.800781 13l-4 72.800781h118v-45.597657c0-1.402343 1.203124-2.601562 2.601562-2.601562.601562 0 1.199219.199219 1.800781.601562l26.398438 30.597657c4.800781 5 12.601562 5.402343 18 1l58.402343-48.597657c6.398438-5.402343 7.398438-15.203124 2-21.800781zm0 0" fill="#60bae2"/><path d="m126.398438 134c.800781 0 1.601562 0 2.402343.199219v-1.800781c0-1 .800781-2 2-2h.398438c6.601562 1.402343 26 3.800781 39.199219-12.796876.601562-.800781 1.800781-1 2.800781-.402343 0 0 .199219 0 .199219.199219 3 3 11 9 26 9.402343 1 0 1.800781.800781 1.800781 1.800781v.597657 5c4.601562-.800781 9.402343.800781 12.800781 4v-27c0-11.398438-9.199219-20.597657-20.601562-20.597657-3.796876 0-7.398438 1-10.597657 3-3.800781-6.203124-10.402343-10-17.601562-10h-10.597657c-20.601562 0-37.203124 16.597657-37.203124 37.199219v16.597657c2.203124-2.199219 5.601562-3.398438 9-3.398438zm0 0" fill="#6d6c6b"/><path d="m411.800781 77.601562h-229.800781c-4.398438 0-8.398438 3-9.601562 7.398438 4.203124 1.601562 7.800781 4.800781 10 8.601562 3.203124-2 6.800781-3 10.601562-3 8.398438 0 15.800781 5 19 12.796876h199.800781c5.398438 0 9.800781-4.398438 9.800781-9.796876v-6c0-5.601562-4.402343-10-9.800781-10zm0 0" fill="#6d6c6b"/><path d="m203.199219 134c-.800781 0-1.597657 0-2.398438.199219v2.402343 24.796876 2.402343c8.199219 1.398438 16-4.199219 17.199219-12.402343 1.398438-8.199219-4.199219-16-12.398438-17.199219-.800781 0-1.601562-.199219-2.402343-.199219zm0 0" fill="#f9d0b4"/><path d="m128.601562 161.601562v-24.800781c0-.800781 0-1.601562 0-2.402343-8.203124-1.398438-16 4.203124-17.402343 12.402343-1.398438 8.199219 4.199219 16 12.402343 17.398438 1.597657.199219 3.398438.199219 5 0 0-1 0-1.800781 0-2.597657zm0 0" fill="#f9d0b4"/><path d="m170.199219 117.800781c-13.199219 16.597657-32.597657 14.199219-39.199219 12.800781-1-.203124-2 .398438-2.199219 1.398438v.398438 29c0 20 16.199219 36 36 36 20 0 36-16.199219 36-36v-32c0-.199219 0-.398438 0-.597657 0-1-.800781-1.800781-1.800781-1.800781-15-.398438-22.800781-6.398438-26-9.398438-.800781-.800781-2-.800781-2.800781.199219zm0 0" fill="#f9d0b4"/><path d="m164.800781 197.601562c-5.601562 0-11.199219-1.402343-16-3.800781v13.398438l5.597657 16.402343c.402343 1 1.203124 1.597657 2.203124 1.597657h17.398438c1 0 2-.597657 2.199219-1.597657l5.601562-16.402343v-13.800781c-5.199219 2.800781-11 4.203124-17 4.203124zm0 0" fill="#f9d0b4"/><path d="m294.199219 219.601562-9.199219 8.398438 20.398438 23.398438 9.203124-7.597657c6.597657-5.601562 7.597657-15.601562 2-22.199219-5.800781-6.800781-15.800781-7.601562-22.402343-2zm0 0" fill="#f9d0b4"/><path d="m203.199219 169.199219c-1 0-2.199219 0-3.199219-.199219-2.601562-.398438-4.398438-2.601562-4.199219-5.199219 0-.601562 0-1.402343 0-2v-25c0-.800781 0-1.402343 0-2-.199219-2.601562 1.597657-4.800781 4.199219-5.199219 1-.203124 2.199219-.203124 3.199219-.203124 11-.199219 20.199219 8.800781 20.199219 19.800781.203124 11-8.796876 20.199219-19.796876 20.199219-.203124-.199219-.402343-.199219-.402343-.199219zm2.601562-29.800781v19.402343c5.398438-1.402343 8.398438-7 7-12.402343-1-3.398438-3.601562-6-7-7zm0 0" fill="#231f20"/><path d="m126.398438 169.199219c-11 .199219-20.199219-8.800781-20.199219-19.800781-.199219-11 8.800781-20.199219 19.800781-20.199219h.398438c1 0 2.203124 0 3.203124.199219 2.597657.402343 4.398438 2.601562 4.199219 5.203124v2 24.796876 2c.199219 2.601562-1.601562 4.800781-4.199219 5.203124-1.203124.597657-2.203124.597657-3.203124.597657zm-2.796876-29.800781c-5.402343 1.402343-8.402343 7-7 12.402343 1 3.398438 3.597657 6 7 7zm0 0" fill="#231f20"/><path d="m164.800781 202.601562c-22.601562 0-41-18.402343-41-41v-29c0-3.800781 3-7 7-7 .398438 0 1 0 1.398438.199219 6.601562 1.398438 23 3 34.199219-11 2.402343-3 6.800781-3.601562 9.800781-1.199219.199219.199219.402343.398438.601562.398438 2.199219 2.199219 9 7.601562 22.597657 8 3.601562.199219 6.601562 3 6.800781 6.800781v32.800781c-.398438 22.597657-18.800781 41-41.398438 41zm-31.199219-66.402343v25.402343c0 17.199219 14 31 31 31s31.199219-13.800781 31.199219-31v-29.800781c-8.601562-.402343-17-3.402343-23.800781-8.402343-12.800781 13.800781-29.800781 13.800781-38.398438 12.800781zm40.398438-15.199219" fill="#231f20"/><path d="m213.601562 143.398438c-1.203124 0-2.601562-.597657-3.402343-1.398438-2.199219-2.199219-5.398438-3.199219-8.597657-2.601562-2.800781.402343-5.203124-1.398438-5.800781-4.199219 0-.199219 0-.597657 0-.800781v-2.398438c-8.601562-.398438-17-3.398438-23.800781-8.398438-13 14-30.199219 14-38.601562 12.796876-.796876 2.203124-3.199219 3.402343-5.398438 3-2.800781-.398438-5.601562.203124-7.800781 2-2.199219 1.800781-5.398438 1.402343-7-.796876-.800781-.800781-1.199219-2-1.199219-3.203124v-16.597657c0-23.402343 19-42.199219 42.199219-42.199219h10.601562c7.398438 0 14.398438 3.199219 19.199219 8.796876 2.800781-1 5.800781-1.597657 9-1.597657 14.199219 0 25.601562 11.398438 25.601562 25.597657v27c0 2.601562-2.203124 5-5 5zm-7.800781-14.199219c1 .199219 1.800781.402343 2.800781.601562v-18.601562c0-8.597657-7-15.597657-15.402343-15.597657-2.800781 0-5.597657.796876-8 2.199219-2.398438 1.398438-5.398438.597657-6.800781-1.800781-2.796876-4.800781-7.796876-7.601562-13.398438-7.601562h-10.601562c-17.796876 0-32.199219 14.402343-32.199219 32.203124v8.796876c.800781-.199219 1.800781-.398438 2.601562-.398438 1.398438-2.601562 4.597657-4 7.398438-3.398438 6.601562 1.398438 23 3 34.199219-11 2.402343-3 6.800781-3.601562 9.800781-1.203124.199219.203124.402343.402343.601562.402343 2.199219 2.199219 9 7.597657 22.597657 8 3.601562.199219 6.601562 3 6.800781 6.800781zm0 0" fill="#231f20"/><path d="m165.199219 250c-1.398438 0-2.597657-.601562-3.597657-1.398438-.203124-.203124-.402343-.402343-.601562-.800781-.199219-.199219-.398438-.601562-.398438-.800781-.203124-.398438-.203124-.601562-.203124-1s0-.601562-.199219-1c0-1.398438.601562-2.601562 1.402343-3.601562.199219-.199219.398438-.398438.796876-.597657.601562-.402343 1.203124-.601562 1.800781-.800781.601562-.199219 1.402343-.199219 2 0 .601562.199219 1.199219.398438 1.800781.800781.199219.199219.601562.398438.800781.597657 1 1 1.398438 2.203124 1.398438 3.601562 0 .398438 0 .601562-.199219 1 0 .398438-.199219.601562-.199219 1-.199219.398438-.199219.601562-.402343.800781-.199219.199219-.398438.597657-.597657.800781-1 .796876-2.199219 1.398438-3.601562 1.398438zm0 0" fill="#231f20"/><path d="m165.199219 269.199219c-1.398438 0-2.597657-.597657-3.597657-1.398438-.203124-.199219-.402343-.402343-.601562-.800781-.199219-.199219-.398438-.601562-.398438-.800781-.203124-.398438-.203124-.597657-.203124-1-.199219-.597657-.199219-1.398438 0-2 0-.398438.203124-.597657.203124-1 .199219-.199219.199219-.597657.398438-.800781.199219-.199219.398438-.597657.601562-.796876 1.398438-1.402343 3.597657-1.800781 5.398438-1 .398438.199219.601562.199219.800781.398438s.597657.398438.800781.601562c.199219.199219.398438.398438.597657.796876.199219.203124.402343.601562.402343.800781.199219.402343.199219.601562.199219 1 .199219.601562.199219 1.402343 0 2 0 .402343-.199219.601562-.199219 1-.203124.402343-.203124.601562-.402343.800781s-.398438.601562-.597657.800781c-.203124.199219-.402343.398438-.800781.597657-.199219.203124-.601562.402343-.800781.402343-.398438.199219-.601562.199219-1 .199219 0 .199219-.398438.199219-.800781.199219zm0 0" fill="#231f20"/><path d="m165.199219 288.601562c-.398438 0-.597657 0-1-.203124-.398438 0-.597657-.199219-1-.199219-1-.398438-1.800781-1-2.199219-1.800781-.199219-.199219-.398438-.597657-.398438-.796876-.203124-.203124-.203124-.601562-.203124-1 0-.402343 0-.601562-.199219-1 0-.402343 0-.601562.199219-1 0-.402343.203124-.601562.203124-1 .199219-.203124.199219-.601562.398438-.800781s.398438-.601562.601562-.800781c.199219-.199219.398438-.398438.796876-.601562.203124-.199219.601562-.398438.800781-.398438.199219-.199219.601562-.199219 1-.199219.601562-.199219 1.402343-.199219 2 0 .601562.199219 1.199219.398438 1.800781.800781.199219.199219.601562.398438.800781.597657s.398438.402343.597657.800781c.203124.199219.402343.601562.402343.800781.199219.398438.199219.597657.199219 1 0 .398438.199219.597657.199219 1 0 .398438 0 .597657-.199219 1 0 .398438-.199219.597657-.199219 1-.199219.398438-.199219.597657-.402343.800781-.199219.199219-.398438.597657-.597657.796876-.199219.203124-.402343.402343-.800781.601562-.199219.199219-.601562.398438-.800781.398438-.398438.203124-.597657.203124-1 .203124-.199219-.203124-.597657 0-1 0zm0 0" fill="#231f20"/><path d="m122 313.199219c-2.800781 0-5-2.199219-5-5v-46.199219c0-2.800781 2.199219-5 5-5s5 2.199219 5 5v46.199219c0 2.800781-2.199219 5-5 5zm0 0" fill="#231f20"/><path d="m174 230.199219h-17.398438c-3.203124 0-6-2-7-5l-5.601562-16.398438c-.199219-.601562-.199219-1-.199219-1.601562v-13.398438c0-2.800781 2.199219-5 5-5 .800781 0 1.597657.199219 2.199219.597657 4.199219 2.203124 9 3.402343 13.800781 3.203124 5.199219 0 10.199219-1.203124 14.800781-3.800781 2.398438-1.402343 5.398438-.402343 6.796876 2 .402343.800781.601562 1.597657.601562 2.398438v13.800781c0 .601562 0 1.199219-.199219 1.601562l-5.601562 16.398438c-1.199219 3.199219-4 5.199219-7.199219 5.199219zm-15.601562-10h13.601562l4.800781-13.800781v-5.597657c-7.601562 2.398438-15.601562 2.398438-23.199219.398438v5.199219zm0 0" fill="#231f20"/><path d="m411.800781 108.398438h-199.800781c-2 0-3.800781-1.199219-4.601562-3-3.199219-8-12.199219-11.796876-20.199219-8.597657-.800781.398438-1.398438.597657-2.199219 1-2.398438 1.398438-5.398438.597657-6.800781-1.800781-1.800781-3-4.398438-5.199219-7.597657-6.601562-2.402343-1-3.601562-3.398438-3-6 1.796876-6.597657 7.597657-11 14.398438-11h229.800781c8.199219 0 14.800781 6.601562 14.800781 14.800781v6c0 8.601562-6.601562 15.199219-14.800781 15.199219zm-196.601562-10h196.601562c2.597657 0 4.800781-2.199219 4.800781-4.796876v-6c0-2.601562-2.203124-4.800781-4.800781-4.800781h-229.800781c-.800781 0-1.601562.199219-2.398438.597657 1.597657 1.203124 3.199219 2.601562 4.398438 4 11.800781-4.597657 24.800781.203124 31.199219 11zm0 0" fill="#231f20"/><path d="m207.398438 313.199219h-118c-2.796876 0-5-2.199219-5-5v-.199219l3.601562-72.601562c.398438-8.398438 6.398438-15.597657 14.601562-17.597657l27.597657-7 16.402343-8c2.398438-1.199219 5.398438-.199219 6.597657 2.199219 0 .199219.199219.398438.199219.601562l5 14.597657h13.601562l5-14.597657c1-2.601562 3.800781-4 6.398438-3 .203124 0 .402343.199219.601562.199219l16.398438 8 17.601562 4.398438c7.601562 2 14.199219 6.199219 19.199219 12.199219l.199219.203124 16.203124 22 37.398438-33.800781c8.601562-7.402343 21.800781-6.402343 29.199219 2.199219.199219.199219.199219.398438.402343.398438 7 8.800781 5.796876 21.601562-2.800781 29l-58.402343 48.800781c-7.398438 6.199219-18.199219 5.402343-24.796876-1.398438 0 0-.203124-.199219-.203124-.199219l-22-25.402343v39c0 2.800781-2.199219 5-5 5zm-112.597657-10h107.800781v-40.597657c0-4.203124 3.398438-7.601562 7.597657-7.601562 1.800781 0 3.601562.601562 5 1.800781.199219.199219.402343.398438.601562.597657l26.199219 30.402343c3 3 7.800781 3.199219 11 .597657l58.398438-48.597657c4.402343-3.800781 5.203124-10.402343 1.402343-15-3.800781-4.601562-10.402343-5.402343-15.199219-1.601562 0 0-.203124.199219-.203124.199219l-40 36.203124c-1.398438 1.199219-3.398438 1.796876-5.199219 1.597657s-3.597657-1.199219-4.597657-2.597657l-18.203124-25c-3.597657-4.203124-8.398438-7.402343-13.796876-8.800781l-18-4.601562c-.402343 0-.601562-.199219-1-.398438l-11.800781-5.800781-3.800781 11c-1 3-3.800781 5-7 5h-17.398438c-3.203124 0-6-2-7-5l-3.800781-10.800781-11.800781 5.800781c-.398438.199219-.601562.199219-1 .398438l-28 7c-4 1-6.800781 4.402343-7 8.402343zm0 0" fill="#231f20"/><path d="m305.199219 256.398438c-1.398438 0-2.800781-.597657-3.800781-1.796876l-20.398438-23.402343c-1.800781-2-1.601562-5.199219.398438-7l9.203124-8.398438.199219-.199219c8.800781-7.402343 21.800781-6.402343 29.199219 2.398438.199219.199219.199219.199219.398438.398438 7 8.800781 5.800781 21.601562-2.796876 29l-9.203124 7.601562c-.796876 1-2 1.398438-3.199219 1.398438zm-13.398438-28 13.800781 16 5.398438-4.597657c4.398438-3.800781 5.199219-10.402343 1.398438-15-3.796876-4.601562-10.398438-5.402343-15.199219-1.601562 0 0 0 0-.199219.199219zm0 0" fill="#231f20"/><path d="m400.199219 286.601562h-131.199219c-2.800781 0-5-2.203124-5-5 0-1.402343.601562-2.800781 1.800781-3.800781l45.398438-38c1.601562-1.402343 2.800781-3.199219 3.402343-5.199219 1.597657-5.800781-1.601562-11.601562-7.402343-13.402343-3.398438-1-7.199219-.199219-10 2l-40 36.199219c-1.398438 1.203124-3.398438 1.800781-5.199219 1.601562s-3.601562-1.199219-4.601562-2.601562l-18.199219-25c-3.597657-4.199219-8.398438-7.398438-13.800781-8.796876l-18-4.601562c-.398438 0-.597657-.199219-1-.398438l-16.796876-8.402343c-1.800781-.800781-2.800781-2.597657-2.800781-4.398438v-13.800781c0-1.800781 1-3.601562 2.597657-4.398438 9.402343-5 15.601562-14.601562 16.203124-25.203124.199219-2.796876 2.597657-4.796876 5.398438-4.597657h.398438c.601562 0 1 .199219 1.601562.199219 5.601562 0 10-4.601562 10-10 0-2.800781-1.199219-5.398438-3-7.199219-1-1-1.601562-2.199219-1.601562-3.601562v-27c0-2-.398438-4-1.199219-6-1-2.597657.199219-5.398438 2.800781-6.597657.601562-.203124 1.199219-.402343 2-.402343h199.800781c2.800781 0 5 2.199219 5 5v166.601562c0 9.398438-7.402343 16.800781-16.601562 16.800781zm-117.398438-10h117.398438c3.601562 0 6.601562-3 6.601562-6.601562v-161.601562h-188.402343c.203124 1 .203124 1.800781.203124 2.800781v25.199219c3 3.601562 4.597657 8.203124 4.597657 12.800781 0 10.402343-7.800781 19-18 20-2 11.199219-8.597657 21-18.199219 27v8l13.601562 6.800781 17.597657 4.398438c7.601562 2 14.199219 6.203124 19.199219 12.203124 0 0 .203124.199219.203124.199219l16.199219 22 37.398438-33.800781c8.800781-7.398438 21.800781-6.398438 29.199219 2.199219 4.601562 5.402343 6.203124 12.601562 4.203124 19.402343-1.203124 4-3.402343 7.398438-6.601562 10zm0 0" fill="#231f20"/><path d="m229.800781 286.601562h-22.402343c-2.796876 0-5-2.203124-5-5v-19c0-4.203124 3.402343-7.601562 7.601562-7.601562 1.800781 0 3.601562.601562 5 1.800781.199219.199219.398438.398438.601562.597657l18 21c1.796876 2 1.597657 5.203124-.601562 7-.800781.800781-2 1.203124-3.199219 1.203124zm-17.402343-10h6.402343l-6.402343-7.402343zm0 0" fill="#231f20"/><path d="m279.601562 166.199219h-43.601562c-2.800781 0-5-2.199219-5-5s2.199219-5 5-5h43.601562c2.796876 0 5 2.199219 5 5s-2.203124 5-5 5zm0 0" fill="#231f20"/><path d="m279.601562 143.398438h-43.601562c-2.800781 0-5-2.199219-5-5 0-2.796876 2.199219-5 5-5h43.601562c2.796876 0 5 2.203124 5 5 0 2.800781-2.203124 5-5 5zm0 0" fill="#231f20"/><path d="m279.601562 211.800781h-43.601562c-2.800781 0-5-2.199219-5-5s2.199219-5 5-5h43.601562c2.796876 0 5 2.199219 5 5s-2.203124 5-5 5zm0 0" fill="#231f20"/><path d="m279.601562 189h-43.601562c-2.800781 0-5-2.199219-5-5s2.199219-5 5-5h43.601562c2.796876 0 5 2.199219 5 5s-2.203124 5-5 5zm0 0" fill="#231f20"/><path d="m342.199219 212c-24 0-43.398438-19.398438-43.398438-43.398438s19.398438-43.402343 43.398438-43.402343 43.402343 19.402343 43.402343 43.402343-19.402343 43.398438-43.402343 43.398438zm0-76.800781c-18.398438 0-33.398438 15-33.398438 33.402343 0 18.398438 15 33.398438 33.398438 33.398438 18.402343 0 33.402343-15 33.402343-33.398438 0-18.402343-15-33.402343-33.402343-33.402343zm0 0" fill="#231f20"/><path d="m380.601562 173.601562h-38.402343c-2.800781 0-5-2.203124-5-5v-38.402343c0-2.800781 2.199219-5 5-5 24 0 43.402343 19.402343 43.402343 43.402343 0 2.796876-2.203124 5-5 5zm-33.402343-10h28c-2.199219-14.402343-13.597657-25.800781-28-28zm0 0" fill="#231f20"/><path d="m365.199219 204.199219c-.199219 0-.398438 0-.800781 0-1.398438-.199219-2.398438-.800781-3.199219-2l-23-30.800781c-1.597657-2.199219-1.199219-5.398438 1-7 .800781-.597657 2-1 3-1h38.402343c2.796876 0 5 2.203124 5 5 0 13.601562-6.402343 26.601562-17.402343 34.800781-.800781.800781-1.800781 1-3 1zm-13-30.597657 13.800781 18.398438c5-5 8.199219-11.398438 9.199219-18.398438zm0 0" fill="#231f20"/></svg>