<svg height="424pt" viewBox="0 -25 424 424" width="424pt" xmlns="http://www.w3.org/2000/svg"><path d="m417 105.089844v221.988281c0 22.09375-17.910156 40-40 40h-330c-22.089844 0-40-17.90625-40-40v-221.988281zm0 0" fill="#e48e66"/><path d="m417 47v58.089844h-410v-58.089844c0-22.089844 17.910156-40 40-40h330c22.089844 0 40 17.910156 40 40zm-214.179688 9.699219c.03125-8.371094-6.730468-15.179688-15.101562-15.210938-8.367188-.027343-15.179688 6.730469-15.207031 15.101563-.03125 8.371094 6.726562 15.179687 15.097656 15.210937h.011719c8.363281.019531 15.164062-6.734375 15.199218-15.101562zm-68.070312-.210938c.027344-8.367187-6.734375-15.171875-15.101562-15.199219-8.367188-.027343-15.171876 6.734376-15.199219 15.101563-.027344 8.367187 6.734375 15.171875 15.101562 15.199219h.007813c8.363281.027344 15.164062-6.726563 15.191406-15.089844 0-.003906 0-.007812 0-.011719zm-68.058594-.21875c.019532-8.367187-6.746094-15.167969-15.113281-15.191406-8.363281-.019531-15.167969 6.746094-15.1875 15.113281-.023437 8.363282 6.738281 15.160156 15.097656 15.1875 8.367188.03125 15.171875-6.726562 15.203125-15.089844 0-.007812 0-.011718 0-.019531zm0 0" fill="#f8ec7d"/><path d="m187.710938 41.5c8.367187.027344 15.128906 6.832031 15.097656 15.199219-.027344 8.367187-6.832032 15.128906-15.199219 15.101562-8.367187-.027343-15.125-6.832031-15.097656-15.199219.03125-8.367187 6.832031-15.125 15.199219-15.101562zm0 0" fill="#e48e66"/><path d="m119.648438 41.289062c8.367187.027344 15.128906 6.832032 15.101562 15.199219-.027344 8.367188-6.832031 15.128907-15.199219 15.101563-8.367187-.027344-15.128906-6.832032-15.101562-15.199219.023437-8.363281 6.820312-15.121094 15.179687-15.101563zm0 0" fill="#e48e66"/><path d="m51.589844 41.070312c8.371094.023438 15.136718 6.828126 15.109375 15.199219-.023438 8.371094-6.828125 15.136719-15.199219 15.109375-8.371094-.023437-15.136719-6.828125-15.109375-15.199218.019531-8.363282 6.816406-15.128907 15.179687-15.109376zm0 0" fill="#e48e66"/><g fill="#63316d"><path d="m167.285156 272.128906c-1.601562 0-3.214844-.546875-4.53125-1.667968l-45.292968-38.570313c-1.5625-1.332031-2.460938-3.28125-2.460938-5.332031 0-2.050782.902344-3.996094 2.460938-5.328125l45.292968-38.570313c2.941406-2.503906 7.359375-2.152344 9.867188.792969 2.503906 2.945313 2.152344 7.363281-.792969 9.867187l-39.03125 33.242188 39.03125 33.238281c2.945313 2.507813 3.296875 6.925781.792969 9.871094-1.386719 1.621094-3.355469 2.457031-5.335938 2.457031zm0 0"/><path d="m256.714844 272.128906c-1.980469 0-3.949219-.835937-5.332032-2.460937-2.507812-2.941407-2.152343-7.359375.789063-9.867188l39.03125-33.242187-39.03125-33.238282c-2.941406-2.507812-3.296875-6.925781-.789063-9.867187 2.507813-2.945313 6.921876-3.296875 9.863282-.792969l45.292968 38.570313c1.5625 1.328125 2.460938 3.277343 2.460938 5.328125 0 2.050781-.898438 4-2.460938 5.328125l-45.289062 38.570312c-1.316406 1.125-2.933594 1.671875-4.535156 1.671875zm0 0"/><path d="m195.96875 301.0625c-.480469 0-.964844-.050781-1.453125-.152344-3.78125-.796875-6.203125-4.507812-5.40625-8.292968l28.230469-134.039063c.796875-3.78125 4.507812-6.203125 8.292968-5.40625 3.78125.796875 6.203126 4.507813 5.40625 8.292969l-28.230468 134.039062c-.695313 3.296875-3.601563 5.558594-6.839844 5.558594zm0 0"/><path d="m377 374.078125h-330c-25.914062 0-47-21.082031-47-47v-280.078125c0-25.914062 21.085938-47 47-47h330c25.914062 0 47 21.085938 47 47v280.078125c0 25.917969-21.085938 47-47 47zm-330-360.078125c-18.195312 0-33 14.804688-33 33v280.078125c0 18.199219 14.804688 33 33 33h330c18.195312 0 33-14.800781 33-33v-280.078125c0-18.195312-14.804688-33-33-33zm0 0"/><path d="m417 112.089844h-410c-3.867188 0-7-3.132813-7-7 0-3.867188 3.132812-7 7-7h410c3.867188 0 7 3.132812 7 7 0 3.867187-3.132812 7-7 7zm0 0"/><path d="m119.601562 78.589844c-.023437 0-.050781 0-.074218 0-12.214844-.039063-22.117188-10.011719-22.078125-22.222656.023437-5.917969 2.34375-11.472657 6.542969-15.640626 4.179687-4.152343 9.71875-6.4375 15.605468-6.4375h.078125c5.910157.019532 11.464844 2.339844 15.636719 6.53125 4.167969 4.195313 6.457031 9.761719 6.4375 15.675782v.015625c-.039062 12.191406-9.96875 22.078125-22.148438 22.078125zm0-30.300782c-2.167968 0-4.207031.839844-5.746093 2.367188-1.542969 1.535156-2.398438 3.578125-2.40625 5.757812-.011719 4.492188 3.628906 8.160157 8.125 8.175782h.027343c4.476563 0 8.128907-3.632813 8.148438-8.113282.007812-2.195312-.835938-4.242187-2.367188-5.785156-1.535156-1.542968-3.578124-2.394531-5.753906-2.402344-.007812 0-.019531 0-.027344 0zm15.148438 8.199219h.011719zm0 0"/><path d="m51.542969 78.371094c-.027344 0-.050781 0-.078125 0-5.914063-.019532-11.46875-2.34375-15.640625-6.539063-4.167969-4.199219-6.457031-9.769531-6.433594-15.683593.039063-12.214844 10.015625-22.117188 22.222656-22.078126 12.210938.042969 22.113281 10.011719 22.074219 22.21875v.003907c-.019531 5.917969-2.339844 11.472656-6.539062 15.640625-4.175782 4.152344-9.71875 6.4375-15.605469 6.4375zm-.003907-30.300782c-4.480468 0-8.132812 3.636719-8.148437 8.125-.007813 2.175782.832031 4.226563 2.367187 5.769532 1.535157 1.542968 3.578126 2.398437 5.757813 2.40625h.027344c2.167969 0 4.203125-.839844 5.742187-2.367188 1.542969-1.535156 2.398438-3.578125 2.40625-5.753906.011719-4.492188-3.632812-8.164062-8.125-8.179688-.011718 0-.019531 0-.027344 0zm15.152344 8.199219h.007813zm0 0"/><path d="m187.667969 78.808594c-.023438 0-.046875 0-.066407 0-5.917968-.015625-11.476562-2.335938-15.648437-6.535156-4.171875-4.195313-6.460937-9.765626-6.441406-15.683594.035156-12.195313 9.96875-22.089844 22.152343-22.089844h.066407c12.207031.027344 22.121093 9.988281 22.089843 22.199219v.089843c-.074218 12.164063-9.992187 22.019532-22.152343 22.019532zm0-30.308594c-2.171875 0-4.214844.839844-5.753907 2.371094-1.542968 1.535156-2.398437 3.582031-2.402343 5.761718-.007813 2.175782.832031 4.226563 2.371093 5.769532 1.535157 1.546875 3.582032 2.402344 5.757813 2.40625h.023437c4.484376 0 8.140626-3.640625 8.15625-8.128906 0-.019532 0-.039063 0-.0625-.015624-4.46875-3.652343-8.105469-8.128906-8.117188-.007812 0-.015625 0-.023437 0zm15.152343 8.199219h.007813zm0 0"/></g></svg>