<?xml version="1.0" ?><!DOCTYPE svg  PUBLIC '-//W3C//DTD SVG 1.1//EN'  'http://www.w3.org/Graphics/SVG/1.1/DTD/svg11.dtd'><svg enable-background="new 0 0 512 512" height="512px" id="Layer_1" version="1.1" viewBox="0 0 512 512" width="512px" xml:space="preserve" xmlns="http://www.w3.org/2000/svg" xmlns:xlink="http://www.w3.org/1999/xlink"><g><polyline fill="#37C1DB" points="2.271,512 512.521,512 512.521,1.75 2.271,1.75 2.271,512  "/><polyline fill="#010101" opacity="0.191" points="364.031,206.049 178.666,245.912 163.717,349.557 350.079,512 512.521,512    512.521,355.537 364.031,206.049  "/><path d="M95.725,128.814l-4.216-13.026l-3.999,13.026H95.725 M98.249,136.289H85.207l-1.835,5.979H70.775   l13.261-35.877h14.76l13.985,35.877h-12.614L98.249,136.289z" fill="#FFFFFF"/><polyline fill="#FFFFFF" points="116.551,106.391 127.785,106.391 142.401,126.525 142.401,106.391 153.712,106.391    153.712,142.268 142.401,142.268 127.86,122.251 127.86,142.268 116.551,142.268 116.551,106.391  "/><path d="M180.639,130.309v-8.471h18.311v14.698c-3.479,2.41-6.555,4.05-9.231,4.922   c-2.676,0.872-5.848,1.309-9.517,1.309c-4.521,0-8.206-0.722-11.054-2.165c-2.846-1.442-5.053-3.592-6.621-6.446   c-1.57-2.854-2.354-6.13-2.354-9.825c0-3.894,0.858-7.279,2.571-10.157c1.714-2.878,4.223-5.062,7.528-6.552   c2.58-1.152,6.049-1.729,10.409-1.729c4.207,0,7.352,0.366,9.438,1.098c2.083,0.732,3.815,1.869,5.191,3.41   c1.378,1.542,2.41,3.496,3.102,5.863l-11.849,1.588c-0.449-1.126-1.21-1.989-2.284-2.589s-2.445-0.899-4.111-0.899   c-2.479,0-4.457,0.788-5.932,2.363c-1.476,1.575-2.214,4.068-2.214,7.479c0,3.623,0.776,6.21,2.327,7.763   c1.551,1.552,3.715,2.327,6.493,2.327c1.313,0,2.567-0.124,3.766-0.373c1.197-0.249,2.566-0.672,4.109-1.27v-2.344H180.639" fill="#FFFFFF"/><path d="M231.263,106.391h11.849v21.311c0,2.112-0.358,4.106-1.075,5.983c-0.713,1.876-1.832,3.517-3.357,4.924   c-1.522,1.407-3.124,2.396-4.801,2.967c-2.328,0.794-5.121,1.191-8.38,1.191c-1.892,0-3.952-0.122-6.182-0.366   c-2.229-0.244-4.092-0.728-5.591-1.452c-1.498-0.724-2.867-1.752-4.11-3.083c-1.244-1.331-2.094-2.706-2.554-4.123   c-0.74-2.273-1.111-4.287-1.111-6.041v-21.311h11.848v21.715c0,1.941,0.596,3.458,1.788,4.551s2.846,1.639,4.96,1.639   c2.093,0,3.735-0.537,4.927-1.611c1.192-1.074,1.79-2.601,1.79-4.578V106.391" fill="#FFFFFF"/><polyline fill="#FFFFFF" points="250.651,106.391 262.5,106.391 262.5,133.299 281.348,133.299 281.348,142.268 250.651,142.268    250.651,106.391  "/><path d="M307.915,128.814l-4.217-13.026l-3.998,13.026H307.915 M310.438,136.289h-13.042l-1.835,5.979h-12.597   l13.262-35.877h14.759l13.986,35.877h-12.616L310.438,136.289z" fill="#FFFFFF"/><path d="M341.128,120.344h4.982c0.537,0,1.581-0.156,3.13-0.468c0.779-0.14,1.417-0.499,1.916-1.078   c0.495-0.579,0.742-1.242,0.742-1.989c0-1.105-0.39-1.956-1.174-2.55c-0.781-0.595-2.25-0.892-4.403-0.892h-5.193V120.344    M329.279,142.268v-35.877h19.665c3.654,0,6.441,0.288,8.37,0.864c1.928,0.576,3.48,1.644,4.661,3.2   c1.181,1.558,1.772,3.452,1.772,5.684c0,1.952-0.459,3.634-1.381,5.046c-0.919,1.411-2.186,2.559-3.794,3.44   c-1.028,0.556-2.432,1.018-4.218,1.387c1.376,0.467,2.375,0.934,3.006,1.401c0.426,0.316,1.043,0.984,1.851,2.009   c0.807,1.022,1.347,1.812,1.614,2.366l6.153,10.479h-13.169l-6.607-11.258c-0.802-1.459-1.513-2.403-2.136-2.834   c-0.854-0.571-1.819-0.856-2.896-0.856h-1.043v14.948H329.279z" fill="#FFFFFF"/><path d="M387.442,106.391h11.851v19.434c0,4.08-0.395,7.184-1.179,9.313c-0.786,2.128-2.366,3.932-4.744,5.411   c-2.374,1.479-5.416,2.219-9.125,2.219c-3.921,0-6.958-0.484-9.111-1.452c-2.154-0.968-3.82-2.383-4.996-4.243   c-1.176-1.861-1.869-4.162-2.081-6.902l11.847-1.354c0.016,1.484,0.164,2.586,0.438,3.305c0.275,0.719,0.74,1.299,1.396,1.74   c0.449,0.291,1.085,0.436,1.91,0.436c1.309,0,2.266-0.456,2.878-1.37c0.612-0.913,0.916-2.452,0.916-4.616V106.391" fill="#FFFFFF"/><path d="M404.676,130.457l11.85-0.646c0.23,1.682,0.698,2.962,1.404,3.839c1.152,1.427,2.795,2.141,4.934,2.141   c1.593,0,2.818-0.372,3.68-1.117s1.293-1.607,1.293-2.589c0-0.929-0.382-1.762-1.145-2.499c-0.769-0.737-2.741-1.433-5.918-2.087   c-5.198-1.095-8.906-2.54-11.123-4.336c-2.239-1.796-3.358-4.083-3.358-6.859c0-1.833,0.576-3.561,1.726-5.186   c1.15-1.625,2.881-2.901,5.188-3.831c2.308-0.929,5.474-1.394,9.496-1.394c4.931,0,8.691,0.86,11.281,2.581   c2.588,1.721,4.129,4.46,4.622,8.218l-11.847,0.662c-0.257-1.739-0.8-3.004-1.62-3.796c-0.822-0.791-1.956-1.187-3.404-1.187   c-1.189,0-2.087,0.273-2.689,0.821c-0.602,0.547-0.902,1.213-0.902,1.997c0,0.57,0.14,1.087,0.42,1.549   c0.268,0.473,1.451,0.914,3.551,1.324c5.183,1.043,8.896,2.098,11.142,3.164c2.244,1.067,3.877,2.391,4.896,3.971   c1.021,1.581,1.531,3.35,1.531,5.307c0,2.294-0.685,4.41-2.053,6.35c-1.37,1.938-3.283,3.408-5.738,4.41   c-2.457,1.002-5.554,1.503-9.291,1.503c-6.563,0-11.11-1.159-13.636-3.477C406.438,136.973,405.008,134.028,404.676,130.457" fill="#FFFFFF"/><polyline fill="#E15855" points="355.271,213.152 339.098,341.896 255.396,388.219 255.396,179.094 255.395,388.219    172.986,342.511 158.107,213.767 255.395,179.09 255.396,179.094 355.271,213.152  "/><path d="M235.358,283.109h20.038l1.091,0.037h22.037l-22.946-48L235.358,283.109 M255.396,303.277h-28.977   l-13.62,34.069l-25.337,0.47l67.932-151.127v-0.002l0.001,0.001v-0.001l0.002,0.006l71.06,151.577l-24.243-0.449l-14.913-34.544   l-31.843-0.03L255.396,303.277z" fill="#FFFFFF"/><polyline fill="#FFFFFF" points="255.055,168.603 146.471,206.813 163.631,349.073 255.17,399.387 347.18,348.394 364.335,206.138    255.055,168.603  "/><polyline fill="#CA403A" points="353.502,214.359 254.801,180.7 254.801,387.365 337.517,341.587 353.502,214.359  "/><polyline fill="#E15855" points="158.656,214.966 173.359,342.195 254.799,387.365 254.799,180.696 158.656,214.966  "/><path d="M279.344,284.322l-24.364-48.23l-19.981,47.4h19.8L279.344,284.322 M281.971,290.719l-27.17,12.705h-28.635   l-13.462,33.668l-25.039,0.464l67.135-149.351L281.971,290.719z" fill="#FFFFFF"/><polyline fill="#FFFFFF" points="254.799,188.205 254.98,236.092 277.654,283.528 254.85,283.528 254.799,303.393 286.331,303.424    301.07,337.561 325.026,338.004 254.799,188.205  "/></g></svg>